<svg width="101" height="102" viewBox="0 0 90 90" fill="none" xmlns="http://www.w3.org/2000/svg">
<path fill-rule="evenodd" clip-rule="evenodd" d="M50.6719 49.6552L50.6843 49.6871L50.6736 49.6489L50.6911 49.5826L50.6705 49.6381L41.4171 16.8433L38.3001 17.888L50.668 49.6451L50.6089 49.8045L17.3501 48.0556L17.3359 51.3441L50.5795 49.8838L50.5728 49.9019L50.5725 49.9015L50.5728 49.902L50.561 49.9337L50.4693 49.912L50.5579 49.9422L50.5271 50.0253L42.567 53.4231L49.1002 50.0925L17.3553 62.5897L18.7051 65.5882L19.9502 64.9534L20.631 66.3579L49.9316 50.3562L50.304 50.6272L38.8348 81.5825L41.9686 82.5755L50.397 50.6949L51.013 51.1432L55.4415 84.2262L56.839 84.0093L51.0476 51.1684L51.2346 51.3045L65.1351 80.7631L68.0367 79.2177L51.5413 51.5277L77.4526 70.3854L79.2561 67.636L51.3287 51.1708L50.93 50.5015L50.9179 50.4329L50.9262 50.4952L50.755 50.2078L50.8232 50.0327L82.7575 60.9287L83.6675 57.7687L50.8519 50.0026L51.1932 49.8569L51.4176 49.847L51.2384 49.8376L82.1657 36.6359L80.7314 33.677L51.1487 49.8329L50.973 49.8236L71.4212 22.9604L70.2785 22.1268L50.9569 49.8228L50.906 49.8201L63.0811 18.5581L59.9641 17.5133L50.8492 49.8171L50.6321 49.8057L50.6719 49.6552ZM50.6968 50.3572L50.7379 50.2518L50.9554 50.7128L50.9899 50.9711L50.4138 50.6314L50.5929 49.9542L50.5983 49.956L50.7308 50.2368L50.6968 50.3572ZM50.7734 50.0859L50.7441 50.1895L50.6068 49.9589L50.7914 50.0219L50.7894 50.0291L50.7883 50.0297L50.7894 50.0293L50.7734 50.0858L50.7734 50.0859ZM50.9249 49.8687L50.8393 49.9914L50.8864 49.8703L50.9249 49.8687ZM50.8003 49.9904L50.8335 49.8727L50.6118 49.8824L50.5963 49.9413L50.5968 49.9422L50.8003 49.9904ZM49.3744 48.3193L29.0128 20.9846L29.5827 20.5689L49.3744 48.3193ZM50.5245 50.0324L49.9395 50.3518L50.3225 50.5776L50.5245 50.0324ZM51.097 49.8611L50.8422 50.0003L50.8391 49.9995L50.9392 49.868L51.097 49.8611ZM51.0155 50.9861L51.1109 51.0424L50.9744 50.753L51.0155 50.9861ZM35.3715 84.8893L48.8264 53.5696L36.0224 85.1611L35.3715 84.8893ZM18.3595 35.8746L49.7369 49.2684L19.7938 32.9156L18.3595 35.8746Z" fill="url(#paint0_radial_565:110)"/>
<path fill-rule="evenodd" clip-rule="evenodd" d="M51.5807 50.1763L51.5664 50.2083L51.5865 50.173L51.6451 50.1394L51.5919 50.1634L68.4195 20.5363L65.4865 19.0514L51.5851 50.1665L51.4298 50.2366L29.3077 25.3316L26.9585 27.6318L51.3526 50.2714L51.3347 50.2795L51.3349 50.279L51.3347 50.2796L51.3036 50.2936L51.2545 50.2129L51.2953 50.2973L51.2147 50.3337L19.6897 37.4257L18.5925 40.5257L51.2079 50.3368L20.5519 64.1808L22.0472 67.1094L51.3114 50.3307L51.314 50.336L51.2075 50.6272L51.0977 50.6878L51.2018 50.6429L51.0262 51.123L30.3385 77.8607L31.4746 78.7033L51.0108 51.165L39.6121 82.328L42.75 83.308L51.1588 50.9563L51.1997 50.8987L51.1607 50.9491L51.2452 50.6241L51.4173 50.5498L66.102 80.9384L68.9892 79.3662L51.4591 50.5493L51.8043 50.6906L51.9679 50.8424L51.8494 50.7091L82.9678 63.4505L84.065 60.3506L51.7896 50.6418L51.6721 50.5094L85.1474 46.1934L84.9376 44.7942L51.6614 50.4974L51.6274 50.4591L82.4191 37.1632L80.9724 34.2103L51.5896 50.4165L51.4452 50.254L51.5807 50.1763ZM51.3959 50.5234L51.2505 50.6035L51.3179 50.3442L51.4027 50.5196L51.3959 50.5233L51.3959 50.5234ZM51.6063 50.5068L51.4579 50.5322L51.5779 50.4805L51.6063 50.5068ZM51.4314 50.5037L51.539 50.4444L51.3764 50.2935L51.3232 50.3239L51.3229 50.3252L51.4314 50.5037ZM56.7585 14.6151L51.6189 48.3145L57.4546 14.7287L56.7585 14.6151ZM51.454 50.5408L51.7335 50.6249L51.6168 50.5166L51.4522 50.5378L51.454 50.5408ZM47.4993 51.613L15.7669 64.0386L16.0307 64.6929L47.4993 51.613ZM51.1987 49.2394L38.682 17.4923L41.7946 16.4345L51.1987 49.2394Z" fill="url(#paint1_radial_565:110)"/>
<ellipse cx="50.5" cy="50.5226" rx="50.5" ry="50.5187" fill="url(#paint2_radial_565:110)"/>
<defs>
<radialGradient id="paint0_radial_565:110" cx="0" cy="0" r="1" gradientUnits="userSpaceOnUse" gradientTransform="translate(50.5017 50.5346) rotate(90) scale(33.6914 33.1658)">
<stop stop-color="white"/>
<stop offset="0.661458" stop-color="white" stop-opacity="0.15"/>
<stop offset="0.890625" stop-color="white" stop-opacity="0.1"/>
<stop offset="1" stop-color="white" stop-opacity="0"/>
</radialGradient>
<radialGradient id="paint1_radial_565:110" cx="0" cy="0" r="1" gradientUnits="userSpaceOnUse" gradientTransform="translate(50.835 50.6733) rotate(135.357) scale(33.685 33.1717)">
<stop stop-color="white"/>
<stop offset="0.604167" stop-color="white" stop-opacity="0.15"/>
<stop offset="0.770833" stop-color="white" stop-opacity="0.06"/>
<stop offset="0.854167" stop-color="white" stop-opacity="0"/>
</radialGradient>
<radialGradient id="paint2_radial_565:110" cx="0" cy="0" r="1" gradientUnits="userSpaceOnUse" gradientTransform="translate(50.5 50.5226) rotate(90) scale(50.5187 50.5)">
<stop stop-color="white"/>
<stop offset="0.0871218" stop-color="white"/>
<stop offset="0.283346" stop-color="white" stop-opacity="0.22"/>
<stop offset="0.365534" stop-color="white" stop-opacity="0.12"/>
<stop offset="0.45835" stop-color="white" stop-opacity="0.12"/>
<stop offset="0.493735" stop-color="white" stop-opacity="0.09"/>
<stop offset="0.546575" stop-color="white" stop-opacity="0.07"/>
<stop offset="0.635417" stop-color="white" stop-opacity="0.03"/>
<stop offset="0.817708" stop-color="white" stop-opacity="0"/>
</radialGradient>
</defs>
</svg>
