<svg width="124" height="124" viewBox="0 0 124 124" fill="none" xmlns="http://www.w3.org/2000/svg">
<mask id="mask0_621:303" style="mask-type:alpha" maskUnits="userSpaceOnUse" x="17" y="22" width="90" height="80">
<path d="M36.88 26.8733C38.3489 24.3196 41.0687 22.7437 44.0147 22.739L79.861 22.6822C82.807 22.6776 85.5317 24.2449 87.0087 26.7939L104.981 57.8094C106.458 60.3583 106.463 63.5017 104.994 66.0553L87.12 97.1275C85.6511 99.6811 82.9314 101.257 79.9854 101.262L44.139 101.319C41.1931 101.323 38.4684 99.7558 36.9913 97.2069L19.019 66.1914C17.542 63.6424 17.537 60.4991 19.006 57.9455L36.88 26.8733Z" fill="black"/>
</mask>
<g mask="url(#mask0_621:303)">
<rect x="-17.3506" y="-2.23096" width="158.606" height="128.368" fill="black"/>
<path d="M57.8768 16.2198C60.4282 14.7468 63.5715 14.7468 66.1228 16.2198L99.5863 35.5399C102.138 37.0129 103.709 39.7351 103.709 42.6811V81.3215C103.709 84.2674 102.138 86.9897 99.5863 88.4627L66.1228 107.783C63.5715 109.256 60.4282 109.256 57.8768 107.783L24.4133 88.4627C21.862 86.9897 20.2904 84.2674 20.2904 81.3214V42.6811C20.2904 39.7351 21.862 37.0129 24.4133 35.5399L57.8768 16.2198Z" fill="black"/>
<mask id="mask1_621:303" style="mask-type:alpha" maskUnits="userSpaceOnUse" x="20" y="15" width="84" height="94">
<path d="M57.8768 16.2198C60.4282 14.7468 63.5715 14.7468 66.1228 16.2198L99.5863 35.5399C102.138 37.0129 103.709 39.7351 103.709 42.6811V81.3215C103.709 84.2674 102.138 86.9897 99.5863 88.4627L66.1228 107.783C63.5715 109.256 60.4282 109.256 57.8768 107.783L24.4133 88.4627C21.862 86.9897 20.2904 84.2674 20.2904 81.3214V42.6811C20.2904 39.7351 21.862 37.0129 24.4133 35.5399L57.8768 16.2198Z" fill="black"/>
</mask>
<g mask="url(#mask1_621:303)">
<path fill-rule="evenodd" clip-rule="evenodd" d="M67.997 73.9611L68.0044 73.9801L67.998 73.9573L68.0082 73.9185L67.9962 73.951L62.6037 54.8398L60.7873 55.4487L67.9947 73.9551L67.9604 74.0477L48.5786 73.0285L48.5703 74.9449L67.9432 74.0939L67.9387 74.1062L67.9381 74.1052L67.9386 74.1064L67.9323 74.1236L67.8784 74.1108L67.9304 74.1286L67.9121 74.178L63.2676 76.1605L67.0813 74.2163L48.5815 81.4992L49.3681 83.2466L50.0944 82.8763L50.4914 83.6953L67.5669 74.37L67.7828 74.527L61.0988 92.5669L62.9251 93.1456L67.8369 74.5665L68.1959 74.8277L70.7769 94.1087L71.5913 93.9824L68.216 74.8424L68.3225 74.9198L76.4246 92.0902L78.1156 91.1896L68.5006 75.0495L83.6054 86.0424L84.6565 84.4402L68.3773 74.8425L68.1482 74.458L68.1407 74.4152L68.1459 74.454L68.0445 74.2838L68.0845 74.1811L86.6948 80.531L87.2252 78.6894L68.1031 74.164L68.3044 74.0781L68.432 74.0725L68.3301 74.0671L86.3514 66.3746L85.5155 64.6502L68.2774 74.0643L68.1731 74.0589L80.0889 58.4049L79.423 57.9191L68.1637 74.0584L68.133 74.0568L75.2276 55.8398L73.4111 55.2309L68.0997 74.055L67.9739 74.0484L67.997 73.9611ZM68.0105 74.3712L68.0345 74.3095L68.163 74.5819L68.1825 74.7276L67.8467 74.5296L67.9509 74.1355L67.9527 74.1362L68.0304 74.3008L68.0105 74.3712ZM68.0659 74.1748L68.0382 74.2732L67.9575 74.1378L68.0659 74.1748ZM68.145 74.0851L68.0927 74.1601L68.1215 74.0861L68.145 74.0851ZM68.0711 74.1564L68.0905 74.0875L67.9621 74.0931L67.9527 74.1284L68.0711 74.1564ZM67.2425 73.1828L55.3765 57.2531L55.7086 57.0109L67.2425 73.1828ZM67.9105 74.1823L67.5716 74.3674L67.7934 74.4982L67.9105 74.1823ZM68.2477 74.0806L68.0974 74.1627L68.0946 74.162L68.1534 74.0847L68.2477 74.0806ZM68.1973 74.7364L68.2508 74.7679L68.1743 74.6058L68.1973 74.7364ZM59.0814 94.4944L66.9224 76.2424L59.4607 94.6528L59.0814 94.4944ZM49.1662 65.9304L67.4519 73.7358L50.0021 64.206L49.1662 65.9304Z" fill="url(#paint0_radial_621:303)"/>
<path fill-rule="evenodd" clip-rule="evenodd" d="M68.5231 74.2634L68.5137 74.2843L68.5268 74.2613L68.5575 74.2436L68.5297 74.2562L78.3351 56.9924L76.6259 56.1271L68.5254 74.2581L68.4335 74.2997L55.5423 59.7868L54.1733 61.1272L68.3884 74.32L68.3601 74.3328L68.332 74.2867L68.3554 74.3349L68.3066 74.357L49.936 66.8351L49.2966 68.6416L68.3025 74.3588L50.4375 82.4265L51.3089 84.1332L68.3647 74.3542L68.3672 74.3595L68.3058 74.5274L68.2404 74.5635L68.3024 74.5367L68.2006 74.8152L56.1435 90.3983L56.8056 90.8893L68.1917 74.8394L61.548 93.0025L63.3767 93.5736L68.2775 74.7184L68.3007 74.6857L68.2786 74.7143L68.3276 74.5259L68.4269 74.483L76.9846 92.1924L78.6672 91.2762L68.4511 74.4824L68.6521 74.5647L68.7479 74.6536L68.6786 74.5756L86.814 82.0012L87.4534 80.1946L68.6438 74.5364L68.5749 74.4588L88.0831 71.9435L87.9608 71.1282L68.5686 74.4518L68.5494 74.4301L86.4934 66.6819L85.6503 64.961L68.5273 74.4053L68.4424 74.3097L68.5231 74.2634ZM68.3861 74.4832L68.3307 74.5137L68.3696 74.3643L68.4184 74.4653L68.3863 74.483L68.3841 74.4834L68.3861 74.4832ZM68.5364 74.4573L68.4534 74.4715L68.5205 74.4426L68.5364 74.4573ZM68.4351 74.4561L68.4978 74.4215L68.4022 74.3327L68.3735 74.3491L68.3725 74.3531L68.4351 74.4561ZM71.54 53.541L68.5448 73.1799L71.9456 53.6072L71.54 53.541ZM68.4482 74.4776L68.611 74.5266L68.5425 74.463L68.4468 74.4753L68.4482 74.4776ZM66.1443 75.1032L47.6517 82.3444L47.8055 82.7257L66.1443 75.1032ZM68.2995 73.7199L61.0052 55.2188L62.8191 54.6023L68.2995 73.7199Z" fill="url(#paint1_radial_621:303)"/>
<ellipse cx="67.8945" cy="79.8873" rx="29.4297" ry="29.4405" fill="url(#paint2_radial_621:303)"/>
<path d="M114.916 129.584C114.916 166.122 85.3075 195.742 48.7829 195.742C12.2584 195.742 -17.3506 166.122 -17.3506 129.584C-17.3506 93.0462 12.2584 63.4263 48.7829 63.4263C85.3075 63.4263 114.916 93.0462 114.916 129.584ZM-16.044 129.584C-16.044 165.4 12.98 194.435 48.7829 194.435C84.5858 194.435 113.61 165.4 113.61 129.584C113.61 93.7681 84.5858 64.7334 48.7829 64.7334C12.98 64.7334 -16.044 93.7681 -16.044 129.584Z" fill="url(#paint3_angular_621:303)"/>
<ellipse cx="48.3075" cy="130.061" rx="65.6581" ry="65.6824" fill="black"/>
<path d="M62.6177 72.4336L64.6262 77.4632L59.8199 77.0708L62.6177 72.4336Z" fill="#262626"/>
<rect x="64.2168" y="30.6006" width="3.63615" height="6.82349" transform="rotate(4.66829 64.2168 30.6006)" fill="white"/>
<path d="M65.7855 28.085C66.0094 27.7428 66.5235 27.7848 66.6889 28.1588L67.7872 30.6428C67.9454 31.0005 67.6633 31.3972 67.2735 31.3654L64.6884 31.1543C64.2986 31.1225 64.0847 30.6852 64.2988 30.3579L65.7855 28.085Z" fill="white"/>
<rect x="63.791" y="37.48" width="3.34894" height="7.92651" transform="rotate(4.66829 63.791 37.48)" fill="white"/>
<rect x="62.7559" y="50.168" width="3.34894" height="25.3815" transform="rotate(4.66829 62.7559 50.168)" fill="white"/>
<path d="M65.3975 39.3431C65.3561 39.3783 65.2939 39.3732 65.2588 39.3317L63.6849 37.4722C63.6284 37.4055 63.6808 37.3037 63.7679 37.3109L67.1964 37.5908C67.2836 37.5979 67.3187 37.7068 67.2521 37.7635L65.3975 39.3431Z" fill="white"/>
<path fill-rule="evenodd" clip-rule="evenodd" d="M64.6201 85.043C65.0408 84.4762 65.3155 83.7794 65.3782 83.0117C65.5493 80.916 64.0757 79.0854 62.0867 78.923C60.0977 78.7606 58.3466 80.3278 58.1755 82.4236C58.1131 83.1872 58.2692 83.9157 58.5889 84.5411L60.2387 92.0727C60.4087 92.8486 61.4803 92.9361 61.7739 92.1981L64.6201 85.043Z" fill="url(#paint4_radial_621:303)"/>
</g>
</g>
<defs>
<radialGradient id="paint0_radial_621:303" cx="0" cy="0" r="1" gradientUnits="userSpaceOnUse" gradientTransform="translate(67.8977 74.4739) rotate(90) scale(19.634 19.3274)">
<stop stop-color="white"/>
<stop offset="0.661458" stop-color="white" stop-opacity="0.15"/>
<stop offset="0.890625" stop-color="white" stop-opacity="0.1"/>
<stop offset="1" stop-color="white" stop-opacity="0"/>
</radialGradient>
<radialGradient id="paint1_radial_621:303" cx="0" cy="0" r="1" gradientUnits="userSpaceOnUse" gradientTransform="translate(68.0875 74.5551) rotate(135.357) scale(19.6303 19.3312)">
<stop stop-color="white"/>
<stop offset="0.604167" stop-color="white" stop-opacity="0.15"/>
<stop offset="0.770833" stop-color="white" stop-opacity="0.06"/>
<stop offset="0.854167" stop-color="white" stop-opacity="0"/>
</radialGradient>
<radialGradient id="paint2_radial_621:303" cx="0" cy="0" r="1" gradientUnits="userSpaceOnUse" gradientTransform="translate(67.8945 79.8873) rotate(90) scale(29.4405 29.4297)">
<stop stop-color="white"/>
<stop offset="0.113112" stop-color="white"/>
<stop offset="0.3125" stop-color="white" stop-opacity="0.22"/>
<stop offset="0.365534" stop-color="white" stop-opacity="0.12"/>
<stop offset="0.45835" stop-color="white" stop-opacity="0.12"/>
<stop offset="0.493735" stop-color="white" stop-opacity="0.09"/>
<stop offset="0.546575" stop-color="white" stop-opacity="0.07"/>
<stop offset="0.635417" stop-color="white" stop-opacity="0.03"/>
<stop offset="0.817708" stop-color="white" stop-opacity="0"/>
</radialGradient>
<radialGradient id="paint3_angular_621:303" cx="0" cy="0" r="1" gradientUnits="userSpaceOnUse" gradientTransform="translate(48.7829 129.584) rotate(90) scale(66.158 66.1335)">
<stop offset="0.395833" stop-color="#111111" stop-opacity="0"/>
<stop offset="0.598958" stop-color="#639FD7"/>
<stop offset="0.729167" stop-color="#111111" stop-opacity="0"/>
</radialGradient>
<radialGradient id="paint4_radial_621:303" cx="0" cy="0" r="1" gradientUnits="userSpaceOnUse" gradientTransform="translate(61.9659 80.4993) rotate(94.6683) scale(10.4905 5.80455)">
<stop offset="0.34375" stop-color="white"/>
<stop offset="1" stop-color="white" stop-opacity="0"/>
</radialGradient>
</defs>
</svg>
