<svg width="90" height="80" viewBox="0 0 90 80" fill="none" xmlns="http://www.w3.org/2000/svg">
<g clip-path="url(#clip0_902_15134)">
<mask id="mask0_902_15134" style="mask-type:alpha" maskUnits="userSpaceOnUse" x="0" y="0" width="90" height="80">
<path d="M19.88 4.87265C21.3489 2.31905 24.0686 0.743051 27.0146 0.738351L62.8609 0.681651C65.8069 0.676951 68.5316 2.24435 70.0086 4.79325L87.981 35.8088C89.458 38.3577 89.463 41.5011 87.994 44.0547L70.12 75.1268C68.651 77.6804 65.9313 79.2568 62.9853 79.2608L27.139 79.3178C24.193 79.3228 21.4683 77.7551 19.9913 75.2061L2.01897 44.1908C0.541974 41.6418 0.536976 38.4985 2.00598 35.9449L19.88 4.87265Z" fill="black"/>
</mask>
<g mask="url(#mask0_902_15134)">
<path d="M124.255 -24.2324H-34.3506V104.136H124.255V-24.2324Z" fill="black"/>
<path d="M40.8758 -5.78197C43.4272 -7.25497 46.5705 -7.25497 49.1218 -5.78197L82.5853 13.5381C85.137 15.0111 86.708 17.7334 86.708 20.6793V59.3196C86.708 62.2656 85.137 64.9879 82.5853 66.4608L49.1218 85.7807C46.5705 87.2537 43.4272 87.2537 40.8758 85.7807L7.41237 66.4609C4.86107 64.9879 3.28937 62.2656 3.28937 59.3196V20.6793C3.28937 17.7334 4.86107 15.0111 7.41237 13.5381L40.8758 -5.78197Z" fill="black"/>
<mask id="mask1_902_15134" style="mask-type:alpha" maskUnits="userSpaceOnUse" x="3" y="-7" width="84" height="94">
<path d="M40.8758 -5.78197C43.4272 -7.25497 46.5705 -7.25497 49.1218 -5.78197L82.5853 13.5381C85.137 15.0111 86.708 17.7334 86.708 20.6793V59.3196C86.708 62.2656 85.137 64.9879 82.5853 66.4608L49.1218 85.7807C46.5705 87.2537 43.4272 87.2537 40.8758 85.7807L7.41237 66.4609C4.86107 64.9879 3.28937 62.2656 3.28937 59.3196V20.6793C3.28937 17.7334 4.86107 15.0111 7.41237 13.5381L40.8758 -5.78197Z" fill="black"/>
</mask>
<g mask="url(#mask1_902_15134)">
<path fill-rule="evenodd" clip-rule="evenodd" d="M50.995 51.9605L51.0026 51.9801L50.996 51.9567L51.0061 51.9188L50.9943 51.9505L45.602 32.8398L43.7855 33.4487L50.9927 51.9547L50.958 52.0486L31.5766 51.0295L31.5684 52.9459L50.9408 52.0949L50.9303 52.1231L50.8778 52.1107L50.9285 52.128L50.9101 52.1778L46.2678 54.1594L50.0796 52.2161L31.5798 59.4991L32.3664 61.2465L33.0921 60.8765L33.489 61.6953L50.5645 52.37L50.7806 52.5273L44.0966 70.5672L45.9229 71.1459L50.8348 52.5667L51.195 52.8289L53.7757 72.1079L54.5902 71.9815L51.2153 52.8436L51.324 52.9228L59.4245 70.0896L61.1155 69.189L51.5029 53.053L66.6027 64.0423L67.6538 62.4401L51.379 52.8449L51.1467 52.455L51.1396 52.4144L51.1445 52.4513L51.0444 52.2833L51.0842 52.1811L69.6942 58.5308L70.2245 56.6893L51.1017 52.1637L51.2998 52.0791L51.43 52.0734L51.326 52.068L69.3498 44.3743L68.5139 42.65L51.2739 52.0652L51.171 52.0598L63.0879 36.4044L62.4219 35.9186L51.1617 52.0593L51.1322 52.0578L58.2275 33.8392L56.411 33.2303L51.0991 52.056L50.9715 52.0493L50.995 51.9605ZM51.0104 52.3706L51.0344 52.309L51.1615 52.5784L51.1816 52.7286L50.8445 52.5298L50.9489 52.135L50.9529 52.1364L51.0302 52.3002L51.0104 52.3706ZM51.0551 52.2121L51.038 52.2726L50.9579 52.138L51.0656 52.1748L51.0642 52.1797L51.0551 52.2121ZM51.143 52.086L51.0936 52.1569L51.1208 52.087L51.143 52.086ZM51.0708 52.1564L51.09 52.0884L50.9597 52.0941L50.9511 52.1267L50.9521 52.1283L51.0708 52.1564ZM50.2398 51.183L38.3738 35.2533L38.7059 35.011L50.2398 51.183ZM50.9085 52.1821L50.5691 52.3675L50.7913 52.4984L50.9085 52.1821ZM51.2439 52.0816L51.096 52.1623L51.0934 52.1617L51.1513 52.0857L51.2439 52.0816ZM51.1965 52.7373L51.2519 52.77L51.1726 52.6019L51.1965 52.7373ZM42.0794 72.4948L49.9204 54.2428L42.4587 72.6532L42.0794 72.4948ZM32.1644 43.9305L50.45 51.7359L33.0002 42.2061L32.1644 43.9305Z" fill="url(#paint0_radial_902_15134)"/>
<path fill-rule="evenodd" clip-rule="evenodd" d="M51.5251 52.2649L51.517 52.2832L51.5284 52.2631L51.5627 52.2434L51.5316 52.2574L61.3383 34.9914L59.6291 34.1261L51.5277 52.2592L51.4367 52.3003L38.5445 37.7862L37.1755 39.1267L51.3918 52.3206L51.3819 52.325L51.3821 52.3243L51.3819 52.3251L51.3641 52.3331L51.3356 52.2861L51.3593 52.3352L51.3126 52.3564L32.9406 44.8339L32.3012 46.6404L51.3086 52.3581L33.4426 60.4263L34.3141 62.1329L51.3687 52.3546L51.37 52.3574L51.3081 52.5268L51.243 52.5627L51.3047 52.536L51.2023 52.8159L39.1458 68.3984L39.8079 68.8894L51.1934 52.8403L44.5505 71.0014L46.3792 71.5724L51.2796 52.7188L51.303 52.6858L51.2807 52.7146L51.3299 52.5251L51.4302 52.4819L59.9881 70.1918L61.6707 69.2756L51.4552 52.4828L51.6546 52.5644L51.75 52.653L51.6809 52.5752L69.8162 60.0008L70.4556 58.1942L51.6462 52.5361L51.5778 52.4591L71.0858 49.9439L70.9635 49.1285L51.5715 52.4521L51.5515 52.4295L69.496 44.681L68.6529 42.9602L51.5295 52.4047L51.4458 52.3104L51.5251 52.2649ZM51.4216 52.4642L51.3331 52.513L51.3723 52.3621L51.4216 52.4642ZM51.5394 52.4576L51.4516 52.4726L51.5226 52.4419L51.5394 52.4576ZM51.4383 52.455L51.5 52.4209L51.4057 52.3334L51.3752 52.3509V52.3512L51.4383 52.455ZM54.5427 31.541L51.5475 51.1798L54.9483 31.6072L54.5427 31.541ZM51.4521 52.4777L51.6134 52.5262L51.5456 52.4632L51.4508 52.4755L51.4521 52.4777ZM49.1466 53.1021L30.6541 60.3432L30.8078 60.7245L49.1466 53.1021ZM51.3021 51.7189L44.0079 33.2178L45.8218 32.6014L51.3021 51.7189Z" fill="url(#paint1_radial_902_15134)"/>
<path d="M50.8945 87.3263C67.148 87.3263 80.3241 74.1453 80.3241 57.8858C80.3241 41.6263 67.148 28.4453 50.8945 28.4453C34.641 28.4453 21.4649 41.6263 21.4649 57.8858C21.4649 74.1453 34.641 87.3263 50.8945 87.3263Z" fill="url(#paint2_radial_902_15134)"/>
<path d="M97.917 107.582C97.917 144.12 68.3084 173.74 31.7839 173.74C-4.74061 173.74 -34.3496 144.12 -34.3496 107.582C-34.3496 71.0437 -4.74061 41.4238 31.7839 41.4238C68.3084 41.4238 97.917 71.0437 97.917 107.582ZM-33.043 107.582C-33.043 143.398 -4.01901 172.433 31.7839 172.433C67.5867 172.433 96.611 143.398 96.611 107.582C96.611 71.7656 67.5867 42.7309 31.7839 42.7309C-4.01901 42.7309 -33.043 71.7656 -33.043 107.582Z" fill="url(#paint3_radial_902_15134)"/>
<path d="M31.3065 173.74C67.5684 173.74 96.9645 144.333 96.9645 108.057C96.9645 71.782 67.5684 42.375 31.3065 42.375C-4.95542 42.375 -34.3515 71.782 -34.3515 108.057C-34.3515 144.333 -4.95542 173.74 31.3065 173.74Z" fill="black"/>
<path d="M45.6167 50.4316L47.6252 55.4612L42.8189 55.0687L45.6167 50.4316Z" fill="#262626"/>
<path d="M50.8409 8.89554L47.2168 8.59961L46.6615 15.4005L50.2855 15.6964L50.8409 8.89554Z" fill="white"/>
<path d="M48.7865 6.08304C49.0104 5.74084 49.5245 5.78284 49.6898 6.15684L50.7882 8.64084C50.9463 8.99854 50.6643 9.39524 50.2745 9.36344L47.6894 9.15234C47.2996 9.12054 47.0857 8.68334 47.2998 8.35594L48.7865 6.08304Z" fill="white"/>
<path d="M50.1288 15.7511L46.791 15.4785L46.1459 23.3787L49.4837 23.6513L50.1288 15.7511Z" fill="white"/>
<path d="M49.0917 28.4386L45.7539 28.166L43.6882 53.4633L47.026 53.7359L49.0917 28.4386Z" fill="white"/>
<path d="M48.3955 17.3411C48.3541 17.3763 48.2919 17.3713 48.2568 17.3298L46.683 15.4703C46.6265 15.4035 46.6788 15.3018 46.766 15.3089L50.1944 15.5888C50.2816 15.596 50.3167 15.7049 50.2501 15.7616L48.3955 17.3411Z" fill="white"/>
<path fill-rule="evenodd" clip-rule="evenodd" d="M47.6253 63.0329C48.0431 62.4673 48.3157 61.7731 48.3782 61.0086C48.5493 58.9128 47.0757 57.0822 45.0867 56.9198C43.0977 56.7574 41.3466 58.3247 41.1755 60.4204C41.1129 61.1875 41.2705 61.919 41.5932 62.5462L43.2412 70.0695C43.4111 70.8454 44.4827 70.9329 44.7763 70.1949L47.6253 63.0329Z" fill="url(#paint4_radial_902_15134)"/>
</g>
<g filter="url(#filter0_i_902_15134)">
<path d="M27.0154 1.22077L62.8617 1.16407C65.6354 1.15967 68.2007 2.63537 69.5914 5.03527L87.564 36.0507C88.954 38.4507 88.959 41.4102 87.576 43.8145L69.702 74.8866C68.3189 77.2909 65.7583 78.7751 62.9845 78.7791L27.1382 78.8361C24.3645 78.8401 21.7992 77.3646 20.4085 74.9647L2.43617 43.9492C1.04557 41.5493 1.04087 38.5898 2.42397 36.1855L20.298 5.11327C21.681 2.70897 24.2417 1.22517 27.0154 1.22077Z" stroke="white" stroke-width="0.964444"/>
</g>
</g>
</g>
<defs>
<filter id="filter0_i_902_15134" x="0.907715" y="0.681641" width="88.1844" height="78.6367" filterUnits="userSpaceOnUse" color-interpolation-filters="sRGB">
<feFlood flood-opacity="0" result="BackgroundImageFix"/>
<feBlend mode="normal" in="SourceGraphic" in2="BackgroundImageFix" result="shape"/>
<feColorMatrix in="SourceAlpha" type="matrix" values="0 0 0 0 0 0 0 0 0 0 0 0 0 0 0 0 0 0 127 0" result="hardAlpha"/>
<feOffset/>
<feGaussianBlur stdDeviation="3.44444"/>
<feComposite in2="hardAlpha" operator="arithmetic" k2="-1" k3="1"/>
<feColorMatrix type="matrix" values="0 0 0 0 1 0 0 0 0 1 0 0 0 0 1 0 0 0 0.52 0"/>
<feBlend mode="normal" in2="shape" result="effect1_innerShadow_902_15134"/>
</filter>
<radialGradient id="paint0_radial_902_15134" cx="0" cy="0" r="1" gradientUnits="userSpaceOnUse" gradientTransform="translate(50.8964 52.4741) rotate(90) scale(19.6342 19.3281)">
<stop stop-color="white"/>
<stop offset="0.661458" stop-color="white" stop-opacity="0.15"/>
<stop offset="0.890625" stop-color="white" stop-opacity="0.1"/>
<stop offset="1" stop-color="white" stop-opacity="0"/>
</radialGradient>
<radialGradient id="paint1_radial_902_15134" cx="0" cy="0" r="1" gradientUnits="userSpaceOnUse" gradientTransform="translate(51.0906 52.5543) rotate(135.357) scale(19.6305 19.3317)">
<stop stop-color="white"/>
<stop offset="0.604167" stop-color="white" stop-opacity="0.15"/>
<stop offset="0.770833" stop-color="white" stop-opacity="0.06"/>
<stop offset="0.854167" stop-color="white" stop-opacity="0"/>
</radialGradient>
<radialGradient id="paint2_radial_902_15134" cx="0" cy="0" r="1" gradientUnits="userSpaceOnUse" gradientTransform="translate(50.8945 57.8858) rotate(90) scale(29.4405 29.4296)">
<stop stop-color="white"/>
<stop offset="0.113112" stop-color="white"/>
<stop offset="0.3125" stop-color="white" stop-opacity="0.22"/>
<stop offset="0.365534" stop-color="white" stop-opacity="0.12"/>
<stop offset="0.45835" stop-color="white" stop-opacity="0.12"/>
<stop offset="0.493735" stop-color="white" stop-opacity="0.09"/>
<stop offset="0.546575" stop-color="white" stop-opacity="0.07"/>
<stop offset="0.635417" stop-color="white" stop-opacity="0.03"/>
<stop offset="0.817708" stop-color="white" stop-opacity="0"/>
</radialGradient>
<radialGradient id="paint3_radial_902_15134" cx="0" cy="0" r="1" gradientUnits="userSpaceOnUse" gradientTransform="translate(31.7839 107.582) rotate(90) scale(66.158 66.1335)">
<stop offset="0.395833" stop-color="#111111" stop-opacity="0"/>
<stop offset="0.598958" stop-color="#639FD7"/>
<stop offset="0.729167" stop-color="#111111" stop-opacity="0"/>
</radialGradient>
<radialGradient id="paint4_radial_902_15134" cx="0" cy="0" r="1" gradientUnits="userSpaceOnUse" gradientTransform="translate(44.9659 58.4961) rotate(94.6683) scale(10.4903 5.80454)">
<stop offset="0.34375" stop-color="white"/>
<stop offset="1" stop-color="white" stop-opacity="0"/>
</radialGradient>
<clipPath id="clip0_902_15134">
<rect width="88.1845" height="78.6362" fill="white" transform="translate(0.907715 0.681641)"/>
</clipPath>
</defs>
</svg>
