<svg width="56" height="57" viewBox="0 0 56 57" fill="none" xmlns="http://www.w3.org/2000/svg">
<circle cx="27.6667" cy="29.3034" r="27.6667" fill="url(#paint0_linear_565:102)"/>
<path d="M10.2389 12.1134C9.67059 11.8358 13.2862 9.30245 15.2186 7.44976C17.1434 5.61243 17.385 4.4558 18.0977 3.81466C18.8104 3.17353 20.0018 3.03255 21.1877 3.13626C22.3737 3.23997 23.5617 3.57301 24.7765 4.31864C25.9989 5.0489 27.2326 6.18426 28.4748 8.23694C29.7016 10.2821 30.9523 13.2521 29.8441 14.1186C28.7359 14.9851 25.2843 13.7556 23.3151 12.4512C21.3384 11.1622 20.852 9.82115 18.225 10.136C15.5901 10.4279 10.8226 12.3986 10.2389 12.1134Z" fill="#BCBCBC"/>
<path d="M25.9718 42.7472C25.1518 45.0256 24.9813 46.3214 24.572 48.1665C24.1745 49.9993 23.5624 52.3808 21.8862 53.7772C20.2223 55.1852 17.5067 55.6198 16.2752 54.2408C15.032 52.8742 15.2611 49.7065 13.7458 47.1888C12.2428 44.6827 8.97127 42.8273 8.44525 40.7537C7.8951 38.6808 10.0905 36.3897 12.6032 34.2349C15.1159 32.0802 17.9943 30.0605 20.8897 30.0314C23.8091 30.0016 26.7704 31.986 27.5159 34.5967C28.2614 37.2075 26.8043 40.4804 25.9718 42.7472Z" fill="#C0C0C0"/>
<path d="M43.7028 10.1613C44.0754 9.87274 44.6263 10.3128 44.861 10.8355C45.0976 11.3616 45.0147 11.9723 44.7047 12.327C44.396 12.6764 43.8582 12.7665 43.6146 13.1488C43.3711 13.5312 43.4217 14.2058 43.1147 14.6401C42.8076 15.0744 42.1374 15.2671 41.4681 15.1247C40.8001 14.977 40.1309 14.4909 40.2274 13.9624C40.3185 13.4326 41.1785 12.8584 41.7569 12.6036C42.3386 12.3469 42.6387 12.4096 42.8853 11.935C43.1352 11.4584 43.3302 10.4498 43.7028 10.1613Z" fill="#949494"/>
<path d="M46.9142 32.1107C48.1966 31.8479 49.679 32.5948 50.0154 33.8178C50.36 35.0324 49.5586 36.7233 49.2524 37.7498C48.9464 38.7929 49.144 39.1797 49.4368 40.279C49.7296 41.3783 50.1426 43.1978 49.6551 43.8206C49.1594 44.4518 47.7635 43.9027 47.1246 42.9588C46.4858 42.0149 46.6122 40.6677 45.0195 39.7817C43.435 38.8871 40.1395 38.4453 39.6039 37.7155C39.0765 36.9773 41.3006 35.9429 42.9498 34.7938C44.5906 33.6366 45.6484 32.3731 46.9142 32.1107Z" fill="#959595"/>
<path d="M16.5935 23.5181C16.4299 24.1728 14.5162 23.4488 13.7293 22.4353C12.9361 21.4218 13.2698 20.1125 14.2203 20.4776C15.1772 20.8364 16.7572 22.8634 16.5935 23.5181Z" fill="#B4B4B4"/>
<defs>
<linearGradient id="paint0_linear_565:102" x1="-1.08317e-07" y1="29.2719" x2="55.3333" y2="29.2719" gradientUnits="userSpaceOnUse">
<stop stop-color="#D7D7D7"/>
<stop offset="1" stop-color="#777777"/>
</linearGradient>
</defs>
</svg>
