<svg width="687" height="765" viewBox="0 0 687 765" fill="none" xmlns="http://www.w3.org/2000/svg">
<path d="M377.622 3.01566C379.984 8.31344 387.069 30.7271 389.593 41.1597C393.991 59.4982 397.004 79.9558 397.004 92.1814C397.004 96.7457 397.574 100.332 398.796 104.163L400.669 109.623L400.424 78.5702C400.099 48.4136 400.913 25.1848 402.867 9.53601C403.356 5.46079 404.007 2.03761 404.333 2.03761C404.659 2.03761 405.881 7.74292 407.102 14.6708C413.78 53.3854 415.001 90.1438 410.36 117.611L409.138 125.109L411.825 129.836L414.513 134.482L415.164 126.332C419.48 70.4198 421.435 53.3039 425.914 30.9717C428.438 18.3385 432.185 4.89026 433.488 3.50469C434.709 2.28212 432.836 52.5703 430.719 79.4668C428.52 107.667 425.1 130.651 421.353 141.655L419.725 146.382L422.412 150.783C423.878 153.228 425.262 155.266 425.507 155.266C425.751 155.266 427.706 147.278 429.904 137.498C440.98 87.6987 457.756 26.3259 462.235 19.1535C463.131 17.768 462.723 25.5924 460.85 45.2349C456.86 88.0247 447.495 133.178 436.989 160.482L434.628 166.676L437.315 176.212C438.781 181.51 440.165 185.259 440.41 184.607C440.654 183.955 442.934 175.886 445.459 166.676C454.905 132.526 470.134 89.8178 481.291 66.0185C485.851 56.3195 494.809 40.1001 495.298 40.6707C495.705 40.9967 488.864 71.2348 484.06 90.4698C472.659 136.031 459.873 173.604 450.101 190.068L447.576 194.306L449.775 202.946C450.996 207.673 452.137 211.504 452.381 211.504C452.625 211.504 454.743 205.717 457.023 198.626C474.776 144.018 492.936 96.2567 505.722 70.0938C511.911 57.6236 517.693 47.8431 518.182 49.2286C518.507 50.2067 512.888 74.5765 508.084 93.3225C495.461 141.981 481.209 183.466 466.714 213.378L460.85 225.523L464.271 233.755C466.225 238.482 467.935 241.579 468.18 240.845C468.424 240.193 469.727 235.548 471.111 230.657C475.346 216.068 488.539 174.093 494.565 156.081C505.396 124.131 514.517 100.821 522.416 85.0906C527.058 75.7991 533.573 65.2035 532.677 68.4637C532.433 69.3602 531.293 74.332 530.153 79.4668C526.325 96.1752 516.797 133.993 510.608 156.488C498.393 201.071 488.702 229.679 480.395 245.817L476.73 252.827L477.708 260.732C478.278 265.052 478.929 268.312 479.255 267.986C479.581 267.66 481.047 263.667 482.512 259.184C487.073 245.165 501.08 207.021 508.572 188.275C519.159 161.786 525.022 148.419 533.085 132.119C540.007 118.181 550.512 100.821 551.408 101.717C551.978 102.288 546.277 123.805 539.437 147.115C521.439 208.407 504.337 252.664 489.516 276.137L484.956 283.309L488.783 290.808L492.529 298.306L494.158 293.008C495.054 290.074 500.266 274.099 505.803 257.554C529.339 186.4 549.291 139.943 562.972 124.294C564.356 122.746 565.496 121.849 565.578 122.338C565.578 123.479 555.235 161.705 549.616 180.94C532.189 240.764 517.775 282.25 507.269 302.789L502.953 311.347L506.373 319.742L509.794 328.218L512.074 320.638C513.296 316.4 519.24 297.898 525.348 279.56C541.717 229.761 554.177 197.567 566.555 172.952C572.419 161.297 581.214 147.197 581.702 148.664C582.028 149.642 570.871 191.535 563.135 218.106C553.281 251.849 545.707 275.403 535.446 304.011C533.003 310.858 526 328.137 522.905 334.82L520.055 341.177L522.986 349.491C524.615 354.055 526.163 358.13 526.488 358.456C526.814 358.864 527.303 358.13 527.628 356.826C528.687 352.343 539.762 318.356 546.196 299.936C568.835 234.896 588.543 190.231 602.143 173.115C603.935 170.833 605.482 169.203 605.482 169.529C605.482 170.426 594.081 210.363 588.706 228.62C568.021 297.735 549.209 348.92 538.622 364.569L536.016 368.4L538.704 376.143C540.17 380.381 541.88 384.945 542.45 386.249L543.427 388.613L543.997 385.842C545.3 379.973 564.031 324.387 570.708 306.701C593.755 245.736 612.404 211.259 629.343 198.219C633.903 194.714 635.125 194.469 633.985 196.996C633.578 198.056 628.203 212.4 622.095 229.027C594.732 303.359 570.464 364.488 557.76 390.895L552.385 401.98L557.027 411.271L561.669 420.481L567.207 404.669C593.022 330.174 623.398 269.779 652.471 235.059C658.497 227.805 673.889 212.808 674.54 213.46C674.703 213.704 666.804 229.761 656.95 249.159C614.603 332.538 580.644 404.588 572.744 427.735L570.138 435.396L573.722 444.199L577.386 453.001L579.096 449.008C608.414 382.419 637.731 326.262 661.51 291.378C668.351 281.272 681.869 263.911 685.208 260.895L686.919 259.347V276.463L683.01 283.717C680.811 287.71 672.83 302.3 665.338 316.237C638.464 365.792 605.645 424.638 592.289 446.888C585.856 457.566 585.774 457.892 586.263 461.885C586.589 464.086 587.566 467.754 588.38 469.954C590.09 474.192 593.918 480.468 594.814 480.468C595.139 480.468 597.501 474.844 600.107 468.08C626.574 398.882 659.312 331.315 681.462 300.181L686.511 293.09L686.756 309.065L686.919 325.121L655.24 388.694C637.731 423.741 618.837 461.396 613.218 472.399L602.957 492.368L606.866 499.051L610.857 505.653L620.222 486.011C639.115 446.073 667.129 394.4 683.824 368.481L686.919 363.673V394.074L665.501 433.44C641.07 478.105 630.32 498.236 624.131 510.788L619.815 519.509L621.199 523.91C622.502 527.985 628.04 537.521 629.099 537.521C629.343 537.521 631.46 533.039 633.903 527.496C644.49 503.371 662.243 470.851 678.286 446.318L686.511 433.603L686.756 452.268L686.919 470.851L668.351 498.725C658.09 513.967 646.933 531.245 643.431 537.114C637.405 547.302 637.161 547.872 637.568 551.622C638.057 556.023 640.825 562.543 644.001 566.781L646.119 569.553L649.621 561.891C658.09 543.145 673.074 514.293 683.172 497.177L686.511 491.471L686.756 506.713L686.919 521.872L679.752 533.202C667.374 552.355 654.262 576.643 654.425 580.067C654.425 580.637 656.787 585.69 659.556 591.314C664.442 600.85 664.849 601.339 665.664 599.465C666.152 598.324 668.677 592.129 671.364 585.609C673.97 579.089 678.531 568.656 681.381 562.38L686.511 550.97L686.756 563.766L687 576.562L681.707 587.402C678.775 593.352 675.599 600.932 674.622 604.273L672.83 610.305L677.228 619.107C679.589 623.997 681.788 627.665 682.114 627.339C682.44 627.013 683.498 624.405 684.557 621.471L686.511 616.173L686.756 645.922C686.837 662.305 686.756 676.079 686.593 676.649C686.349 677.22 684.883 677.872 683.254 678.198C681.218 678.524 680.322 679.176 680.078 680.48C679.834 681.377 678.938 685.615 678.042 689.853C677.065 694.091 676.413 697.596 676.576 697.759C676.658 697.922 678.205 697.677 679.996 697.27C681.788 696.862 684.068 696.455 685.046 696.455H686.919V723.107C686.837 744.95 686.593 751.226 685.453 757.176L684.068 764.511L674.54 764.756L665.012 765L669.165 754.975C671.446 749.433 676.006 738.756 679.264 731.176C682.602 723.596 685.127 717.238 685.046 717.075C684.883 716.994 681.462 717.809 677.472 718.95L670.061 721.069L667.455 729.709C665.989 734.517 662.976 744.379 660.696 751.633L656.543 764.919H635.695L638.219 758.969C639.604 755.79 643.268 747.395 646.363 740.467C649.458 733.539 652.227 727.345 652.471 726.693C652.878 725.878 652.471 725.796 651.005 726.204C649.946 726.611 643.024 728.405 635.776 730.361C628.447 732.235 622.339 733.947 622.258 734.11C622.095 734.273 620.222 741.201 618.023 749.596L614.033 764.919H603.69C595.465 764.919 593.266 764.674 593.266 763.777C593.266 763.207 594.732 757.746 596.524 751.633C598.315 745.602 599.781 740.223 599.781 739.815C599.781 739.082 591.963 740.549 591.23 741.445C591.149 741.608 589.52 746.825 587.81 753.1L584.553 764.511L572.256 764.756L559.877 765L560.447 762.31C560.692 760.843 561.587 756.85 562.402 753.508C563.135 750.166 563.705 747.314 563.542 747.151C563.379 746.988 560.366 747.314 556.701 747.884L550.105 748.862L549.372 751.796C548.883 753.426 548.15 757.013 547.58 759.865L546.603 764.919H536.098C526.488 764.919 525.592 764.837 526 763.451C526.163 762.718 526.57 759.621 526.895 756.524L527.465 751.063H524.208C520.625 751.063 520.788 750.737 518.752 761.821L518.182 764.919H498.555L499.044 751.226C499.288 743.727 500.103 732.643 500.836 726.611C502.22 715.201 505.803 691.402 506.618 688.875C507.025 687.652 506.699 687.489 504.745 687.897C503.523 688.223 501.65 688.549 500.673 688.793C499.207 689.038 498.8 690.016 498.067 694.58C497.578 697.677 495.868 708.191 494.321 718.053C492.773 727.916 490.33 742.505 488.865 750.492L486.34 764.919H468.831L468.424 762.555C467.202 756.605 466.958 740.712 467.772 729.464C468.668 718.706 469.32 712.43 471.6 695.803C472.089 691.891 472.007 691.565 470.378 691.565C469.32 691.565 468.587 692.217 468.261 693.358C468.017 694.417 464.759 710.229 461.013 728.649L454.172 762.066L455.964 763.451C457.593 764.837 456.453 764.919 432.429 764.837L407.183 764.756L413.291 762.718C416.63 761.577 422.086 759.865 425.425 758.887L431.452 757.013L423.552 752.693C415.897 748.618 415.327 748.455 410.93 748.862C405.799 749.433 386.987 754.649 367.85 760.843L355.39 764.919H328.027C312.961 764.919 300.827 764.755 300.99 764.511C301.56 764.022 325.502 756.605 337.555 753.182C350.748 749.514 374.365 743.646 387.232 740.875C392.851 739.652 398.063 738.43 398.877 738.104C400.098 737.696 398.714 736.392 392.118 731.991L383.811 726.448L375.667 729.383C357.181 736.066 320.942 746.336 262.552 761.577L249.848 764.919L222.241 764.837L194.634 764.756L199.927 762.31C230.059 748.129 283.4 733.132 351.644 719.521L371.107 715.608L361.742 711.044L352.377 706.398L347.653 708.762C333.728 715.608 300.257 724.655 254.897 733.947C221.508 740.793 150.821 753.1 148.052 752.53C146.26 752.204 157.173 746.091 166.945 742.016C197.077 729.383 249.603 715.364 323.304 700.204L344.477 695.884L335.601 691.728L326.805 687.489L315.16 691.157C285.273 700.449 229 712.104 170.203 721.232C141.618 725.715 128.833 727.508 128.507 727.1C128.344 726.937 129.81 725.878 131.765 724.737C146.097 716.342 182.825 704.361 225.172 694.417C247.242 689.201 248.626 688.875 283.644 681.866L314.834 675.59L306.935 671.351L299.036 667.032L292.032 669.884C277.699 675.59 250.092 682.518 210.921 690.261C179.487 696.373 110.917 707.865 105.379 707.865C103.669 707.865 103.75 707.621 106.356 705.746C110.102 702.894 122.074 697.188 131.52 693.765C159.127 683.577 201.637 672.656 258.48 661.082L287.309 655.214L280.224 650.649L273.139 646.167L268.904 648.367C248.952 659.044 201.149 672.167 144.55 682.599C123.784 686.348 84.9385 692.543 84.5313 692.054C83.9612 691.483 100.004 683.659 108.474 680.235C134.778 669.721 182.988 656.029 235.759 643.966C246.753 641.439 256.607 639.157 257.747 638.913C259.294 638.505 258.073 637.935 252.209 636.386L244.554 634.43L235.189 637.772C208.967 646.982 155.707 656.762 83.0655 665.809C56.68 669.069 54.1554 669.314 54.1554 668.906C54.1554 668.743 57.25 667.195 61.159 665.402C83.0654 655.051 133.882 642.499 208.804 628.806L234.456 624.16L227.534 620.411C223.788 618.374 220.123 616.418 219.391 616.173C218.658 615.929 213.527 617.314 207.989 619.27C177.043 630.518 130.299 640.95 79.4008 647.96C61.2404 650.405 36.8094 653.176 36.3208 652.769C35.6693 652.116 51.6309 645.107 61.0775 641.847C88.1145 632.555 141.781 619.026 195.611 607.941C201.556 606.719 206.279 605.577 206.116 605.414C205.953 605.251 202.126 603.703 197.647 601.991L189.422 598.894L186.001 600.443C172.402 606.556 144.306 613.483 111.568 618.944C85.8343 623.264 36.0765 629.377 32.4933 628.643C30.3759 628.236 46.256 621.797 62.3805 616.499C87.463 608.267 127.041 599.22 165.317 592.863C173.786 591.477 180.871 590.255 181.034 590.173C181.115 590.01 177.206 588.38 172.402 586.505L163.525 583.001L154.241 585.12C119.793 592.781 82.8211 595.96 38.7639 595.145C16.1245 594.656 12.4598 594.411 13.5185 593.433C14.17 592.7 46.4189 586.505 59.856 584.468C76.0619 581.941 111.487 577.377 132.742 575.095C141.211 574.117 149.436 573.139 150.902 572.894L153.671 572.487L149.355 569.227C146.993 567.515 144.713 566.048 144.224 566.048C143.736 566.048 140.397 566.618 136.814 567.352C126.471 569.39 83.5541 569.797 56.1913 568.167C32.9819 566.7 8.71375 564.744 3.25749 563.847L2.18132e-05 563.277L4.47904 562.217C24.9197 557.408 73.7817 555.941 120.526 558.712C127.204 559.12 132.823 559.283 132.986 559.201C133.068 559.038 131.357 557.571 129.159 555.86L125.005 552.926L108.148 553.007C86.6487 553.089 71.0128 551.377 47.6405 546.405C30.3759 542.738 4.96766 535.647 3.25749 534.017C1.9545 532.794 35.2621 533.935 54.5626 535.81C63.9278 536.706 78.8307 538.418 87.5445 539.559C96.2582 540.7 104.89 541.841 106.682 542.086L109.94 542.493L105.542 540.374C103.017 539.233 97.0725 537.684 91.2905 536.706C66.7781 532.55 38.5196 523.258 15.473 511.684C3.90898 505.979 3.42036 505.409 10.5868 506.142C22.8837 507.365 52.6081 514.211 80.2966 522.28L89.6618 524.97L78.7493 511.929C68.0811 499.133 54.3183 481.283 43.2429 465.96C37.1351 457.403 37.298 457.239 46.8261 462.211C54.8884 466.449 62.5434 472.562 73.2931 483.321C85.0199 495.139 93.3265 504.92 106.926 523.014L117.106 536.625L121.992 538.336C124.761 539.233 127.204 539.966 127.53 539.966C127.856 539.966 125.168 536.054 121.585 531.245C113.034 519.753 96.8283 495.221 88.3588 480.876C82.0068 470.199 70.5242 448.926 68.1625 443.384L67.1039 440.939L69.6284 443.384C73.7817 447.296 88.196 464.33 96.0139 474.681C110.51 493.672 128.1 521.628 138.28 542.004C141.944 549.502 143.329 551.459 146.505 553.659C150.495 556.512 150.984 556.512 149.111 553.578C144.876 547.139 128.914 509.973 121.259 488.945C114.256 469.628 103.017 431.321 103.995 430.262C104.483 429.854 114.174 442.976 118.653 449.986C136.814 478.349 153.02 519.101 164.095 564.092C164.828 567.27 165.072 567.433 171.017 569.553C174.356 570.694 177.125 571.509 177.125 571.264C177.125 571.02 175.659 567.515 173.949 563.358C154.323 517.227 142.188 474.844 137.628 436.863C137.221 433.766 137.302 433.685 138.524 435.233C140.804 438.249 154.241 466.123 158.394 476.801C170.203 506.631 180.057 541.271 185.187 570.775C186.001 575.828 186.897 580.148 186.979 580.23C187.874 580.963 194.471 583.164 194.797 582.919C194.959 582.675 193.982 578.192 192.679 572.894C189.422 559.935 186.409 543.39 184.291 526.518C182.663 514.211 182.5 508.75 182.5 478.431C182.5 458.788 182.907 442.08 183.314 439.309L184.21 434.418L186.816 439.798C194.552 455.935 203.022 512.581 207.338 577.703L208.397 593.026L213.69 596.204C216.622 597.998 219.065 599.302 219.228 599.139C219.309 599.057 219.065 597.672 218.658 596.123C216.947 590.336 214.667 575.747 213.446 562.788C211.084 538.581 210.432 523.014 210.107 482.506L209.7 442.569L213.038 452.349C221.589 478.023 228.919 530.267 232.583 591.966L233.56 608.512L239.587 612.098C242.844 614.135 245.532 615.439 245.532 615.113C245.532 614.787 244.799 612.261 243.903 609.49C237.469 588.788 233.398 543.553 234.538 503.697C235.026 486.255 237.062 452.838 237.632 452.186C238.121 451.779 242.844 468.161 244.636 476.393C251.395 507.365 257.177 558.957 260.027 613.646L260.597 625.057L267.52 628.073C271.347 629.784 274.686 631.17 274.93 631.17C275.175 631.251 274.36 626.932 273.139 621.634C263.529 582.593 263.692 525.703 273.383 469.221C274.36 463.76 275.337 459.277 275.745 459.277C276.559 459.277 280.061 470.28 281.69 477.616C287.227 503.534 289.589 550.888 287.96 604.762C287.39 623.101 286.901 638.831 286.82 639.646C286.739 640.624 288.775 642.173 294.149 645.107C298.303 647.308 301.723 649.019 301.723 648.856C301.723 648.693 300.99 643.314 300.176 636.875C297.081 613.891 296.511 604.029 296.43 578.681C296.43 551.948 297.163 541.434 300.583 520.487C303.677 500.926 311.414 472.888 312.554 476.801C314.753 484.299 316.382 513.885 316.382 548.524C316.382 573.139 315.16 630.355 314.264 648.938L313.776 659.696L323.059 666.543C328.108 670.292 332.343 673.308 332.506 673.226C332.587 673.145 331.936 670.373 331.122 667.032C327.538 652.85 326.561 641.521 326.643 610.875C326.643 581.452 327.457 566.944 331.04 533.854C333.32 512.418 336.985 486.907 337.637 487.641C339.347 489.352 342.523 510.869 344.233 531.001C345.699 548.524 345.617 625.954 344.151 654.48C343.5 666.543 343.011 677.546 342.93 678.85C342.849 681.051 343.5 681.621 351.807 686.267C356.693 689.038 360.846 691.32 360.927 691.157C361.09 691.076 360.765 689.771 360.357 688.223C359.869 686.756 358.892 681.051 358.159 675.671C356.937 667.439 356.693 659.941 356.774 627.584C356.774 588.462 357.507 573.057 361.172 531.001C362.068 520.894 362.882 511.358 363.045 509.81C363.208 507.202 363.045 506.957 360.113 506.305C356.286 505.409 356.204 504.105 359.95 504.105C363.371 504.105 364.429 502.474 364.429 497.177C364.429 492.694 365.814 492.938 366.547 497.503C366.791 499.214 367.361 501.089 367.687 501.578C368.094 502.393 373.224 501.822 389.349 499.296C456.208 488.863 502.79 484.951 543.183 486.337C560.447 486.907 574.373 488.863 583.005 491.879C585.693 492.775 587.973 493.509 588.136 493.509C588.217 493.509 586.426 489.597 584.064 484.87L579.829 476.23L575.757 476.719C569.65 477.453 518.915 481.772 490.249 484.054C426.565 489.189 393.339 491.064 368.908 490.982C350.829 490.982 344.966 490.493 347.002 489.189C348.468 488.293 380.717 479.735 398.47 475.578C449.531 463.515 487.399 457.81 522.009 457.076C544.079 456.587 557.108 457.729 567.288 460.907C570.138 461.722 572.581 462.374 572.744 462.211C572.907 462.048 570.546 458.136 567.532 453.653L561.995 445.34L546.522 445.992C522.905 446.97 440.491 446.725 420.213 445.584C399.936 444.443 379.821 442.732 366.058 440.857C355.634 439.553 336.089 435.804 334.379 434.826C332.587 433.848 368.42 429.446 401.076 426.757C470.297 420.889 523.638 422.926 549.128 432.381C551.489 433.277 553.525 434.011 553.688 434.011C554.177 434.011 546.766 416.65 545.87 415.428C545.219 414.694 540.251 414.45 526.163 414.45C475.998 414.45 402.704 410.293 368.012 405.484C356.204 403.854 340.243 400.431 337.799 399.127C335.763 397.904 375.83 394.237 409.789 392.362C433.08 391.139 485.281 391.873 497.985 393.585C513.784 395.704 526.488 398.882 533.329 402.387C535.039 403.284 536.342 403.61 536.179 403.284C536.016 402.876 534.632 399.779 533.085 396.437L530.316 390.243L513.54 388.45C487.399 385.597 433.895 378.832 409.219 375.246C367.442 369.215 344.477 364.814 331.04 360.331L323.304 357.804L335.112 357.56C356.123 357.071 415.979 359.679 444.644 362.287C472.089 364.814 496.275 368.644 511.015 372.801C515.739 374.105 519.648 375.083 519.729 375.002C519.892 374.92 518.182 370.682 516.064 365.71L512.237 356.663L508.979 356.256C507.188 356.011 496.357 355.278 484.956 354.544C415.001 350.061 355.145 341.503 326.968 331.886L319.232 329.278L326.561 328.789C338.207 327.892 381.857 327.974 401.483 328.87C444.237 330.826 475.427 335.227 496.764 342.318C501.243 343.785 504.989 344.926 505.152 344.763C505.315 344.6 494.972 326.506 494.239 325.691C494.076 325.528 483.571 324.55 470.948 323.491C393.828 317.134 336.089 310.043 317.033 304.745C314.427 304.011 312.31 303.115 312.31 302.789C312.31 300.914 338.044 297.246 357.914 296.268C393.176 294.475 432.673 298.958 474.695 309.391C479.988 310.776 484.467 311.754 484.548 311.591C484.793 311.347 479.336 297.083 478.766 296.431C478.685 296.268 471.681 295.616 463.212 294.964C401.564 290.482 350.829 282.902 320.942 273.855C311.251 270.921 299.28 265.786 299.28 264.563C299.28 262.852 352.621 262.2 372.98 263.667C407.754 266.275 436.175 271.573 459.71 279.886C464.841 281.761 469.32 283.228 469.564 283.228C469.89 283.228 469.157 279.886 467.935 275.811L465.655 268.312L447.006 265.134C395.212 256.413 344.884 244.595 316.789 234.57C307.424 231.228 297.651 226.99 297.651 226.256C297.651 225.36 330.063 227.071 351.807 229.109C392.932 232.939 432.673 241.334 453.114 250.3C455.475 251.359 457.593 252.256 457.756 252.256C457.837 252.256 456.697 249.403 455.068 245.899L452.218 239.46L439.107 237.259C384.3 227.886 335.519 215.987 308.564 205.391C299.361 201.805 290.729 197.73 291.299 197.241C291.706 196.833 335.519 202.212 357.181 205.309C394.398 210.689 427.298 217.535 439.432 222.507C442.283 223.648 444.563 224.463 444.726 224.3C444.807 224.219 443.667 221.447 442.201 218.187C440.084 213.786 439.025 212.319 437.804 212.319C436.908 212.319 426.728 210.444 415.164 208.162C342.604 193.899 299.28 181.755 287.146 172.3C285.191 170.752 285.273 170.752 293.254 170.752C309.785 170.752 340.324 174.175 363.208 178.576C383.73 182.488 413.047 190.965 426.565 196.752C428.764 197.73 430.8 198.463 431.126 198.463C431.533 198.463 431.289 196.507 430.556 194.062C429.416 189.824 429.171 189.579 425.832 188.764C418.91 186.971 394.072 178.658 383.16 174.419C359.38 165.128 334.542 153.228 315.974 141.981C304.248 134.89 288.856 124.294 290.322 124.294C295.86 124.294 331.529 135.868 351.807 144.181C365.651 149.887 396.76 165.209 411.255 173.523C417.037 176.783 421.924 179.473 422.005 179.391C422.331 179.147 419.562 167.818 418.992 167.247C418.666 166.921 411.174 163.661 402.379 160.156C357.426 142.062 319.476 119.567 296.511 97.2347L289.1 90.0623L295.615 92.4259C329.737 104.815 376.319 128.369 405.31 148.093C407.916 149.805 410.034 151.109 410.034 150.865C410.034 150.62 409.057 148.745 407.754 146.708C406.043 143.692 403.437 141.492 395.375 136.112C366.139 116.714 336.415 91.2034 314.59 66.7521C304.899 55.8305 303.515 53.8744 307.098 56.1565C331.04 71.5608 362.719 96.0937 385.929 117.366C395.864 126.495 396.434 126.902 395.864 124.213C395.538 122.664 395.049 120.137 394.805 118.426C394.398 115.899 393.095 114.351 385.603 107.586C353.842 79.1407 329.33 47.6801 325.747 30.5641L325.095 27.793L331.936 33.8243C335.682 37.166 349.363 50.3697 362.23 63.2474C379.495 80.5263 385.603 86.0686 385.277 84.4385C385.033 83.2975 383.893 76.7771 382.752 70.0938C377.785 40.1002 375.586 19.235 375.993 7.33539L376.238 0L377.622 3.01566V3.01566ZM574.129 508.995C537.564 511.277 510.445 512.336 477.463 512.825L441.143 513.315L441.55 519.509C441.794 522.932 442.12 525.866 442.283 525.948C442.364 526.111 450.508 525.296 460.28 524.155C493.832 520.161 508.084 519.264 537.889 519.264C567.94 519.264 577.142 519.998 594.732 523.992C599.863 525.133 603.446 525.54 604.26 525.133C606.948 523.584 605.319 517.145 600.596 510.788L598.071 507.202L592.615 507.691C589.602 507.935 581.295 508.587 574.129 508.995ZM368.827 510.788C371.84 529.045 374.202 594.493 374.202 660.267V702.731L380.798 706.969C385.277 709.822 387.232 710.718 386.906 709.74C379.984 691.891 379.739 657.251 386.091 610.06C387.964 596.123 390.815 577.866 391.711 573.709C392.036 572.405 391.629 571.753 390.245 571.346L388.453 570.694L390.245 570.368C391.222 570.205 392.199 569.39 392.443 568.656C392.851 567.352 396.841 545.916 397.248 543.227C397.33 542.412 396.19 541.923 393.339 541.434C386.336 540.455 377.378 538.092 378.029 537.521C378.355 537.195 383.241 536.054 388.86 535.076C394.479 534.098 399.203 533.12 399.366 532.957C399.936 532.468 404.007 512.662 403.6 512.499C403.356 512.418 397.085 511.766 389.675 511.032C382.264 510.299 374.772 509.402 372.98 508.995C371.188 508.669 369.397 508.343 369.071 508.261C368.745 508.261 368.582 509.402 368.827 510.788V510.788ZM405.473 514.863C405.799 516.33 406.206 520.405 406.532 523.829C406.776 527.252 407.265 530.43 407.509 530.919C407.835 531.409 412.884 530.919 422.086 529.452C429.823 528.23 436.256 527.007 436.419 526.844C436.826 526.274 439.351 515.678 439.351 514.374C439.351 513.314 437.234 513.07 425.262 512.825C417.607 512.744 409.871 512.499 408.079 512.418C404.985 512.255 404.985 512.255 405.473 514.863V514.863ZM579.422 539.966C558.493 541.434 542.938 542.412 518.426 543.716L508.409 544.205L508.816 547.057C509.142 548.687 509.468 550.154 509.712 550.399C509.957 550.562 515.006 550.317 520.951 549.828C546.847 547.383 593.592 547.872 612.241 550.643C615.336 551.133 617.942 551.377 618.105 551.214C618.267 551.051 616.313 547.872 613.788 544.205L609.147 537.44L605.482 537.847C603.446 538.173 591.719 539.07 579.422 539.966V539.966ZM407.591 554.637C407.591 563.195 407.835 566.048 408.568 566.048C409.138 566.048 413.861 565.151 418.992 564.173L428.276 562.299L430.23 553.904C431.289 549.339 432.022 545.427 431.859 545.264C431.614 544.938 416.956 543.716 409.789 543.308L407.591 543.227V554.637V554.637ZM497.09 544.531C494.321 545.02 494.076 545.264 493.669 548.361C493.425 550.236 493.344 551.866 493.506 552.029C493.669 552.192 496.357 552.111 499.533 551.785L505.315 551.214L506.129 548.28C506.536 546.568 506.943 545.02 506.943 544.612C506.943 543.96 501.243 543.879 497.09 544.531V544.531ZM443.423 552.192C443.423 556.186 443.586 559.527 443.83 559.527C444.074 559.527 451.322 558.468 459.954 557.082C468.505 555.778 477.545 554.474 479.988 554.148C484.548 553.578 485.037 553.089 486.91 546.65L487.48 544.857H443.423V552.192V552.192ZM598.315 566.048C584.553 567.433 565.659 569.145 556.213 569.96L539.111 571.346L539.437 577.866C539.518 581.452 539.762 584.549 539.925 584.794C540.088 585.038 545.3 584.631 551.489 583.816C567.858 581.778 594.244 579.904 615.743 579.252L634.636 578.681L630.157 571.101C627.714 567.026 625.19 563.603 624.538 563.603C623.887 563.603 612.078 564.744 598.315 566.048V566.048ZM514.517 573.057L510.282 573.546L510.038 581.452C509.875 585.772 509.875 589.521 509.957 589.766C510.119 590.173 531.619 586.668 531.782 586.179C531.863 586.098 532.677 583.245 533.736 579.904C534.795 576.562 535.853 573.302 536.098 572.65C536.424 571.753 535.039 571.672 527.628 572.079C522.742 572.405 516.879 572.813 514.517 573.057V573.057ZM488.702 582.919C487.887 587.81 487.073 592.374 486.829 593.27C486.421 594.656 486.747 594.737 489.516 594.248C491.308 593.922 492.936 593.352 493.262 593.107C493.588 592.781 494.891 588.38 496.275 583.327L498.718 574.198H490.086L488.702 582.919V582.919ZM406.858 595.471C406.369 607.208 406.043 616.907 406.206 617.07C406.369 617.233 409.219 616.499 412.558 615.358L418.666 613.32L421.679 596.367C423.389 587.076 425.018 578.518 425.262 577.295L425.67 575.095L418.096 574.769C413.861 574.687 409.871 574.443 409.138 574.361C408.079 574.198 407.754 576.969 406.858 595.471V595.471ZM449.042 575.828H442.853L442.038 590.662C441.55 598.894 441.305 605.74 441.387 605.903C441.55 605.985 447.576 604.599 454.743 602.643L467.691 599.22L471.6 588.136C473.636 582.023 475.59 576.562 475.835 575.91C476.242 574.932 474.613 574.85 465.736 575.258C459.954 575.584 452.462 575.828 449.042 575.828V575.828ZM630.32 594.411L619.733 596.612L619.489 602.969L619.245 609.245L632.112 609.327C639.197 609.327 647.096 609.653 649.702 609.979C652.227 610.305 654.262 610.386 654.181 610.142C652.715 607.208 642.291 592.129 641.721 592.211C641.233 592.211 636.102 593.189 630.32 594.411V594.411ZM594.081 601.421L570.871 605.74L570.627 609.979C570.383 613.972 570.464 614.135 572.256 613.809C574.699 613.239 592.859 611.12 600.188 610.468C612.404 609.408 611.752 609.734 614.847 603.458C617.453 598.324 618.023 597.02 617.453 597.02C617.372 597.02 606.866 598.976 594.081 601.421V601.421ZM549.779 609.164C544.486 610.06 540.088 610.875 539.925 611.038C539.844 611.201 539.518 612.994 539.355 615.113C539.03 617.722 539.192 619.026 539.844 619.026C541.717 618.944 557.19 616.01 558.004 615.521C558.493 615.195 559.063 613.972 559.307 612.75C559.552 611.446 560.04 609.816 560.284 609.001C561.017 607.289 561.506 607.289 549.779 609.164ZM517.286 614.135C507.432 615.602 508.084 615.195 507.432 620.33C507.106 622.856 507.025 625.139 507.269 625.302C507.432 625.546 510.69 625.057 514.517 624.242L521.439 622.775L522.416 619.515C522.905 617.64 523.557 615.521 523.719 614.706C524.208 613.076 524.615 613.076 517.286 614.135V614.135ZM482.675 619.596C482.268 620.411 481.698 622.693 481.372 624.731C481.047 626.769 480.558 629.295 480.314 630.355C479.906 632.066 480.069 632.148 481.78 631.659C482.838 631.333 483.815 630.925 483.978 630.844C484.223 630.599 487.317 619.189 487.399 618.374C487.399 618.292 486.503 618.211 485.363 618.211C484.304 618.211 483.082 618.863 482.675 619.596V619.596ZM643.106 622.204C633.333 623.997 623.724 625.628 621.525 625.954C619.408 626.28 617.534 626.85 617.29 627.176C616.72 628.154 614.196 644.292 614.521 644.7C614.766 644.863 619.408 644.374 624.945 643.64L634.962 642.173L638.627 633.289C640.581 628.317 642.454 624.16 642.698 623.916C642.943 623.671 642.943 627.665 642.698 632.718C642.291 640.787 642.373 641.928 643.431 641.521C644.164 641.276 651.168 641.032 659.149 641.032H673.563L668.025 630.029C664.931 623.997 661.999 619.026 661.592 619.026C661.103 619.026 652.797 620.493 643.106 622.204V622.204ZM448.961 621.96C438.944 622.53 439.84 621.552 438.944 633.289C438.618 636.875 438.211 640.461 438.048 641.195C437.478 643.151 438.699 643.069 447.82 640.543L455.394 638.424L457.593 631.007C458.814 626.85 459.954 622.856 460.28 622.041C460.606 620.819 460.362 620.574 459.14 620.9C458.326 621.145 453.765 621.634 448.961 621.96ZM404.415 637.12C403.112 656.436 400.506 686.348 398.551 705.339C397.737 714.06 397.167 721.314 397.411 721.558C398.225 722.373 414.513 731.257 414.757 731.013C414.92 730.931 414.513 728.241 413.78 725.144C410.685 711.452 410.115 685.696 412.477 661C413.536 649.834 416.467 626.443 417.037 624.486C417.445 623.264 416.793 623.101 411.418 623.101H405.392L404.415 637.12V637.12ZM585.53 632.148C576.572 633.615 569.08 634.919 568.835 635.082C568.021 635.734 565.904 655.703 566.637 655.703C567.044 655.703 573.559 654.236 581.051 652.361L594.651 649.019L598.723 639.32C601.003 634.023 602.632 629.621 602.306 629.621C602.062 629.621 594.488 630.762 585.53 632.148ZM541.473 639.076L537.319 639.565L535.853 652.116C535.039 659.044 534.55 664.913 534.795 665.076C534.958 665.32 537.401 664.75 540.17 663.772C544.974 662.142 545.219 661.897 546.115 658.718C548.395 649.916 551.164 639.728 551.571 638.668C551.897 637.772 551.408 637.609 548.802 638.016C547.092 638.261 543.753 638.75 541.473 639.076V639.076ZM506.943 643.966C504.826 644.374 504.826 644.537 502.709 660.43C501.569 669.232 500.754 676.649 500.917 676.812C501.161 677.057 508.491 674.612 509.224 674.041C509.387 673.96 511.015 666.787 512.97 658.148L516.39 642.499L512.725 643.069C510.69 643.314 508.084 643.721 506.943 643.966V643.966ZM477.952 647.389C476.975 648.041 468.994 688.06 469.645 688.712C470.786 689.853 472.74 687.815 473.229 685.207C474.45 678.035 480.151 649.019 480.639 647.96C481.047 646.656 479.499 646.33 477.952 647.389ZM436.664 655.703C435.361 668.825 430.23 709.088 427.95 724.329C426.565 733.213 425.507 740.63 425.507 740.793C425.507 741.038 434.791 748.944 439.84 752.937L441.631 754.323L440.735 751.307C439.107 746.173 439.432 712.593 441.224 701.345C443.667 685.941 449.042 660.837 452.055 650.568C452.462 649.264 451.892 649.101 444.889 649.345L437.315 649.59L436.664 655.703V655.703ZM659.637 655.784C650.191 657.985 641.721 659.941 640.825 660.185C639.522 660.511 638.952 661.408 638.545 663.935C638.219 665.809 638.138 667.439 638.219 667.602C638.382 667.684 641.803 667.276 645.793 666.706C656.217 665.076 675.029 664.342 680.404 665.32C682.847 665.809 685.046 665.972 685.29 665.728C686.104 664.994 685.453 657.496 684.475 655.621C682.521 651.872 680.974 650.649 678.775 651.22C677.635 651.546 669.084 653.584 659.637 655.784ZM615.091 665.972C609.798 667.195 609.554 667.358 609.065 670.047C608.821 671.596 608.739 673.063 608.902 673.226C609.228 673.634 623.317 670.781 623.805 670.21C623.968 670.047 624.619 668.58 625.352 666.787L626.655 663.69L623.561 664.261C621.932 664.505 618.105 665.32 615.091 665.972V665.972ZM573.314 675.101L562.728 677.301L562.158 680.969C561.832 683.007 561.587 684.881 561.75 685.126C561.832 685.37 566.799 684.229 572.663 682.681L583.494 679.828L584.634 676.323C585.53 673.715 585.611 672.819 584.878 672.819C584.308 672.9 579.178 673.878 573.314 675.101V675.101ZM644.897 688.63L632.6 691.728L630.483 700.775C629.343 705.828 628.528 709.985 628.691 710.148C628.773 710.311 636.754 708.191 646.282 705.502C655.81 702.731 663.953 700.53 664.523 700.53C665.256 700.53 674.622 683.903 675.355 681.295C675.517 680.725 671.934 681.377 666.397 683.007C661.347 684.392 651.656 687 644.897 688.63V688.63ZM535.446 682.681C532.515 683.333 531.374 683.903 531.374 684.881C531.374 685.615 531.13 688.223 530.886 690.505L530.316 694.825L534.143 693.521C537.075 692.543 537.971 691.728 538.378 690.097C539.03 687.245 539.518 684.963 540.007 683.17C540.495 681.539 540.658 681.54 535.446 682.681V682.681ZM607.355 697.27L602.469 698.248L599.537 709.658C597.745 716.668 597.012 720.906 597.583 720.662C598.153 720.499 600.433 719.684 602.713 718.95L606.948 717.564L610.694 706.969C612.73 701.101 614.44 696.129 614.44 695.884C614.44 695.64 613.951 695.64 613.3 695.884C612.648 696.129 609.961 696.781 607.355 697.27V697.27ZM563.705 704.279C559.063 704.768 558.167 705.094 557.841 706.561C557.434 708.273 553.688 728.568 552.792 733.702C552.548 735.169 552.711 736.392 553.118 736.392C553.525 736.392 556.946 735.169 560.773 733.702C567.288 731.176 567.695 730.85 568.591 727.834C569.08 726.041 570.953 719.684 572.744 713.652L576.002 702.812L572.581 703.22C570.79 703.464 566.799 703.953 563.705 704.279V704.279ZM525.022 726.448C523.149 737.533 521.602 747.069 521.602 747.558C521.602 748.21 522.579 748.129 524.86 747.232C527.791 746.091 528.117 745.602 528.606 742.179C528.85 740.141 530.316 731.339 531.863 722.699C533.41 714.06 534.632 706.806 534.632 706.561C534.632 706.398 533.248 706.235 531.537 706.235H528.443L525.022 726.448V726.448Z" fill="url(#paint0_linear_1215_5)"/>
<defs>
<linearGradient id="paint0_linear_1215_5" x1="182.127" y1="155.9" x2="629.4" y2="560.925" gradientUnits="userSpaceOnUse">
<stop stop-color="#79B15E"/>
<stop offset="1" stop-color="#1F431E"/>
</linearGradient>
</defs>
</svg>
