<svg width="242" height="78" viewBox="0 0 242 78" fill="none" xmlns="http://www.w3.org/2000/svg">
<path d="M19.1 57.9C15.78 57.9 13.02 57.24 10.82 55.92C8.61995 54.6 6.97995 52.84 5.89995 50.64C4.81995 48.44 4.27995 46.02 4.27995 43.38C4.27995 42.82 4.29995 42.26 4.33995 41.7C4.41995 41.1 4.49995 40.5 4.57995 39.9C3.21995 38.86 2.13995 37.58 1.33995 36.06C0.579951 34.54 0.199951 32.78 0.199951 30.78C0.199951 27.9 1.01995 25.28 2.65995 22.92C4.29995 20.56 6.43995 18.56 9.07995 16.92C9.03995 16.64 8.99995 16.38 8.95995 16.14C8.95995 15.86 8.95995 15.58 8.95995 15.3C8.95995 15.14 8.95995 15 8.95995 14.88C8.95995 14.72 8.97995 14.56 9.01995 14.4C9.33995 11.64 10.18 9.18 11.54 7.02C12.94 4.82 15.04 3.1 17.84 1.86C20.68 0.619999 24.4 0 29 0C29.8 0 30.64 0.0199997 31.52 0.0599992C32.4 0.0999987 33.3 0.159998 34.22 0.239997C36.3 0.439999 38.76 0.96 41.6 1.8C44.48 2.64 47.54 3.6 50.78 4.68C54.06 5.76 57.32 6.76 60.56 7.68C61.52 6.44 62.5 5.4 63.5 4.56C64.54 3.72 65.62 3.12 66.74 2.76H66.92C67.2 2.76 67.34 2.9 67.34 3.18C67.34 3.42 67.24 3.56 67.04 3.6C66.04 3.92 65.08 4.46 64.16 5.22C63.28 5.94 62.4 6.84 61.52 7.92C63.88 8.56 66.16 9.08 68.36 9.48C70.56 9.88 72.58 10.08 74.42 10.08C75.82 10.08 77.08 9.96 78.2 9.72C79.36 9.44 80.38 9 81.26 8.4C83.26 7.04 84.44 5.02 84.8 2.34C84.8 2.06 84.94 1.92 85.22 1.92C85.34 1.92 85.46 1.98 85.58 2.1C85.7 2.18 85.74 2.3 85.7 2.46C85.54 3.9 85.12 5.18 84.4399 6.3C83.8 7.38 82.98 8.28 81.9799 9C80.62 10 79.02 10.72 77.18 11.16C75.34 11.6 73.34 11.82 71.18 11.82C69.46 11.82 67.62 11.7 65.66 11.46C63.74 11.18 61.76 10.84 59.72 10.44C59.4 10.96 59.06 11.5 58.7 12.06C58.34 12.62 58 13.2 57.68 13.8C56.68 15.6 55.82 17.74 55.1 20.22C54.38 22.66 53.64 25.28 52.88 28.08C52.12 30.84 51.22 33.64 50.18 36.48C49.14 39.28 47.82 41.96 46.22 44.52C44.66 47.08 42.68 49.36 40.28 51.36C37.88 53.4 34.94 55 31.46 56.16C28.02 57.32 23.9 57.9 19.1 57.9ZM19.1 57C22.34 57 25.28 56.4 27.92 55.2C30.6 54.04 33.02 52.44 35.18 50.4C37.38 48.36 39.38 46.02 41.18 43.38C43.02 40.74 44.7 37.94 46.22 34.98C47.78 32.02 49.24 29.06 50.6 26.1C52 23.14 53.36 20.3 54.68 17.58C56.04 14.86 57.4 12.42 58.76 10.26C55.4 9.54 51.98 8.7 48.5 7.74C45.02 6.74 41.68 5.82 38.48 4.98C36.88 4.54 35.28 4.24 33.68 4.08C32.08 3.88 30.52 3.78 29 3.78C25.64 3.78 22.54 4.22 19.7 5.1C16.9 5.94 14.62 7.16 12.86 8.76C11.1 10.32 10.12 12.18 9.91995 14.34C9.91995 14.5 9.89995 14.64 9.85995 14.76C9.85995 14.88 9.85995 15.02 9.85995 15.18C9.85995 15.34 9.85995 15.54 9.85995 15.78C9.89995 15.98 9.93995 16.18 9.97995 16.38C11.78 15.34 13.72 14.42 15.8 13.62C17.92 12.78 20.1 12.36 22.34 12.36H22.4C22.72 12.36 22.88 12.52 22.88 12.84C22.88 13.08 22.74 13.22 22.46 13.26C20.22 13.54 18.04 14.02 15.92 14.7C13.84 15.38 11.92 16.24 10.16 17.28C10.4 18.4 10.84 19.52 11.48 20.64C12.16 21.72 13.02 22.68 14.06 23.52C15.62 22.16 17.34 20.94 19.22 19.86C21.14 18.74 23.22 17.8 25.46 17.04C28.46 16.04 31.14 15.54 33.5 15.54C36.94 15.54 39.5 16.44 41.18 18.24C42.9 20 43.76 22.14 43.76 24.66C43.76 26.7 43.2 28.82 42.08 31.02C41 33.22 39.34 35.26 37.1 37.14C34.9 39.02 32.16 40.56 28.88 41.76C25.6 42.92 21.76 43.5 17.36 43.5C15.4 43.5 13.5 43.32 11.66 42.96C9.85995 42.56 8.19995 41.98 6.67995 41.22C6.63995 41.58 6.59995 41.94 6.55995 42.3C6.55995 42.66 6.55995 43.02 6.55995 43.38C6.55995 45.86 6.99995 48.14 7.87995 50.22C8.79995 52.26 10.18 53.9 12.02 55.14C13.9 56.38 16.26 57 19.1 57ZM18.32 42.66C22.2 42.66 25.6 42.1 28.52 40.98C31.48 39.86 33.96 38.42 35.96 36.66C37.96 34.86 39.46 32.94 40.46 30.9C41.46 28.82 41.96 26.82 41.96 24.9C41.96 22.58 41.22 20.62 39.74 19.02C38.26 17.42 35.98 16.62 32.9 16.62C30.82 16.62 28.44 17.06 25.76 17.94C23.68 18.62 21.74 19.52 19.94 20.64C18.18 21.72 16.58 22.94 15.14 24.3C16.06 24.86 17.1 25.32 18.26 25.68C19.42 26 20.7 26.16 22.1 26.16C22.9 26.16 23.74 26.12 24.62 26.04C25.5 25.92 26.42 25.72 27.38 25.44H27.56C27.8 25.44 27.92 25.58 27.92 25.86C27.92 26.1 27.82 26.24 27.62 26.28C26.62 26.56 25.66 26.76 24.74 26.88C23.82 27 22.94 27.06 22.1 27.06C20.54 27.06 19.12 26.88 17.84 26.52C16.6 26.12 15.48 25.6 14.48 24.96C12.36 27.16 10.66 29.58 9.37995 32.22C8.09995 34.82 7.25995 37.42 6.85995 40.02C8.41995 40.9 10.18 41.56 12.14 42C14.14 42.44 16.2 42.66 18.32 42.66ZM4.87995 38.64C5.43995 36.12 6.41995 33.6 7.81995 31.08C9.25995 28.56 11.1 26.26 13.34 24.18C12.3 23.3 11.44 22.3 10.76 21.18C10.08 20.06 9.57995 18.94 9.25995 17.82C6.81995 19.42 4.83995 21.32 3.31995 23.52C1.83995 25.72 1.09995 28.12 1.09995 30.72C1.09995 32.4 1.43995 33.9 2.11995 35.22C2.79995 36.54 3.71995 37.68 4.87995 38.64Z" fill="white"/>
<path d="M67.7632 51.06C66.0832 51.06 65.2432 50.12 65.2432 48.24C65.2432 46.68 65.8032 44.72 66.9232 42.36C67.2832 41.68 67.7232 40.88 68.2432 39.96C68.8032 39 69.2832 38.08 69.6832 37.2C70.1232 36.28 70.3432 35.56 70.3432 35.04C70.3432 34.48 70.0632 34.2 69.5032 34.2C68.7832 34.2 68.0032 34.62 67.1632 35.46C66.3232 36.26 65.4832 37.3 64.6432 38.58C63.8432 39.82 63.0832 41.14 62.3632 42.54C61.6832 43.94 61.0832 45.24 60.5632 46.44C60.0832 47.6 59.7432 48.5 59.5432 49.14C59.3832 49.78 59.1232 50.18 58.7632 50.34C58.4432 50.5 58.0632 50.58 57.6232 50.58C57.2232 50.54 56.8032 50.6 56.3632 50.76C57.2032 48 58.1032 45.08 59.0632 42C60.0232 38.88 61.0632 35.74 62.1832 32.58C63.3032 29.42 64.5232 26.4 65.8432 23.52C67.2032 20.6 68.7232 17.98 70.4032 15.66C71.4432 14.26 72.4832 13.2 73.5232 12.48C74.6032 11.76 75.5632 11.4 76.4032 11.4C77.0432 11.4 77.5432 11.62 77.9032 12.06C78.3032 12.46 78.5032 13.08 78.5032 13.92C78.5032 14.56 78.3632 15.36 78.0832 16.32C77.8032 17.24 77.3232 18.28 76.6432 19.44C75.8432 20.88 74.8832 22.36 73.7632 23.88C72.6832 25.4 71.5432 26.84 70.3432 28.2C69.1832 29.56 68.0632 30.74 66.9832 31.74C65.9432 32.7 65.0632 33.36 64.3432 33.72C64.2232 34 64.0032 34.6 63.6832 35.52C63.3632 36.44 63.0232 37.48 62.6632 38.64C62.3432 39.76 62.0232 40.84 61.7032 41.88C62.4632 40.44 63.3432 39.02 64.3432 37.62C65.3832 36.18 66.4432 35 67.5232 34.08C68.6032 33.12 69.5832 32.64 70.4632 32.64C71.9432 32.64 72.6832 33.3 72.6832 34.62C72.6832 35.42 72.4632 36.44 72.0232 37.68C71.5832 38.92 71.0232 40.36 70.3432 42C69.6232 43.68 69.0832 45.1 68.7232 46.26C68.4032 47.38 68.2432 48.26 68.2432 48.9C68.2432 49.66 68.5032 50.04 69.0232 50.04C69.5832 50.04 70.4832 49.52 71.7232 48.48C72.8832 47.44 73.9632 46.14 74.9632 44.58C75.9632 42.98 77.1632 40.82 78.5632 38.1C78.6432 38.02 78.7032 37.98 78.7432 37.98C78.8632 37.98 78.9832 38.04 79.1032 38.16C79.2632 38.28 79.3032 38.38 79.2232 38.46C77.7432 41.22 76.4032 43.54 75.2032 45.42C74.0432 47.3 72.8832 48.72 71.7232 49.68C70.5632 50.6 69.2432 51.06 67.7632 51.06ZM64.7032 32.46C65.8232 31.78 67.0632 30.7 68.4232 29.22C69.8232 27.7 71.1832 26 72.5032 24.12C73.8232 22.24 74.9032 20.46 75.7432 18.78C76.2632 17.74 76.6232 16.82 76.8232 16.02C77.0632 15.18 77.1832 14.46 77.1832 13.86C77.1832 12.74 76.8632 12.18 76.2232 12.18C75.7432 12.18 75.1232 12.54 74.3632 13.26C73.6432 13.98 72.8232 15.16 71.9032 16.8C71.1432 18.16 70.3632 19.66 69.5632 21.3C68.8032 22.9 68.0832 24.48 67.4032 26.04C66.7232 27.56 66.1432 28.9 65.6632 30.06C65.1832 31.22 64.8632 32.02 64.7032 32.46Z" fill="white"/>
<path d="M78.9087 51.06C77.5487 51.06 76.6087 50.68 76.0887 49.92C75.6087 49.16 75.3687 48.22 75.3687 47.1C75.3687 45.94 75.5687 44.72 75.9687 43.44C76.3687 42.16 76.7487 41.14 77.1087 40.38C78.3887 37.7 80.1687 35.66 82.4487 34.26C84.7687 32.82 87.1487 32.1 89.5887 32.1C89.9087 32.1 90.2287 32.1 90.5487 32.1C90.9087 32.1 91.2487 32.14 91.5687 32.22C92.3687 32.34 92.7687 32.44 92.7687 32.52C92.7687 32.6 92.4687 32.68 91.8687 32.76C91.3087 32.84 90.8887 32.88 90.6087 32.88C88.6487 32.88 86.8887 33.4 85.3287 34.44C83.8087 35.48 82.5087 36.8 81.4287 38.4C80.3487 40 79.5087 41.64 78.9087 43.32C78.3487 44.96 78.0687 46.38 78.0687 47.58C78.0687 48.34 78.1887 48.96 78.4287 49.44C78.7087 49.92 79.1087 50.16 79.6287 50.16C80.1887 50.16 80.8287 49.78 81.5487 49.02C82.2687 48.26 82.9687 47.34 83.6487 46.26C84.3287 45.14 84.9487 44.06 85.5087 43.02C86.0687 41.94 86.4887 41.12 86.7687 40.56L89.3487 35.16C90.0287 35 90.7087 34.82 91.3887 34.62C92.1087 34.38 92.7887 34.12 93.4287 33.84C92.7487 35 92.0887 36.22 91.4487 37.5C90.8487 38.78 90.2287 40.04 89.5887 41.28C89.1087 42.2 88.6287 43.28 88.1487 44.52C87.7087 45.76 87.4887 46.88 87.4887 47.88V48.12C87.4887 48.44 87.5287 48.8 87.6087 49.2C87.6887 49.56 87.9087 49.74 88.2687 49.74C88.7087 49.74 89.2687 49.48 89.9487 48.96C90.6287 48.4 91.1087 47.98 91.3887 47.7C92.6687 46.42 93.7687 45 94.6887 43.44C95.6487 41.88 96.5287 40.3 97.3287 38.7C97.4087 38.62 97.4687 38.58 97.5087 38.58C97.8287 38.58 97.9487 38.74 97.8687 39.06C97.8687 39.06 97.7687 39.24 97.5687 39.6C97.4087 39.96 97.3087 40.16 97.2687 40.2C96.5087 41.6 95.7487 42.94 94.9887 44.22C94.2287 45.5 93.3287 46.72 92.2887 47.88C91.6487 48.52 90.8687 49.2 89.9487 49.92C89.0287 50.64 88.1087 51 87.1887 51C86.3087 51 85.6887 50.66 85.3287 49.98C84.9687 49.26 84.7887 48.46 84.7887 47.58C84.7887 47.02 84.8287 46.48 84.9087 45.96C85.0287 45.4 85.1487 44.92 85.2687 44.52C84.9887 45.24 84.4887 46.12 83.7687 47.16C83.0887 48.2 82.3087 49.12 81.4287 49.92C80.5887 50.68 79.7487 51.06 78.9087 51.06Z" fill="white"/>
<path d="M108.092 51.06C106.412 51.06 105.572 50.12 105.572 48.24C105.572 47.52 105.712 46.66 105.992 45.66C106.272 44.66 106.712 43.56 107.312 42.36C107.632 41.68 108.052 40.88 108.572 39.96C109.132 39 109.632 38.06 110.072 37.14C110.512 36.22 110.732 35.5 110.732 34.98C110.732 34.46 110.452 34.2 109.892 34.2C109.132 34.2 108.332 34.62 107.492 35.46C106.692 36.26 105.892 37.3 105.092 38.58C104.292 39.86 103.532 41.2 102.812 42.6C102.092 44 101.472 45.32 100.952 46.56C100.432 47.76 100.052 48.68 99.8117 49.32C99.5717 49.92 99.2317 50.3 98.7917 50.46C98.3517 50.62 97.8717 50.7 97.3517 50.7C96.8717 50.7 96.4117 50.78 95.9717 50.94C96.5317 49.66 96.9917 48.62 97.3517 47.82C97.7117 47.02 98.0917 46.22 98.4917 45.42C98.8917 44.58 99.3717 43.46 99.9317 42.06C100.252 41.34 100.612 40.52 101.012 39.6C101.412 38.64 101.752 37.72 102.032 36.84C102.352 35.92 102.512 35.2 102.512 34.68C102.512 34.08 102.312 33.78 101.912 33.78C101.432 33.78 100.952 34.08 100.472 34.68C99.9917 35.28 99.5517 35.96 99.1517 36.72C98.7917 37.44 98.4917 38.02 98.2517 38.46C97.6517 39.62 97.0517 40.76 96.4517 41.88C95.8517 43 95.1717 44.08 94.4117 45.12H94.3517C94.2317 45.12 94.0917 45.08 93.9317 45C93.8117 44.92 93.7717 44.86 93.8117 44.82C94.4917 43.74 95.1317 42.66 95.7317 41.58C96.3717 40.5 96.9517 39.42 97.4717 38.34C97.9117 37.5 98.3917 36.62 98.9117 35.7C99.4317 34.74 100.032 33.94 100.712 33.3C101.392 32.66 102.172 32.34 103.052 32.34C103.452 32.34 103.912 32.44 104.432 32.64C104.992 32.88 105.272 33.42 105.272 34.26C105.272 34.7 105.192 35.24 105.032 35.88C104.872 36.52 104.652 37.24 104.372 38.04C105.412 36.56 106.512 35.3 107.672 34.26C108.832 33.18 109.892 32.64 110.852 32.64C112.372 32.64 113.132 33.36 113.132 34.8C113.132 35.68 112.872 36.76 112.352 38.04C112.192 38.48 111.892 39.18 111.452 40.14C111.052 41.06 110.632 42.1 110.192 43.26C109.792 44.38 109.432 45.46 109.112 46.5C108.792 47.54 108.632 48.4 108.632 49.08C108.632 49.8 108.852 50.16 109.292 50.16C109.572 50.16 109.932 50.04 110.372 49.8C110.852 49.52 111.412 49.08 112.052 48.48C113.212 47.44 114.292 46.12 115.292 44.52C116.332 42.92 117.552 40.78 118.952 38.1C118.952 38.02 118.992 37.98 119.072 37.98C119.192 37.98 119.312 38.04 119.432 38.16C119.552 38.28 119.572 38.38 119.492 38.46C118.052 41.26 116.732 43.6 115.532 45.48C114.372 47.32 113.192 48.72 111.992 49.68C110.832 50.6 109.532 51.06 108.092 51.06Z" fill="white"/>
<path d="M126.18 51.06C124.58 51.06 123.48 50.5 122.88 49.38C122.32 48.22 122.04 46.88 122.04 45.36C122.04 44.2 122.14 43.04 122.34 41.88C122.58 40.72 122.84 39.7 123.12 38.82C123.52 38.86 124.34 38.68 125.58 38.28C126.86 37.88 128.06 37.4 129.18 36.84C129.86 36.52 130.34 36.12 130.62 35.64C130.94 35.16 131.1 34.72 131.1 34.32C131.1 33.96 130.98 33.66 130.74 33.42C130.54 33.14 130.22 33 129.78 33C129.26 33 128.68 33.2 128.04 33.6C127.32 34.04 126.44 34.74 125.4 35.7C124.36 36.66 123.34 37.78 122.34 39.06C121.34 40.34 120.5 41.7 119.82 43.14L118.02 49.14C117.82 49.78 117.56 50.18 117.24 50.34C116.92 50.5 116.54 50.58 116.1 50.58C115.7 50.54 115.28 50.6 114.84 50.76C115.68 48 116.58 45.08 117.54 42C118.5 38.88 119.54 35.74 120.66 32.58C121.78 29.42 123 26.4 124.32 23.52C125.68 20.6 127.2 17.98 128.88 15.66C129.92 14.26 130.96 13.2 132 12.48C133.08 11.76 134.04 11.4 134.88 11.4C135.52 11.4 136.02 11.62 136.38 12.06C136.78 12.46 136.98 13.08 136.98 13.92C136.98 14.56 136.84 15.36 136.56 16.32C136.28 17.24 135.8 18.28 135.12 19.44C134.32 20.88 133.36 22.36 132.24 23.88C131.16 25.4 130.02 26.84 128.82 28.2C127.66 29.56 126.54 30.74 125.46 31.74C124.42 32.7 123.54 33.36 122.82 33.72C122.74 33.92 122.58 34.36 122.34 35.04C122.1 35.72 121.84 36.48 121.56 37.32C121.32 38.16 121.08 38.96 120.84 39.72C121.56 38.68 122.38 37.66 123.3 36.66C124.26 35.62 125.24 34.72 126.24 33.96C127.28 33.16 128.2 32.6 129 32.28C129.84 31.92 130.58 31.74 131.22 31.74C132.02 31.74 132.62 31.96 133.02 32.4C133.46 32.84 133.68 33.36 133.68 33.96C133.68 34.64 133.4 35.36 132.84 36.12C132.32 36.88 131.48 37.52 130.32 38.04C129.16 38.56 127.68 38.82 125.88 38.82C125.56 39.94 125.28 41.1 125.04 42.3C124.84 43.46 124.74 44.56 124.74 45.6C124.74 46.8 124.9 47.8 125.22 48.6C125.54 49.4 126.04 49.8 126.72 49.8C127.4 49.8 128.26 49.36 129.3 48.48C130.46 47.44 131.64 45.94 132.84 43.98C134.04 42.02 135.14 40.06 136.14 38.1C136.22 38.02 136.28 37.98 136.32 37.98C136.44 37.98 136.56 38.04 136.68 38.16C136.84 38.28 136.88 38.38 136.8 38.46C134.48 42.62 132.5 45.76 130.86 47.88C129.26 50 127.7 51.06 126.18 51.06ZM123.18 32.46C124.3 31.78 125.54 30.7 126.9 29.22C128.3 27.7 129.66 26 130.98 24.12C132.3 22.24 133.38 20.46 134.22 18.78C134.74 17.74 135.1 16.82 135.3 16.02C135.54 15.18 135.66 14.46 135.66 13.86C135.66 12.74 135.34 12.18 134.7 12.18C134.22 12.18 133.6 12.54 132.84 13.26C132.12 13.98 131.3 15.16 130.38 16.8C129.62 18.16 128.84 19.66 128.04 21.3C127.28 22.9 126.56 24.48 125.88 26.04C125.2 27.56 124.62 28.9 124.14 30.06C123.66 31.22 123.34 32.02 123.18 32.46Z" fill="white"/>
<path d="M148.19 77.52C145.99 77.52 144.17 76.92 142.73 75.72C141.29 74.52 140.65 72.4 140.81 69.36C140.93 67.12 141.67 64.88 143.03 62.64C144.39 60.4 146.11 58.24 148.19 56.16C150.27 54.08 152.45 52.22 154.73 50.58C155.37 50.14 156.01 49.7 156.65 49.26C157.33 48.82 157.99 48.4 158.63 48C158.07 47.08 157.79 45.94 157.79 44.58C157.79 44.1 157.83 43.6 157.91 43.08C157.99 42.56 158.11 42.02 158.27 41.46C156.23 41.02 154.31 40.06 152.51 38.58C150.75 37.1 149.31 35.16 148.19 32.76C147.07 30.36 146.51 27.58 146.51 24.42C146.51 22.38 146.87 20.24 147.59 18C148.31 15.76 149.31 13.58 150.59 11.46C151.87 9.34 153.37 7.44 155.09 5.76C156.85 4.04 158.77 2.68 160.85 1.68C162.93 0.679998 165.09 0.179998 167.33 0.179998C169.53 0.179998 171.37 0.719998 172.85 1.8C174.37 2.84 175.51 4.22 176.27 5.94C177.07 7.66 177.47 9.52 177.47 11.52C177.47 13.6 177.07 15.72 176.27 17.88C175.51 20 174.53 22.12 173.33 24.24C173.57 25.24 173.69 26.3 173.69 27.42C173.69 29.66 173.21 31.84 172.25 33.96C171.33 36.08 169.99 37.86 168.23 39.3C166.47 40.7 164.31 41.5 161.75 41.7C160.71 43.78 160.25 45.54 160.37 46.98C162.97 45.5 165.61 44.24 168.29 43.2C171.01 42.16 173.69 41.44 176.33 41.04C176.73 40.96 177.11 40.92 177.47 40.92C177.83 40.88 178.17 40.84 178.49 40.8C180.53 38.52 182.55 36.08 184.55 33.48C186.55 30.84 188.43 28.24 190.19 25.68C191.99 23.12 193.57 20.78 194.93 18.66C196.33 16.5 197.45 14.76 198.29 13.44C198.41 13.32 198.51 13.26 198.59 13.26C200.47 10.54 202.47 8.28 204.59 6.48C206.71 4.64 208.93 3.7 211.25 3.66C212.77 3.58 214.21 3.86 215.57 4.5C216.93 5.14 218.05 6.24 218.93 7.8C218.97 7.84 218.99 7.92 218.99 8.04C218.99 8.2 218.89 8.32 218.69 8.4C218.53 8.48 218.39 8.44 218.27 8.28C217.43 6.88 216.55 5.88 215.63 5.28C214.75 4.68 213.85 4.38 212.93 4.38C211.45 4.38 209.95 5.02 208.43 6.3C206.91 7.54 205.43 9.2 203.99 11.28C202.55 13.32 201.17 15.54 199.85 17.94C198.57 20.34 197.39 22.7 196.31 25.02C195.27 27.3 194.39 29.32 193.67 31.08C192.91 32.88 192.13 34.64 191.33 36.36C190.53 38.04 189.73 39.68 188.93 41.28C191.01 41.88 192.53 42.82 193.49 44.1C194.49 45.34 194.99 46.82 194.99 48.54C194.99 50.58 194.45 52.42 193.37 54.06C192.29 55.74 190.85 57.16 189.05 58.32C187.29 59.52 185.35 60.42 183.23 61.02C181.11 61.66 179.03 61.98 176.99 61.98H175.13C171.89 65.7 168.65 68.74 165.41 71.1C162.21 73.46 159.17 75.1 156.29 76.02C154.89 76.46 153.49 76.82 152.09 77.1C150.69 77.38 149.39 77.52 148.19 77.52ZM158.51 40.62C158.67 40.14 158.85 39.66 159.05 39.18C159.25 38.7 159.47 38.2 159.71 37.68C160.47 36.12 161.53 34.48 162.89 32.76C164.25 31.04 165.71 29.26 167.27 27.42C168.87 25.58 170.33 23.74 171.65 21.9C170.89 20.14 169.85 18.72 168.53 17.64C167.25 16.52 165.85 15.96 164.33 15.96C163.37 15.96 162.39 16.24 161.39 16.8C161.35 16.84 161.27 16.86 161.15 16.86C160.95 16.86 160.81 16.76 160.73 16.56C160.65 16.32 160.71 16.14 160.91 16.02C162.07 15.38 163.23 15.06 164.39 15.06C166.03 15.06 167.55 15.62 168.95 16.74C170.35 17.86 171.45 19.3 172.25 21.06C173.41 19.42 174.37 17.8 175.13 16.2C175.89 14.56 176.27 13 176.27 11.52C176.27 9.6 175.93 7.86 175.25 6.3C174.57 4.7 173.57 3.44 172.25 2.52C170.93 1.56 169.29 1.08 167.33 1.08C164.57 1.08 162.09 1.82 159.89 3.3C157.73 4.78 155.89 6.74 154.37 9.18C152.85 11.58 151.69 14.22 150.89 17.1C150.13 19.98 149.75 22.82 149.75 25.62C149.75 28.06 150.05 30.34 150.65 32.46C151.29 34.58 152.25 36.36 153.53 37.8C154.85 39.24 156.51 40.18 158.51 40.62ZM179.81 40.62C180.41 40.58 180.99 40.56 181.55 40.56C182.11 40.52 182.65 40.5 183.17 40.5C183.49 40.5 183.81 40.5 184.13 40.5C184.45 40.5 184.75 40.52 185.03 40.56L185.33 39.9C186.17 38.06 187.19 35.72 188.39 32.88C189.59 30.04 190.93 27.1 192.41 24.06C190.61 26.74 188.63 29.54 186.47 32.46C184.31 35.34 182.09 38.06 179.81 40.62ZM162.29 40.74C164.53 40.46 166.43 39.66 167.99 38.34C169.55 36.98 170.73 35.34 171.53 33.42C172.33 31.46 172.73 29.46 172.73 27.42C172.73 27.1 172.71 26.78 172.67 26.46C172.67 26.1 172.65 25.76 172.61 25.44C171.29 27.64 169.85 29.8 168.29 31.92C166.77 34.04 165.35 36.04 164.03 37.92C163.67 38.44 163.35 38.94 163.07 39.42C162.79 39.86 162.53 40.3 162.29 40.74ZM149.93 76.44C151.01 76.44 152.19 76.28 153.47 75.96C154.75 75.64 156.11 75.16 157.55 74.52C159.51 73.6 161.75 72 164.27 69.72C166.79 67.48 169.33 64.76 171.89 61.56C170.17 61.16 168.73 60.48 167.57 59.52C166.41 58.6 165.75 57.38 165.59 55.86C165.59 55.54 165.71 55.34 165.95 55.26C166.19 55.18 166.33 55.3 166.37 55.62C166.53 57.1 167.17 58.26 168.29 59.1C169.41 59.94 170.79 60.52 172.43 60.84C174.67 58.04 176.83 55 178.91 51.72C180.99 48.44 182.87 45.04 184.55 41.52C184.23 41.48 183.89 41.46 183.53 41.46C183.21 41.42 182.87 41.4 182.51 41.4C181.99 41.4 181.43 41.42 180.83 41.46C180.23 41.5 179.61 41.56 178.97 41.64C176.49 44.32 174.05 46.56 171.65 48.36C169.25 50.16 167.05 51.1 165.05 51.18C163.89 51.22 162.81 51.06 161.81 50.7C160.81 50.34 159.97 49.78 159.29 49.02C158.57 49.46 157.85 49.92 157.13 50.4C156.41 50.88 155.71 51.38 155.03 51.9C150.67 55.06 147.49 58.2 145.49 61.32C143.53 64.48 142.55 67.24 142.55 69.6C142.55 71.68 143.21 73.34 144.53 74.58C145.81 75.82 147.61 76.44 149.93 76.44ZM164.75 50.34C166.55 50.34 168.55 49.54 170.75 47.94C172.99 46.34 175.27 44.28 177.59 41.76L176.33 41.94C173.69 42.34 171.05 43.1 168.41 44.22C165.77 45.34 163.19 46.66 160.67 48.18C160.99 48.9 161.49 49.44 162.17 49.8C162.89 50.16 163.75 50.34 164.75 50.34ZM175.85 61.14H177.11C178.99 61.14 180.89 60.84 182.81 60.24C184.77 59.64 186.55 58.78 188.15 57.66C189.75 56.54 191.03 55.22 191.99 53.7C192.99 52.18 193.49 50.5 193.49 48.66C193.49 47.26 193.09 45.98 192.29 44.82C191.53 43.66 190.25 42.8 188.45 42.24C184.49 49.64 180.29 55.94 175.85 61.14Z" fill="white"/>
<path d="M199.266 51.06C197.946 51.06 197.026 50.7 196.506 49.98C196.026 49.22 195.786 48.3 195.786 47.22C195.786 46.06 195.986 44.84 196.386 43.56C196.786 42.24 197.166 41.18 197.526 40.38C198.606 37.86 199.966 35.9 201.606 34.5C203.246 33.06 204.746 32.34 206.106 32.34C207.266 32.34 208.046 32.68 208.446 33.36C208.886 34.04 209.106 34.88 209.106 35.88C209.106 36.92 208.926 38.02 208.566 39.18C208.246 40.3 207.886 41.26 207.486 42.06C207.006 43.06 206.506 44 205.986 44.88C205.466 45.76 204.926 46.56 204.366 47.28C204.726 47.6 205.166 47.76 205.686 47.76C206.486 47.76 207.266 47.38 208.026 46.62C208.826 45.86 209.566 44.92 210.246 43.8C210.966 42.68 211.586 41.6 212.106 40.56C212.666 39.52 213.086 38.74 213.366 38.22C213.446 38.1 213.526 38.04 213.606 38.04C213.686 38.04 213.766 38.12 213.846 38.28C213.926 38.4 213.926 38.54 213.846 38.7C213.206 40.06 212.406 41.58 211.446 43.26C210.526 44.94 209.486 46.32 208.326 47.4C207.846 47.84 207.386 48.16 206.946 48.36C206.506 48.56 206.106 48.66 205.746 48.66C205.066 48.66 204.466 48.4 203.946 47.88C203.186 48.88 202.406 49.66 201.606 50.22C200.806 50.78 200.026 51.06 199.266 51.06ZM199.986 50.16C200.426 50.16 200.946 49.9 201.546 49.38C202.146 48.82 202.766 48.1 203.406 47.22C203.406 47.22 203.286 47.02 203.046 46.62C202.846 46.22 202.746 45.62 202.746 44.82C202.746 44.5 202.766 44.16 202.806 43.8C202.846 43.4 202.946 43 203.106 42.6C203.386 41.8 203.726 41.22 204.126 40.86C204.526 40.46 204.926 40.26 205.326 40.26C205.686 40.26 205.966 40.44 206.166 40.8C206.406 41.12 206.466 41.6 206.346 42.24C206.906 41 207.366 39.8 207.726 38.64C208.086 37.44 208.266 36.4 208.266 35.52C208.266 34.84 208.126 34.3 207.846 33.9C207.606 33.46 207.166 33.24 206.526 33.24C205.966 33.24 205.326 33.6 204.606 34.32C203.886 35 203.146 35.92 202.386 37.08C201.666 38.2 200.986 39.42 200.346 40.74C199.746 42.06 199.246 43.36 198.846 44.64C198.486 45.88 198.306 46.96 198.306 47.88C198.306 48.56 198.426 49.12 198.666 49.56C198.946 49.96 199.386 50.16 199.986 50.16Z" fill="white"/>
<path d="M216.009 51.06C214.449 51.06 213.669 50.22 213.669 48.54C213.669 47.14 214.289 45.1 215.529 42.42C215.889 41.7 216.289 40.84 216.729 39.84C217.209 38.84 217.609 37.88 217.929 36.96C218.289 36 218.469 35.22 218.469 34.62C218.469 34.06 218.269 33.78 217.869 33.78C217.389 33.78 216.909 34.08 216.429 34.68C215.949 35.28 215.509 35.96 215.109 36.72C214.749 37.44 214.449 38.02 214.209 38.46C213.609 39.62 212.929 40.88 212.169 42.24C211.409 43.6 210.649 44.8 209.889 45.84H209.829C209.749 45.84 209.629 45.8 209.469 45.72C209.349 45.6 209.309 45.52 209.349 45.48C210.109 44.44 210.849 43.24 211.569 41.88C212.329 40.52 212.969 39.28 213.489 38.16C213.929 37.32 214.389 36.46 214.869 35.58C215.389 34.66 215.989 33.9 216.669 33.3C217.349 32.66 218.129 32.34 219.009 32.34C220.489 32.34 221.229 32.92 221.229 34.08C221.229 34.84 220.989 35.86 220.509 37.14C220.029 38.42 219.389 40.04 218.589 42C217.869 43.68 217.329 45.1 216.969 46.26C216.649 47.38 216.489 48.26 216.489 48.9C216.489 49.66 216.749 50.04 217.269 50.04C217.829 50.04 218.729 49.52 219.969 48.48C221.049 47.52 222.089 46.34 223.089 44.94C224.089 43.5 225.169 41.56 226.329 39.12C226.649 38.48 226.969 37.68 227.289 36.72C227.649 35.72 227.949 34.84 228.189 34.08C228.469 33.32 228.609 32.94 228.609 32.94C229.289 32.78 230.049 32.58 230.889 32.34C231.729 32.06 232.469 31.78 233.109 31.5C232.709 31.9 232.129 32.8 231.369 34.2C230.649 35.6 229.889 37.2 229.089 39C228.329 40.76 227.669 42.48 227.109 44.16C226.429 46.08 226.089 47.62 226.089 48.78C226.089 49.74 226.389 50.22 226.989 50.22C227.269 50.22 227.609 50.1 228.009 49.86C228.449 49.62 228.969 49.24 229.569 48.72C230.089 48.28 230.569 47.76 231.009 47.16C231.489 46.56 231.949 45.94 232.389 45.3C232.989 44.42 233.609 43.4 234.249 42.24C234.929 41.08 235.669 39.72 236.469 38.16C236.549 38.04 236.609 37.98 236.649 37.98C236.769 37.98 236.869 38.04 236.949 38.16C237.069 38.24 237.109 38.32 237.069 38.4C234.909 42.64 233.009 45.82 231.369 47.94C229.729 50.02 227.949 51.06 226.029 51.06C225.269 51.06 224.709 50.8 224.349 50.28C224.029 49.76 223.869 49.06 223.869 48.18C223.869 47.5 223.949 46.74 224.109 45.9C224.269 45.06 224.489 44.2 224.769 43.32C223.289 45.88 221.869 47.82 220.509 49.14C219.149 50.42 217.649 51.06 216.009 51.06Z" fill="white"/>
<path d="M239.219 51.78C238.659 51.78 238.119 51.58 237.599 51.18C237.119 50.78 236.879 50.22 236.879 49.5C236.879 48.7 237.099 48.14 237.539 47.82C238.019 47.46 238.519 47.28 239.039 47.28C239.639 47.28 240.179 47.46 240.659 47.82C241.139 48.18 241.379 48.72 241.379 49.44C241.379 50.2 241.159 50.78 240.719 51.18C240.279 51.58 239.779 51.78 239.219 51.78Z" fill="white"/>
</svg>
