<svg width="333" height="290" viewBox="0 0 333 290" fill="none" xmlns="http://www.w3.org/2000/svg">
<mask id="mask0_1:2" style="mask-type:alpha" maskUnits="userSpaceOnUse" x="0" y="0" width="333" height="290">
<rect width="333" height="290" fill="#C4C4C4"/>
</mask>
<g mask="url(#mask0_1:2)">
<path d="M440.022 386.251L467.904 337.954L523.687 337.961L551.583 386.264L523.697 434.561L467.914 434.555L440.022 386.251ZM273.257 386.251L301.14 337.954L356.923 337.961L384.815 386.264L356.933 434.561L301.153 434.555L273.257 386.251ZM356.933 434.548L384.815 386.251L440.594 386.258L468.491 434.561L440.608 482.858L384.825 482.852L356.933 434.548ZM356.933 337.941L384.815 289.644L440.595 289.65L468.491 337.954L440.608 386.251L384.825 386.244L356.933 337.941Z" stroke="#325678" stroke-opacity="0.23" stroke-width="4.99693"/>
<path d="M-59.6718 96.4296L-31.789 48.1326L23.9934 48.1393L51.8896 96.4429L24.0034 144.74L-31.779 144.733L-59.6718 96.4296ZM-226.436 96.4296L-198.553 48.1326L-142.771 48.1393L-114.878 96.4429L-142.761 144.74L-198.54 144.733L-226.436 96.4296ZM-142.761 144.727L-114.878 96.4296L-59.0989 96.4363L-31.2027 144.74L-59.0855 193.037L-114.868 193.03L-142.761 144.727ZM-142.761 48.1193L-114.878 -0.177742L-59.0989 -0.171077L-31.2027 48.1326L-59.0855 96.4296L-114.868 96.4229L-142.761 48.1193Z" stroke="#325678" stroke-opacity="0.23" stroke-width="4.99693"/>
<path d="M106.893 386.251L134.775 337.954L190.558 337.961L218.454 386.264L190.568 434.561L134.785 434.555L106.893 386.251ZM-59.8716 386.251L-31.9888 337.954L23.7936 337.961L51.6865 386.264L23.8036 434.561L-31.9754 434.555L-59.8716 386.251ZM23.8036 434.548L51.6865 386.251L107.466 386.258L135.362 434.561L107.479 482.858L51.6965 482.852L23.8036 434.548ZM23.8036 337.941L51.6865 289.644L107.466 289.65L135.362 337.954L107.479 386.251L51.6965 386.244L23.8036 337.941Z" stroke="#325678" stroke-opacity="0.23" stroke-width="4.99693"/>
<path d="M273.457 96.4296L301.34 48.1326L357.122 48.1393L385.019 96.4429L357.132 144.74L301.35 144.733L273.457 96.4296ZM106.693 96.4296L134.576 48.1326L190.358 48.1393L218.251 96.4429L190.368 144.74L134.589 144.733L106.693 96.4296ZM190.368 144.727L218.251 96.4296L274.03 96.4363L301.926 144.74L274.043 193.037L218.261 193.03L190.368 144.727ZM190.368 48.1193L218.251 -0.177742L274.03 -0.171077L301.926 48.1326L274.043 96.4296L218.261 96.4229L190.368 48.1193Z" stroke="#325678" stroke-opacity="0.23" stroke-width="4.99693"/>
<path d="M-59.6718 -96.7852L-31.789 -145.082L23.9934 -145.076L51.8896 -96.7719L24.0034 -48.4749L-31.779 -48.4816L-59.6718 -96.7852ZM-226.436 -96.7852L-198.553 -145.082L-142.771 -145.076L-114.878 -96.7719L-142.761 -48.4749L-198.54 -48.4816L-226.436 -96.7852ZM-142.761 -48.4882L-114.878 -96.7852L-59.0989 -96.7786L-31.2027 -48.4749L-59.0855 -0.177901L-114.868 -0.184575L-142.761 -48.4882ZM-142.761 -145.096L-114.878 -193.393L-59.0989 -193.386L-31.2027 -145.082L-59.0855 -96.7852L-114.868 -96.7919L-142.761 -145.096Z" stroke="#325678" stroke-opacity="0.23" stroke-width="4.99693"/>
<path d="M106.893 193.037L134.775 144.74L190.558 144.747L218.454 193.05L190.568 241.347L134.785 241.341L106.893 193.037ZM-59.8716 193.037L-31.9888 144.74L23.7936 144.747L51.6865 193.05L23.8036 241.347L-31.9754 241.341L-59.8716 193.037ZM23.8036 241.334L51.6865 193.037L107.466 193.044L135.362 241.347L107.479 289.644L51.6965 289.638L23.8036 241.334ZM23.8036 144.727L51.6865 96.4297L107.466 96.4363L135.362 144.74L107.479 193.037L51.6965 193.03L23.8036 144.727Z" stroke="#325678" stroke-opacity="0.23" stroke-width="4.99693"/>
<path d="M273.457 -96.7852L301.34 -145.082L357.122 -145.076L385.019 -96.7719L357.132 -48.4749L301.35 -48.4816L273.457 -96.7852ZM106.693 -96.7852L134.576 -145.082L190.358 -145.076L218.251 -96.7719L190.368 -48.4749L134.589 -48.4816L106.693 -96.7852ZM190.368 -48.4882L218.251 -96.7852L274.03 -96.7786L301.926 -48.4749L274.043 -0.177901L218.261 -0.184575L190.368 -48.4882ZM190.368 -145.096L218.251 -193.393L274.03 -193.386L301.926 -145.082L274.043 -96.7852L218.261 -96.7919L190.368 -145.096Z" stroke="#325678" stroke-opacity="0.23" stroke-width="4.99693"/>
<path d="M440.022 193.037L467.904 144.74L523.687 144.747L551.583 193.05L523.697 241.347L467.914 241.341L440.022 193.037ZM273.257 193.037L301.14 144.74L356.923 144.747L384.815 193.05L356.933 241.347L301.153 241.341L273.257 193.037ZM356.933 241.334L384.815 193.037L440.594 193.044L468.491 241.347L440.608 289.644L384.825 289.638L356.933 241.334ZM356.933 144.727L384.815 96.4297L440.595 96.4363L468.491 144.74L440.608 193.037L384.825 193.03L356.933 144.727Z" stroke="#325678" stroke-opacity="0.23" stroke-width="4.99693"/>
<path d="M440.022 -0.17782L467.904 -48.4748L523.687 -48.4682L551.583 -0.164491L523.697 48.1325L467.914 48.1259L440.022 -0.17782ZM273.257 -0.177827L301.14 -48.4748L356.923 -48.4682L384.815 -0.164498L356.933 48.1325L301.153 48.1258L273.257 -0.177827ZM356.933 48.1192L384.815 -0.177822L440.594 -0.171161L468.491 48.1325L440.608 96.4295L384.825 96.4228L356.933 48.1192ZM356.933 -48.4882L384.815 -96.7852L440.595 -96.7785L468.491 -48.4748L440.608 -0.17782L384.825 -0.184481L356.933 -48.4882Z" stroke="#325678" stroke-opacity="0.23" stroke-width="4.99693"/>
<path d="M-59.6718 289.644L-31.789 241.347L23.9934 241.354L51.8896 289.658L24.0034 337.955L-31.779 337.948L-59.6718 289.644ZM-226.436 289.644L-198.553 241.347L-142.771 241.354L-114.878 289.658L-142.761 337.955L-198.54 337.948L-226.436 289.644ZM-142.761 337.941L-114.878 289.644L-59.0989 289.651L-31.2027 337.955L-59.0855 386.252L-114.868 386.245L-142.761 337.941ZM-142.761 241.334L-114.878 193.037L-59.0989 193.044L-31.2027 241.347L-59.0855 289.644L-114.868 289.638L-142.761 241.334Z" stroke="#325678" stroke-opacity="0.23" stroke-width="4.99693"/>
<path d="M106.893 -0.17782L134.775 -48.4748L190.558 -48.4682L218.454 -0.164491L190.568 48.1325L134.785 48.1259L106.893 -0.17782ZM-59.8716 -0.177827L-31.9888 -48.4748L23.7936 -48.4682L51.6865 -0.164498L23.8036 48.1325L-31.9754 48.1258L-59.8716 -0.177827ZM23.8036 48.1192L51.6865 -0.177822L107.466 -0.171161L135.362 48.1325L107.479 96.4295L51.6965 96.4228L23.8036 48.1192ZM23.8036 -48.4882L51.6865 -96.7852L107.466 -96.7785L135.362 -48.4748L107.479 -0.17782L51.6965 -0.184481L23.8036 -48.4882Z" stroke="#325678" stroke-opacity="0.23" stroke-width="4.99693"/>
<path d="M273.457 289.644L301.34 241.347L357.122 241.354L385.019 289.658L357.132 337.955L301.35 337.948L273.457 289.644ZM106.693 289.644L134.576 241.347L190.358 241.354L218.251 289.658L190.368 337.955L134.589 337.948L106.693 289.644ZM190.368 337.941L218.251 289.644L274.03 289.651L301.926 337.955L274.043 386.252L218.261 386.245L190.368 337.941ZM190.368 241.334L218.251 193.037L274.03 193.044L301.926 241.347L274.043 289.644L218.261 289.638L190.368 241.334Z" stroke="#325678" stroke-opacity="0.23" stroke-width="4.99693"/>
</g>
</svg>
