<svg width="92" height="92" viewBox="0 0 92 92" fill="none" xmlns="http://www.w3.org/2000/svg">
<mask id="mask0_468:480" style="mask-type:alpha" maskUnits="userSpaceOnUse" x="6" y="1" width="80" height="90">
<path d="M42.0543 2.27313C44.4906 0.866512 47.4923 0.866511 49.9287 2.27313L81.8841 20.7226C84.3204 22.1292 85.8213 24.7288 85.8213 27.542V64.441C85.8213 67.2542 84.3204 69.8537 81.8841 71.2603L49.9287 89.7098C47.4923 91.1165 44.4906 91.1165 42.0543 89.7098L10.0989 71.2603C7.66253 69.8537 6.16169 67.2542 6.16169 64.441V27.542C6.16169 24.7288 7.66253 22.1292 10.0989 20.7226L42.0543 2.27313Z" fill="black"/>
</mask>
<g mask="url(#mask0_468:480)">
<path d="M96.5231 110.529C96.5231 145.421 68.2485 173.706 33.37 173.706C-1.50857 173.706 -29.7832 145.421 -29.7832 110.529C-29.7832 75.6376 -1.50857 47.3525 33.37 47.3525C68.2485 47.3525 96.5231 75.6376 96.5231 110.529ZM-28.5355 110.529C-28.5355 144.731 -0.81946 172.457 33.37 172.457C67.5594 172.457 95.2754 144.731 95.2754 110.529C95.2754 76.327 67.5594 48.6007 33.37 48.6007C-0.81946 48.6007 -28.5355 76.327 -28.5355 110.529Z" fill="url(#paint0_linear_468:480)"/>
<ellipse cx="32.9159" cy="110.983" rx="62.6991" ry="62.7224" fill="url(#paint1_linear_468:480)"/>
</g>
<path d="M42.3174 2.7289C44.5909 1.41629 47.392 1.41629 49.6655 2.72889L81.621 21.1784C83.8945 22.491 85.295 24.9168 85.295 27.542V64.441C85.295 67.0662 83.8945 69.492 81.621 70.8046L49.6655 89.2541C47.392 90.5667 44.5909 90.5667 42.3174 89.2541L10.362 70.8046C8.0885 69.492 6.68796 67.0662 6.68796 64.441V27.542C6.68796 24.9168 8.0885 22.491 10.362 21.1784L42.3174 2.7289Z" stroke="white" stroke-width="1.05255"/>
<defs>
<linearGradient id="paint0_linear_468:480" x1="-4.50195" y1="40.5" x2="98.4981" y2="77.5" gradientUnits="userSpaceOnUse">
<stop stop-color="#111111" stop-opacity="0"/>
<stop offset="0.59235" stop-color="#639FD7"/>
<stop offset="1" stop-color="#111111" stop-opacity="0"/>
</linearGradient>
<linearGradient id="paint1_linear_468:480" x1="56.7717" y1="53.3597" x2="48.4171" y2="77.7" gradientUnits="userSpaceOnUse">
<stop stop-color="#0C3C11"/>
<stop offset="1"/>
</linearGradient>
</defs>
</svg>
