<svg width="92" height="92" viewBox="0 0 92 92" fill="none" xmlns="http://www.w3.org/2000/svg">
<mask id="mask0_472:1971" style="mask-type:alpha" maskUnits="userSpaceOnUse" x="6" y="1" width="80" height="90">
<path d="M42.0543 2.27313C44.4907 0.866513 47.4923 0.866511 49.9287 2.27313L81.8841 20.7226C84.3205 22.1292 85.8213 24.7288 85.8213 27.542V64.441C85.8213 67.2542 84.3205 69.8538 81.8841 71.2604L49.9287 89.7099C47.4923 91.1165 44.4907 91.1165 42.0543 89.7099L10.0989 71.2604C7.66254 69.8538 6.16169 67.2542 6.16169 64.441V27.542C6.16169 24.7288 7.66254 22.1292 10.0989 20.7226L42.0543 2.27313Z" fill="black"/>
</mask>
<g mask="url(#mask0_472:1971)">
<path d="M96.5232 110.529C96.5232 145.42 68.2485 173.705 33.37 173.705C-1.50856 173.705 -29.7832 145.42 -29.7832 110.529C-29.7832 75.6372 -1.50856 47.3521 33.37 47.3521C68.2485 47.3521 96.5232 75.6372 96.5232 110.529ZM-28.5355 110.529C-28.5355 144.731 -0.819452 172.457 33.37 172.457C67.5594 172.457 95.2754 144.731 95.2754 110.529C95.2754 76.3265 67.5594 48.6003 33.37 48.6003C-0.819452 48.6003 -28.5355 76.3265 -28.5355 110.529Z" fill="url(#paint0_linear_472:1971)"/>
<ellipse cx="32.916" cy="110.983" rx="62.6992" ry="62.7224" fill="url(#paint1_linear_472:1971)"/>
</g>
<path d="M42.3175 2.7289C44.591 1.41629 47.392 1.41629 49.6655 2.72889L81.621 21.1784C83.8945 22.491 85.295 24.9168 85.295 27.542V64.441C85.295 67.0662 83.8945 69.492 81.621 70.8046L49.6655 89.2541C47.392 90.5667 44.591 90.5667 42.3175 89.2541L10.362 70.8046C8.0885 69.492 6.68797 67.0662 6.68797 64.441V27.542C6.68797 24.9168 8.0885 22.491 10.362 21.1784L42.3175 2.7289Z" stroke="black" stroke-width="1.05255"/>
<defs>
<linearGradient id="paint0_linear_472:1971" x1="-69.002" y1="10" x2="153.998" y2="103" gradientUnits="userSpaceOnUse">
<stop stop-color="white" stop-opacity="0"/>
<stop offset="0.605608" stop-color="#639FD7"/>
<stop offset="1" stop-color="white" stop-opacity="0"/>
</linearGradient>
<linearGradient id="paint1_linear_472:1971" x1="56.7717" y1="53.3593" x2="48.4171" y2="77.6995" gradientUnits="userSpaceOnUse">
<stop stop-color="#794D94"/>
<stop offset="1"/>
</linearGradient>
</defs>
</svg>
