<svg width="592" height="461" viewBox="0 0 592 461" fill="none" xmlns="http://www.w3.org/2000/svg">
<g clip-path="url(#clip0_892_14140)">
<g clip-path="url(#clip1_892_14140)">
<rect x="-11" y="68.297" width="581.563" height="366.72" rx="19.659" transform="rotate(-5.35716 -11 68.297)" fill="#EEF6F6"/>
<path d="M5.33857 152.957L9.69779 151.287L9.67116 143.648L20.065 139.666L25.1334 145.374L29.5082 143.698L9.49531 122.012L5.7256 123.456L5.33857 152.957ZM9.68506 139.551L9.69447 128.197L17.3176 136.627L9.68506 139.551ZM43.2586 139C49.5466 136.592 51.4645 132.186 49.0122 125.785L42.6953 109.294L38.6308 110.851L44.5258 126.24C45.4172 128.567 45.6345 130.435 45.1778 131.843C44.7314 133.248 43.5826 134.304 41.7314 135.013C39.8801 135.723 38.3141 135.706 37.0334 134.963C35.763 134.216 34.6821 132.679 33.7907 130.352L27.8957 114.963L23.8467 116.514L30.1636 133.005C32.6159 139.407 36.9809 141.405 43.2586 139ZM59.5672 132.184L66.1448 129.664C67.9651 128.967 69.5332 127.999 70.8492 126.759C72.1717 125.506 73.1953 124.076 73.9203 122.47C74.6516 120.849 75.0459 119.139 75.1033 117.338C75.1606 115.537 74.8445 113.737 74.1552 111.937C73.4659 110.138 72.4931 108.589 71.237 107.291C69.9872 105.979 68.551 104.97 66.9283 104.263C65.3119 103.542 63.5981 103.155 61.7869 103.102C59.9756 103.048 58.1599 103.37 56.3397 104.067L49.7621 106.587L59.5672 132.184ZM62.2352 126.981L55.223 108.676L57.3018 107.879C59.0083 107.226 60.6934 107.043 62.3572 107.33C64.0171 107.608 65.5055 108.289 66.8223 109.374C68.1353 110.448 69.1245 111.854 69.79 113.592C70.4556 115.329 70.6608 117.041 70.4057 118.728C70.1466 120.405 69.4941 121.906 68.4483 123.232C67.3985 124.547 66.0204 125.531 64.314 126.185L62.2352 126.981ZM84.7156 122.551L88.7801 120.994L78.9749 95.3967L74.9105 96.9537L84.7156 122.551ZM96.2597 118.128L110.02 112.857L108.653 109.289L98.9573 113.003L96.093 105.526L105.416 101.955L104.05 98.3866L94.7263 101.958L91.8857 94.5427L101.581 90.8286L100.215 87.2606L86.4545 92.5316L96.2597 118.128ZM116.439 110.399L120.503 108.842L113.313 90.0706L132.511 104.242L136.575 102.685L126.77 77.0883L122.705 78.6452L129.902 97.4318L110.698 83.2447L106.634 84.8017L116.439 110.399ZM155.634 95.9537C157.237 95.3396 158.653 94.5305 159.881 93.5263C161.12 92.5182 162.1 91.4548 162.822 90.3362L159.718 87.5757C159.18 88.4933 158.444 89.3268 157.51 90.0762C156.575 90.8255 155.518 91.426 154.339 91.8776C152.478 92.5907 150.661 92.8181 148.89 92.5596C147.115 92.2909 145.541 91.6188 144.169 90.5435C142.792 89.4579 141.769 88.0412 141.1 86.2933C140.43 84.5455 140.247 82.8131 140.55 81.096C140.849 79.3685 141.571 77.817 142.716 76.4414C143.857 75.0554 145.359 74.0059 147.22 73.2928C148.399 72.8412 149.587 72.582 150.783 72.5152C151.979 72.4484 153.083 72.5768 154.097 72.9002L154.562 68.7728C153.238 68.414 151.781 68.2785 150.19 68.3662C148.598 68.4539 147.012 68.8008 145.429 69.4069C143.506 70.1438 141.837 71.1744 140.423 72.4988C139.015 73.8089 137.907 75.3125 137.099 77.0099C136.301 78.7032 135.854 80.4933 135.758 82.38C135.658 84.2564 135.965 86.1254 136.678 87.987C137.391 89.8485 138.414 91.4494 139.745 92.7894C141.073 94.119 142.6 95.1472 144.325 95.8739C146.06 96.5967 147.897 96.9785 149.834 97.0192C151.767 97.0497 153.7 96.6945 155.634 95.9537ZM168.22 90.563L181.981 85.292L180.614 81.724L170.918 85.438L168.054 77.9607L177.377 74.3892L176.01 70.8212L166.687 74.3926L163.846 66.9773L173.542 63.2632L172.175 59.6952L158.415 64.9662L168.22 90.563ZM189.152 74.0236L192.736 72.6509L191.44 69.269C192.674 68.6186 193.662 67.7477 194.407 66.6562C195.151 65.5647 195.61 64.3631 195.783 63.0513C195.953 61.7292 195.79 60.4218 195.295 59.1291C194.752 57.7122 193.902 56.5613 192.745 55.6763C191.594 54.777 190.26 54.2206 188.743 54.007C187.236 53.7895 185.676 53.9898 184.063 54.6078C182.688 55.1347 181.526 55.8941 180.577 56.8859C179.635 57.8635 178.985 59.0139 178.626 60.3374C178.274 61.6465 178.287 63.0586 178.666 64.5739L182.136 63.9739C181.779 62.64 181.888 61.4538 182.463 60.4153C183.034 59.3665 183.991 58.5846 185.336 58.0696C186.763 57.5229 188.045 57.4646 189.183 57.8947C190.316 58.3144 191.136 59.1862 191.643 60.51C192.174 61.8959 192.124 63.1426 191.493 64.2502C190.861 65.3577 189.78 66.2047 188.25 66.791C187.929 66.9138 187.623 67.0132 187.332 67.0891C187.047 67.1508 186.788 67.2025 186.555 67.2443L189.152 74.0236ZM193.957 81.2734C194.671 81.0001 195.181 80.5201 195.487 79.8335C195.79 79.1366 195.806 78.4365 195.537 77.7332C195.267 77.0299 194.789 76.5252 194.103 76.2189C193.412 75.9023 192.71 75.8807 191.996 76.154C191.293 76.4234 190.79 76.9066 190.488 77.6035C190.182 78.2901 190.163 78.985 190.433 79.6883C190.702 80.3916 191.182 80.9015 191.873 81.2181C192.559 81.5244 193.254 81.5428 193.957 81.2734Z" fill="#491F1F"/>
<path d="M333.629 47.2796C373.221 21.0676 427.223 27.799 458.98 64.7153L458.089 65.4823C426.724 29.0216 373.383 22.3768 334.278 48.2605C330.955 50.4599 327.775 52.8666 324.755 55.466C285.233 89.4647 280.74 149.278 314.739 188.799L313.848 189.566C279.426 149.553 283.975 88.9958 323.988 54.5747C327.046 51.9434 330.266 49.5069 333.629 47.2796V47.2796Z" fill="#414141"/>
<path d="M563.392 121.904L425.29 124.095C423.146 124.127 421.077 123.306 419.537 121.814C417.997 120.322 417.112 118.281 417.075 116.137L416.772 48.9667C416.741 46.8227 417.561 44.7537 419.053 43.2137C420.545 41.6736 422.587 40.7882 424.731 40.7518L562.832 38.5612C564.976 38.5296 567.045 39.3498 568.585 40.8417C570.125 42.3337 571.011 44.3756 571.047 46.5196L571.35 113.689C571.382 115.833 570.562 117.902 569.07 119.442C567.578 120.983 565.536 121.868 563.392 121.904Z" fill="#E6E6E6"/>
<path d="M529.595 109.892C528.555 109.99 527.506 110.047 526.451 110.064L437.2 111.48C435.416 111.508 433.643 111.185 431.984 110.528C430.324 109.871 428.81 108.894 427.528 107.652C426.246 106.411 425.222 104.928 424.513 103.291C423.803 101.653 423.424 99.8912 423.396 98.1066L422.981 71.9454C422.928 68.3424 424.306 64.8654 426.813 62.2773C429.32 59.6892 432.752 58.2014 436.355 58.1401L551.766 56.3095C555.369 56.2565 558.845 57.6348 561.433 60.1419C564.021 62.649 565.509 66.0803 565.571 69.6831C565.729 79.681 562.114 89.3714 555.447 96.8233C548.779 104.275 539.549 108.942 529.595 109.892L529.595 109.892Z" fill="white"/>
<path d="M550.961 77.2133L437.822 79.0079C437.587 79.0116 437.353 78.9689 437.133 78.8822C436.914 78.7954 436.714 78.6663 436.545 78.5023C436.376 78.3383 436.24 78.1425 436.147 77.9262C436.053 77.7099 436.003 77.4772 435.999 77.2415C435.995 77.0058 436.038 76.7716 436.125 76.5525C436.212 76.3333 436.341 76.1333 436.505 75.964C436.669 75.7947 436.864 75.6593 437.081 75.5657C437.297 75.472 437.53 75.4219 437.766 75.4181L550.904 73.6235C551.139 73.6198 551.374 73.6625 551.593 73.7493C551.812 73.836 552.012 73.9651 552.181 74.1291C552.351 74.2931 552.486 74.4889 552.58 74.7052C552.673 74.9216 552.723 75.1542 552.727 75.3899C552.731 75.6256 552.688 75.8598 552.601 76.079C552.515 76.2982 552.385 76.4981 552.221 76.6674C552.057 76.8368 551.862 76.9721 551.645 77.0658C551.429 77.1594 551.196 77.2095 550.961 77.2133Z" fill="#E6E6E6"/>
<path d="M504.647 85.0422L437.935 86.1004C437.459 86.1077 437 85.9257 436.658 85.5944C436.316 85.2631 436.12 84.8098 436.112 84.3339C436.105 83.858 436.287 83.3986 436.618 83.0567C436.949 82.7148 437.402 82.5183 437.878 82.5105L504.59 81.4523C504.826 81.4484 505.06 81.491 505.279 81.5777C505.499 81.6644 505.699 81.7935 505.868 81.9575C506.037 82.1216 506.173 82.3174 506.267 82.5338C506.36 82.7502 506.411 82.983 506.414 83.2188C506.418 83.4546 506.375 83.6888 506.288 83.9081C506.202 84.1274 506.072 84.3274 505.908 84.4967C505.744 84.6661 505.548 84.8014 505.332 84.895C505.115 84.9886 504.883 85.0386 504.647 85.0422L504.647 85.0422Z" fill="#E6E6E6"/>
<path d="M520.007 91.8928L438.047 93.1928C437.812 93.1967 437.577 93.1541 437.358 93.0674C437.139 92.9807 436.939 92.8517 436.769 92.6876C436.6 92.5236 436.464 92.3278 436.371 92.1113C436.277 91.8949 436.227 91.6622 436.223 91.4264C436.219 91.1905 436.262 90.9563 436.349 90.737C436.436 90.5178 436.565 90.3177 436.729 90.1484C436.893 89.9791 437.089 89.8437 437.305 89.7501C437.522 89.6565 437.755 89.6065 437.991 89.6029L519.95 88.3029C520.426 88.2956 520.885 88.4776 521.227 88.8088C521.569 89.1401 521.765 89.5935 521.772 90.0694C521.78 90.5452 521.598 91.0046 521.267 91.3465C520.936 91.6885 520.483 91.8849 520.007 91.8928V91.8928Z" fill="#E6E6E6"/>
<path d="M562.697 213.19L424.595 215.381C422.451 215.412 420.382 214.592 418.842 213.1C417.302 211.608 416.417 209.566 416.38 207.423L416.077 140.253C416.046 138.109 416.866 136.04 418.358 134.5C419.85 132.96 421.892 132.074 424.036 132.038L562.137 129.847C564.281 129.816 566.35 130.636 567.89 132.128C569.431 133.62 570.316 135.662 570.352 137.805L570.655 204.975C570.687 207.119 569.867 209.188 568.375 210.728C566.883 212.268 564.841 213.154 562.697 213.19V213.19Z" fill="#E6E6E6"/>
<path d="M528.865 201.18C527.839 201.276 526.803 201.333 525.756 201.35L436.506 202.766C434.721 202.794 432.948 202.471 431.289 201.814C429.629 201.157 428.115 200.18 426.833 198.938C425.551 197.697 424.527 196.214 423.818 194.577C423.109 192.939 422.729 191.177 422.701 189.393L422.286 163.232C422.257 161.447 422.581 159.674 423.238 158.015C423.894 156.355 424.872 154.841 426.114 153.559C427.355 152.277 428.838 151.252 430.476 150.543C432.114 149.834 433.875 149.455 435.66 149.426L551.071 147.596C552.855 147.567 554.628 147.891 556.288 148.548C557.947 149.204 559.461 150.182 560.743 151.423C562.025 152.665 563.05 154.147 563.759 155.785C564.468 157.423 564.847 159.185 564.876 160.969C565.022 170.97 561.399 180.659 554.726 188.11C548.054 195.561 538.821 200.227 528.865 201.18V201.18Z" fill="white"/>
<path d="M550.266 168.499L437.128 170.294C436.892 170.298 436.658 170.255 436.439 170.168C436.219 170.081 436.019 169.952 435.85 169.788C435.681 169.624 435.545 169.429 435.452 169.212C435.358 168.996 435.308 168.763 435.304 168.527C435.301 168.292 435.343 168.058 435.43 167.838C435.517 167.619 435.646 167.419 435.81 167.25C435.974 167.081 436.17 166.945 436.386 166.852C436.602 166.758 436.835 166.708 437.071 166.704L550.209 164.91C550.445 164.906 550.679 164.948 550.898 165.035C551.117 165.122 551.317 165.251 551.486 165.415C551.656 165.579 551.791 165.775 551.885 165.991C551.978 166.208 552.028 166.44 552.032 166.676C552.036 166.912 551.993 167.146 551.906 167.365C551.82 167.584 551.691 167.784 551.527 167.953C551.363 168.123 551.167 168.258 550.95 168.352C550.734 168.445 550.501 168.496 550.266 168.499V168.499Z" fill="#E6E6E6"/>
<path d="M503.952 176.328L437.24 177.386C437.004 177.39 436.77 177.348 436.551 177.261C436.331 177.174 436.131 177.045 435.962 176.881C435.792 176.717 435.657 176.521 435.563 176.305C435.47 176.088 435.419 175.856 435.416 175.62C435.412 175.384 435.455 175.15 435.541 174.931C435.628 174.711 435.757 174.511 435.922 174.342C436.086 174.173 436.282 174.037 436.498 173.944C436.715 173.85 436.947 173.8 437.183 173.796L503.895 172.738C504.371 172.731 504.83 172.913 505.172 173.244C505.514 173.575 505.71 174.029 505.718 174.505C505.725 174.981 505.543 175.44 505.212 175.782C504.881 176.124 504.428 176.32 503.952 176.328V176.328Z" fill="#E6E6E6"/>
<path d="M519.312 183.179L437.353 184.479C436.877 184.486 436.417 184.304 436.075 183.973C435.733 183.642 435.537 183.188 435.529 182.712C435.522 182.236 435.703 181.777 436.035 181.435C436.366 181.093 436.82 180.896 437.296 180.889L519.255 179.589C519.731 179.581 520.191 179.763 520.533 180.094C520.875 180.426 521.071 180.879 521.079 181.355C521.086 181.831 520.904 182.291 520.573 182.633C520.242 182.975 519.788 183.171 519.312 183.179V183.179Z" fill="#E6E6E6"/>
<path d="M210.686 211.09C208.576 207.31 207.231 203.15 206.729 198.85C206.226 194.549 206.575 190.192 207.756 186.027C208.938 181.861 210.928 177.969 213.613 174.573C216.299 171.177 219.627 168.343 223.407 166.232C227.188 164.122 231.347 162.778 235.648 162.275C239.948 161.772 244.305 162.121 248.471 163.303C252.636 164.484 256.528 166.474 259.924 169.159C263.321 171.845 266.155 175.173 268.265 178.953L267.238 179.527C265.203 175.881 262.47 172.671 259.195 170.082C255.92 167.492 252.167 165.573 248.15 164.434C244.133 163.295 239.931 162.958 235.784 163.443C231.637 163.928 227.626 165.224 223.981 167.259C220.335 169.294 217.125 172.027 214.536 175.302C211.946 178.578 210.027 182.331 208.888 186.348C207.749 190.364 207.412 194.566 207.897 198.713C208.382 202.86 209.678 206.871 211.713 210.517L210.686 211.09Z" fill="#3D3D3D"/>
<path d="M568.108 362.248C580.916 354.64 589.701 340.925 586.826 327.028C575.715 337.893 559.854 344.865 542.942 346.32C536.355 346.886 528.92 346.908 524.483 351.05C521.723 353.627 520.722 357.402 520.894 361.055C521.065 364.708 522.292 368.307 523.509 371.858L523.324 372.743C539.154 372.27 555.301 369.856 568.108 362.248Z" fill="#F2F2F2"/>
<path d="M586.493 327.024C582.258 337.625 574.061 346.899 563.354 352.881C561.014 354.252 558.48 355.262 555.838 355.876C553.14 356.417 550.352 356.315 547.7 355.579C545.191 354.936 542.691 354.026 540.085 353.922C538.808 353.864 537.532 354.065 536.334 354.511C535.137 354.958 534.041 355.641 533.114 356.521C530.908 358.594 529.73 361.287 528.683 363.962C527.521 366.931 526.369 370.034 523.755 372.229C523.438 372.495 523.955 372.937 524.272 372.672C528.82 368.854 528.952 362.708 532.435 358.274C533.248 357.161 534.302 356.246 535.518 355.598C536.735 354.95 538.082 354.586 539.46 354.532C542.105 354.48 544.683 355.416 547.219 356.087C549.803 356.837 552.518 357.025 555.181 356.638C557.857 356.147 560.436 355.228 562.818 353.915C568.008 351.161 572.715 347.581 576.757 343.317C581.226 338.654 584.763 333.181 587.178 327.19C587.325 326.824 586.638 326.661 586.493 327.024L586.493 327.024Z" fill="white"/>
<path d="M566.962 351.104C568.529 352.637 570.535 353.642 572.7 353.982C574.865 354.321 577.083 353.977 579.043 352.997C579.418 352.797 579.046 352.255 578.67 352.456C576.847 353.371 574.782 353.691 572.767 353.372C570.751 353.052 568.887 352.109 567.435 350.675C567.13 350.367 566.659 350.798 566.962 351.104L566.962 351.104Z" fill="white"/>
<path d="M548.933 356.051C549.008 354.051 549.505 352.089 550.392 350.295C551.279 348.501 552.536 346.915 554.08 345.642C554.396 345.375 553.878 344.932 553.563 345.198C551.959 346.527 550.655 348.18 549.736 350.049C548.817 351.917 548.305 353.96 548.233 356.041C548.222 356.437 548.922 356.445 548.933 356.051L548.933 356.051Z" fill="white"/>
<path d="M580.39 338.299C579.699 337.864 579.131 337.26 578.739 336.544C578.347 335.828 578.144 335.023 578.151 334.207C578.167 333.811 577.467 333.804 577.45 334.197C577.448 335.099 577.672 335.987 578.103 336.779C578.534 337.571 579.158 338.242 579.917 338.729C579.987 338.786 580.073 338.817 580.163 338.818C580.253 338.82 580.341 338.791 580.412 338.736C580.442 338.707 580.466 338.673 580.482 338.634C580.498 338.595 580.505 338.554 580.503 338.512C580.5 338.471 580.489 338.43 580.47 338.393C580.451 338.357 580.423 338.325 580.39 338.299L580.39 338.299Z" fill="white"/>
<path d="M539.821 301.484C539.803 301.73 539.784 301.977 539.761 302.226C539.492 305.532 538.915 308.806 538.037 312.005C537.974 312.253 537.905 312.504 537.834 312.749C535.583 320.506 531.729 327.704 526.52 333.877C524.399 336.399 522.076 338.744 519.575 340.888C516.088 343.881 512.019 346.868 509.989 350.65C509.773 351.041 509.585 351.446 509.426 351.863L522.095 372.41C522.149 372.445 522.199 372.483 522.254 372.519L522.718 373.357C522.858 373.254 523 373.144 523.139 373.041C523.221 372.981 523.299 372.917 523.381 372.857C523.434 372.816 523.487 372.775 523.538 372.74C523.556 372.727 523.574 372.713 523.586 372.701C523.637 372.667 523.68 372.63 523.726 372.598C524.522 371.986 525.315 371.367 526.104 370.742C526.109 370.74 526.109 370.74 526.111 370.733C532.107 365.958 537.672 360.675 542.097 354.767C542.23 354.589 542.368 354.409 542.495 354.222C544.46 351.569 546.177 348.742 547.624 345.776C548.403 344.163 549.088 342.507 549.676 340.816C551.181 336.447 551.884 331.843 551.75 327.224C551.489 317.971 547.87 308.718 540.398 301.993C540.206 301.821 540.018 301.653 539.821 301.484Z" fill="#F2F2F2"/>
<path d="M539.563 301.656C543.596 312.752 543.698 324.844 539.634 335.522C538.802 337.887 537.556 340.085 535.956 342.014C534.226 343.925 532.012 345.333 529.548 346.088C527.194 346.884 524.665 347.452 522.607 348.75C521.597 349.38 520.75 350.241 520.135 351.261C519.521 352.281 519.157 353.433 519.073 354.621C518.812 357.522 519.758 360.396 520.792 363.183C521.94 366.278 523.188 369.48 522.698 372.7C522.638 373.09 523.336 373.185 523.395 372.795C524.248 367.193 520.139 361.995 519.756 356.444C519.578 353.854 520.283 351.248 522.549 349.591C524.529 348.142 527.136 347.554 529.528 346.767C531.953 346.056 534.167 344.762 535.977 342.999C537.686 341.16 539.029 339.012 539.934 336.67C542.027 331.502 543.167 325.998 543.3 320.423C543.48 313.953 542.428 307.508 540.199 301.431C540.06 301.047 539.425 301.275 539.563 301.656L539.563 301.656Z" fill="white"/>
<path d="M541.167 332.124C545.677 333.086 550.17 331.008 551.674 327.288C551.822 326.921 551.167 326.667 551.019 327.034C549.61 330.519 545.449 332.413 541.234 331.514C540.79 331.42 540.726 332.03 541.167 332.124L541.167 332.124Z" fill="white"/>
<path d="M530.811 345.827C529.531 344.24 528.586 342.409 528.035 340.446C527.484 338.483 527.337 336.428 527.605 334.407C527.662 334.016 526.965 333.922 526.907 334.311C526.634 336.416 526.791 338.554 527.369 340.596C527.947 342.638 528.934 344.542 530.271 346.191C530.534 346.527 531.072 346.162 530.811 345.827Z" fill="white"/>
<path d="M542.633 314.307C541.764 314.29 540.909 314.082 540.13 313.697C539.35 313.313 538.665 312.761 538.123 312.081C537.864 311.742 537.326 312.108 537.582 312.445C538.184 313.193 538.942 313.802 539.803 314.229C540.663 314.656 541.606 314.89 542.567 314.916C542.757 314.921 542.927 314.838 542.949 314.659C542.951 314.571 542.92 314.486 542.861 314.42C542.802 314.355 542.721 314.314 542.633 314.307V314.307Z" fill="white"/>
<path d="M553.977 209.252L541.764 166.649L523.798 147.099L512.673 155.959C515.199 164.885 529.457 180.654 529.457 180.654L543.83 213.14C543.802 213.318 543.777 213.498 543.763 213.682C543.685 214.76 543.886 215.839 544.346 216.817C544.807 217.794 545.512 218.637 546.393 219.262C547.275 219.887 548.302 220.275 549.377 220.387C550.452 220.499 551.537 220.332 552.529 219.902C553.52 219.472 554.384 218.794 555.036 217.932C555.689 217.071 556.108 216.056 556.254 214.985C556.4 213.914 556.266 212.824 555.868 211.82C555.469 210.815 554.817 209.931 553.977 209.252L553.977 209.252Z" fill="#FFB8B8"/>
<path d="M513.42 160.511L525.817 148.362L525.837 148.302C527.813 142.38 521.327 133.152 515.538 126.453C513.627 124.246 510.949 122.846 508.046 122.538C505.143 122.229 502.231 123.034 499.899 124.79C498.187 126.098 496.875 127.857 496.111 129.871C495.347 131.885 495.162 134.072 495.576 136.185L497.723 146.944L513.42 160.511Z" fill="#3F3D56"/>
<path d="M486.238 380.778L477.31 381.615L469.834 347.578L483.01 346.343L486.238 380.778Z" fill="#FFB8B8"/>
<path d="M488.242 377.65L485.729 377.885L475.544 374.816L470.66 379.298L470.659 379.298C467.688 379.577 464.948 381.024 463.044 383.323C461.14 385.621 460.227 388.581 460.505 391.553L460.539 391.917L489.326 389.219L488.242 377.65Z" fill="#2F2E41"/>
<path d="M525.851 377.064L516.923 377.9L509.447 343.863L522.623 342.628L525.851 377.064Z" fill="#FFB8B8"/>
<path d="M527.855 373.935L525.342 374.171L515.157 371.101L510.273 375.583L510.273 375.583C507.301 375.862 504.562 377.31 502.658 379.608C500.754 381.906 499.84 384.867 500.119 387.838L500.153 388.202L528.939 385.504L527.855 373.935Z" fill="#2F2E41"/>
<path d="M525.555 227.463C525.555 227.463 527.771 239.874 526.289 252.107C524.807 264.34 527.973 298.103 527.973 298.103L528.409 364.432L511.062 364.482L496.057 254.942L482.848 293.513L484.901 298.579L482.94 300.077C482.94 300.077 485.455 310.095 484.412 310.193C483.37 310.29 480.91 312.099 480.91 312.099L488.03 365.59L470.259 366.73L456.917 291.739L459.636 247.841L459.375 239.452L461.73 239.329L462.597 235.733L464.229 229.533L525.555 227.463Z" fill="#2F2E41"/>
<path d="M526.702 230.006L526.783 229.867C531.093 222.455 522.066 206.464 520.714 204.15L525.31 202.167L523.391 193.194L522.506 189.196L525.79 185.233L525.791 185.142L526.165 166.704L528.061 154.302C528.773 149.615 528.226 144.822 526.474 140.416C524.722 136.01 521.829 132.149 518.093 129.23L510.466 123.281L500.769 111.479L487.036 112.766L483.161 122.102C478.695 123.585 474.891 126.588 472.411 130.588C469.931 134.587 468.933 139.33 469.591 143.99L472.845 167.216L471.391 196.651L471.882 201.908L467.67 207.574L469.178 212.611L465.744 214.48L464.855 222C464.282 222.924 460.506 229.083 460.654 230.657C460.676 230.893 460.872 231.105 461.269 231.323C464.397 233.039 481.034 235.574 487.959 232.021C495.335 228.238 526.23 229.978 526.542 229.996L526.702 230.006Z" fill="#3F3D56"/>
<path d="M421.735 395.344C421.752 395.528 421.841 395.698 421.984 395.816C422.126 395.935 422.309 395.992 422.493 395.975L586.545 380.592C586.73 380.574 586.9 380.484 587.018 380.341C587.137 380.198 587.194 380.014 587.176 379.83C587.159 379.645 587.069 379.475 586.926 379.356C586.783 379.238 586.599 379.181 586.414 379.199L422.367 394.582C422.182 394.599 422.012 394.688 421.894 394.83C421.776 394.972 421.718 395.155 421.735 395.34L421.735 395.344Z" fill="#CCCCCC"/>
<path d="M491.747 108.221C501.791 107.28 509.171 98.3732 508.229 88.3287C507.287 78.2842 498.38 70.9051 488.336 71.847C478.291 72.7889 470.912 81.6952 471.854 91.7397C472.796 101.784 481.702 109.163 491.747 108.221Z" fill="#FFB8B8"/>
<path d="M490.032 108.679C492.846 108.386 495.63 107.854 498.353 107.087C501.037 106.198 506.65 100.95 508.04 98.031C509.073 95.8619 509.511 92.6157 509.696 90.2745C509.952 87.1751 509.554 84.0565 508.529 81.1206C507.503 78.1847 505.872 75.497 503.741 73.2315C502.912 72.2765 501.84 71.5633 500.639 71.1673C500.534 71.1399 500.426 71.1175 500.318 71.1001C498.608 70.8628 497.009 70.1199 495.725 68.967C495.474 68.7326 495.207 68.5166 494.926 68.3207C493.52 67.3962 491.915 66.8176 490.243 66.6322C487.533 66.2442 483.816 67.3974 479.197 70.0616C476.876 71.4002 474.156 71.3426 472.044 71.1429C471.926 71.1344 471.808 71.1571 471.701 71.2085C471.595 71.2599 471.503 71.3384 471.436 71.4361C470.659 72.3631 469.56 72.9615 468.36 73.1113C467.628 73.2317 466.979 74.3428 466.205 75.7827C466.029 76.1096 465.825 76.4911 465.672 76.7264L465.599 76.3181L465.238 76.8267C464.67 77.626 464.314 78.556 464.203 79.53C464.091 80.5039 464.228 81.4903 464.601 82.3972C464.973 83.304 465.569 84.1019 466.333 84.7165C467.096 85.3311 468.003 85.7425 468.969 85.9122C469.732 86.0204 470.505 86.0503 471.274 86.0015C471.742 85.9877 472.227 85.9733 472.695 85.9979C474.205 86.123 475.656 86.6373 476.907 87.4907C478.158 88.344 479.167 89.5072 479.834 90.8667C479.991 91.1807 480.218 91.4543 480.498 91.6666C480.777 91.8789 481.102 92.0241 481.446 92.091C481.791 92.158 482.146 92.1449 482.485 92.0527C482.823 91.9605 483.136 91.7917 483.399 91.5594C483.833 91.1297 484.364 90.8113 484.947 90.6313C485.53 90.4512 486.149 90.4149 486.749 90.5254C487.282 90.7435 487.725 91.1384 488.001 91.6439C488.331 92.2045 488.821 92.654 489.408 92.9352C491.387 93.6728 492.026 97.9152 491.782 101.545C491.547 105.043 490.568 107.671 489.401 107.935C488.503 108.138 488.407 108.216 488.36 108.384L488.319 108.535L488.437 108.658C488.961 108.78 489.505 108.787 490.032 108.679V108.679Z" fill="#2F2E41"/>
<path d="M298.946 221.168C318.919 219.295 333.592 201.585 331.719 181.613C329.846 161.64 312.136 146.967 292.164 148.84C272.191 150.713 257.518 168.422 259.391 188.395C261.264 208.368 278.973 223.04 298.946 221.168Z" fill="#619682"/>
<path d="M490.738 161.272L478.094 154.761C470.99 160.728 462.46 180.2 462.46 180.2L438.729 206.64C437.664 206.927 436.693 207.49 435.915 208.271C435.137 209.053 434.578 210.026 434.295 211.092C434.012 212.158 434.015 213.28 434.304 214.344C434.592 215.409 435.156 216.379 435.938 217.156C436.721 217.934 437.694 218.491 438.761 218.773C439.827 219.055 440.949 219.05 442.013 218.761C443.078 218.471 444.047 217.906 444.823 217.122C445.6 216.339 446.156 215.365 446.437 214.298L480.281 185.677L490.738 161.272Z" fill="#FFB8B8"/>
<path d="M489.891 164.474L496.048 144.661L492.186 134.392C491.421 132.379 490.107 130.621 488.395 129.315C486.682 128.009 484.638 127.208 482.495 127.003V127.003C479.587 126.744 476.689 127.599 474.387 129.395C472.085 131.191 470.552 133.795 470.096 136.678C468.721 145.425 468.091 156.687 472.899 160.67L472.947 160.711L489.891 164.474Z" fill="#3F3D56"/>
<path d="M47.1121 420.046C30.8115 413.522 18.0816 399.154 18.8948 382.448C33.8139 393.073 53.554 398.3 73.5124 396.91C81.286 396.369 89.9472 395.039 95.8689 399.053C99.5536 401.551 101.407 405.765 101.873 410.049C102.339 414.334 101.567 418.748 100.797 423.105L101.175 424.103C82.6541 426.437 63.4126 426.57 47.1121 420.046Z" fill="#F2F2F2"/>
<path d="M19.282 382.383C26.1464 393.955 37.3819 403.258 50.9397 408.272C53.9148 409.442 57.0496 410.156 60.238 410.39C63.4787 410.527 66.7064 409.9 69.6602 408.56C72.4647 407.354 75.209 405.838 78.2256 405.242C79.702 404.942 81.2238 404.943 82.6999 405.245C84.176 405.546 85.5761 406.143 86.8165 406.998C89.7624 409.01 91.6262 411.93 93.3322 414.854C95.2264 418.1 97.1338 421.503 100.578 423.582C100.996 423.834 100.474 424.444 100.057 424.192C94.0644 420.576 92.7906 413.444 87.9263 408.915C85.6566 406.802 82.5983 405.357 79.0646 405.839C75.9745 406.26 73.1433 407.82 70.3132 409.063C67.4406 410.409 64.3131 411.122 61.1414 411.157C57.9365 411.074 54.766 410.473 51.7525 409.379C45.2073 407.118 39.0731 403.808 33.5897 399.579C27.5353 394.965 22.4185 389.236 18.5144 382.701C18.2773 382.301 19.0464 381.986 19.282 382.383L19.282 382.383Z" fill="white"/>
<path d="M46.4147 406.861C43.3701 411.069 37.4929 412.947 32.6925 411.268C32.2196 411.102 32.5542 410.404 33.0277 410.569C35.3182 411.302 37.7808 411.299 40.0692 410.559C42.3577 409.82 44.3568 408.382 45.7854 406.447C46.0849 406.034 46.7125 406.45 46.4147 406.861V406.861Z" fill="white"/>
<path d="M68.31 409.334C67.8588 407.019 66.9223 404.825 65.5623 402.898C64.2022 400.97 62.4494 399.353 60.4192 398.151C60.003 397.898 60.5246 397.288 60.9403 397.541C63.0502 398.795 64.8704 400.482 66.2809 402.491C67.6914 404.5 68.6602 406.785 69.1235 409.195C69.2088 409.655 68.3949 409.791 68.31 409.334L68.31 409.334Z" fill="white"/>
<path d="M28.4442 394.399C29.1695 393.766 29.7212 392.959 30.0471 392.054C30.3729 391.148 30.462 390.175 30.306 389.225C30.2141 388.767 31.0282 388.631 31.1195 389.086C31.2871 390.136 31.1875 391.211 30.8299 392.211C30.4723 393.212 29.8682 394.107 29.0735 394.813C29.0028 394.891 28.9074 394.944 28.803 394.962C28.6986 394.98 28.5912 394.962 28.4983 394.911C28.4576 394.883 28.4235 394.847 28.3983 394.805C28.373 394.763 28.3572 394.716 28.3521 394.667C28.3469 394.619 28.3525 394.569 28.3684 394.523C28.3843 394.476 28.4102 394.434 28.4442 394.399L28.4442 394.399Z" fill="white"/>
<path d="M68.9719 344.133C69.0385 344.417 69.105 344.7 69.1779 344.986C70.0933 348.787 71.362 352.494 72.9674 356.059C73.0864 356.336 73.2119 356.616 73.3398 356.889C77.3753 365.511 83.1756 373.19 90.3657 379.429C93.2953 381.978 96.4277 384.285 99.7319 386.326C104.338 389.175 109.62 391.911 112.673 395.945C112.996 396.361 113.289 396.798 113.551 397.255L102.544 423.49C102.487 423.541 102.436 423.594 102.379 423.646L101.991 424.707C101.81 424.612 101.624 424.51 101.443 424.415C101.337 424.361 101.234 424.3 101.129 424.246C101.059 424.207 100.989 424.169 100.924 424.138C100.901 424.125 100.877 424.113 100.861 424.102C100.795 424.071 100.738 424.036 100.679 424.007C99.6401 423.439 98.6043 422.863 97.5719 422.279C97.5655 422.278 97.5655 422.278 97.5615 422.27C89.7094 417.802 82.2665 412.665 76.0369 406.593C75.8495 406.41 75.6556 406.226 75.4733 406.031C72.7023 403.3 70.1875 400.321 67.9607 397.131C66.7598 395.396 65.6603 393.592 64.6677 391.73C62.1185 386.917 60.4606 381.683 59.774 376.281C58.391 365.459 60.9188 354.025 68.3937 344.831C68.5851 344.596 68.7741 344.367 68.9719 344.133Z" fill="#F2F2F2"/>
<path d="M69.3045 344.287C66.6316 357.943 68.7163 372.042 75.3964 383.735C76.7963 386.337 78.6472 388.669 80.8629 390.623C83.225 392.534 86.0599 393.769 89.0671 394.199C91.9529 394.697 95.0009 394.897 97.6343 396.033C98.926 396.583 100.069 397.43 100.97 398.507C101.872 399.583 102.506 400.857 102.82 402.225C103.653 405.556 103.076 409.074 102.38 412.509C101.607 416.322 100.738 420.278 101.895 423.938C102.036 424.381 101.24 424.619 101.1 424.176C99.0866 417.808 102.924 411.006 102.357 404.473C102.092 401.424 100.796 398.518 97.8559 397.002C95.2853 395.676 92.1426 395.467 89.2135 394.986C86.2603 394.6 83.4464 393.497 81.0177 391.773C78.6924 389.944 76.7371 387.688 75.2564 385.126C71.8768 379.49 69.5451 373.288 68.3741 366.821C66.9849 359.32 67.0353 351.623 68.5228 344.14C68.6151 343.668 69.3962 343.818 69.3045 344.287L69.3045 344.287Z" fill="white"/>
<path d="M72.9909 380.057C67.9154 381.999 62.3045 380.399 59.8749 376.341C59.6355 375.941 60.3516 375.526 60.5913 375.926C62.8674 379.727 68.0577 381.174 72.8021 379.359C73.3014 379.168 73.4873 379.867 72.9909 380.057Z" fill="white"/>
<path d="M87.5484 394.125C88.7498 392.044 89.5157 389.74 89.7997 387.353C90.0836 384.967 89.8796 382.548 89.2001 380.243C89.0616 379.798 89.8568 379.561 89.995 380.004C90.697 382.405 90.9037 384.924 90.6027 387.407C90.3017 389.89 89.4992 392.286 88.244 394.45C87.9992 394.89 87.3049 394.563 87.5484 394.125L87.5484 394.125Z" fill="white"/>
<path d="M68.0356 359.577C69.0447 359.399 70.0022 359.001 70.8399 358.411C71.6777 357.821 72.3749 357.054 72.8821 356.163C73.1209 355.721 73.8149 356.049 73.5777 356.488C73.0132 357.47 72.2421 358.317 71.3177 358.971C70.3933 359.625 69.3378 360.07 68.2243 360.275C68.0032 360.316 67.7905 360.25 67.7324 360.045C67.7137 359.943 67.7346 359.838 67.791 359.751C67.8474 359.664 67.9349 359.602 68.0356 359.577V359.577Z" fill="white"/>
<path d="M104.279 214.509L106.469 225.265L107.116 239.578L138.324 232.869L139.286 211.227L135.511 211.618L104.279 214.509Z" fill="#FFB6B6"/>
<path d="M106.409 413.317L113.309 412.67L114.097 385.748L103.913 386.703L106.409 413.317Z" fill="#FFB6B6"/>
<path d="M103.714 408.802L114.675 407.11L115.118 411.833L126.277 418.088C126.828 418.397 127.266 418.874 127.527 419.45C127.788 420.025 127.858 420.669 127.727 421.287C127.596 421.905 127.271 422.465 126.8 422.885C126.328 423.306 125.734 423.564 125.105 423.623L111.981 424.854L109.281 420.394L108.836 425.149L103.888 425.613L103.714 408.802Z" fill="#2F2E41"/>
<path d="M145.166 409.682L152.066 409.035L152.854 382.113L142.671 383.068L145.166 409.682Z" fill="#FFB6B6"/>
<path d="M142.471 405.167L153.433 403.476L153.876 408.198L165.035 414.454C165.586 414.763 166.024 415.24 166.285 415.815C166.546 416.391 166.616 417.034 166.485 417.652C166.354 418.271 166.029 418.831 165.557 419.251C165.086 419.671 164.492 419.93 163.863 419.989L150.739 421.219L148.039 416.76L147.594 421.514L142.645 421.978L142.471 405.167Z" fill="#2F2E41"/>
<path d="M101.279 390.645L101.354 390.638L98.6234 347.241C97.6094 345.665 97.0007 343.863 96.8517 341.994C96.7026 340.126 97.0178 338.251 97.7692 336.534L97.9269 336.172L97.2202 333.935C96.3124 331.061 96.316 327.976 97.2305 325.104L94.6832 284.622C87.5728 256.374 106.897 235.705 106.897 235.705L138.471 232.744L147.433 255.398C156.009 298.636 159.185 341.257 155.939 383.142L156.142 383.222C156.863 383.397 157.253 384.336 157.014 385.319C156.774 386.302 155.996 386.956 155.275 386.781L138.546 387.764C137.826 387.589 137.436 386.65 137.675 385.667C137.914 384.684 138.693 384.03 139.413 384.205L140.601 384.672L134.267 343.142L133.82 335.49L132.456 326.889L126.25 288.208L121.064 336.977L116.043 389.746C116.339 389.968 116.561 390.273 116.679 390.623C116.798 390.973 116.807 391.351 116.706 391.706C116.606 392.061 116.4 392.378 116.116 392.613C115.831 392.849 115.482 392.993 115.114 393.027L101.621 394.292C101.382 394.315 101.14 394.29 100.91 394.22C100.679 394.149 100.465 394.034 100.28 393.88C100.094 393.727 99.9408 393.538 99.8282 393.325C99.7156 393.113 99.646 392.88 99.6236 392.64C99.6011 392.4 99.6261 392.158 99.6972 391.928C99.7682 391.698 99.884 391.484 100.038 391.299C100.192 391.114 100.38 390.961 100.593 390.848C100.806 390.736 101.04 390.667 101.279 390.645V390.645Z" fill="#2F2E41"/>
<path d="M104.576 158.391C113.929 157.514 120.8 149.221 119.923 139.868C119.046 130.515 110.753 123.643 101.4 124.52C92.0465 125.397 85.1754 133.691 86.0524 143.044C86.9295 152.397 95.2227 159.268 104.576 158.391Z" fill="#FFB6B6"/>
<path d="M36.115 226.655C37.977 220.906 40.7673 215.501 44.3753 210.653C41.4748 216.408 40.1094 222.814 40.4115 229.251C41.7185 229.907 43.0737 230.461 44.4652 230.91C48.6434 232.219 53.02 232.78 57.3933 232.567C59.0073 224.527 62.3833 216.944 67.2784 210.365C63.9294 217.014 62.6346 224.509 63.5587 231.896C68.3769 231.021 73.0666 229.546 77.5188 227.507C84.2071 224.481 90.5827 220.301 94.8443 214.33C99.4565 207.868 101.266 199.741 101.352 191.8C101.438 183.866 99.9207 176.007 98.4031 168.217C97.6831 164.504 100.399 159.899 99.6795 156.186L99.4337 156.209C97.5826 154.114 95.6956 151.967 94.6408 149.376C93.5927 146.791 93.5072 143.632 95.1476 141.365C96.0741 140.174 97.2973 139.247 98.6946 138.678C98.8137 138.493 98.9455 138.313 99.0835 138.133C101.588 134.917 104.632 132.162 108.081 129.989C105.655 132.206 104.119 134.599 103.524 136.979C105.738 136.269 107.953 135.562 110.167 134.856C110.847 133.984 111.571 133.147 112.336 132.348C113.448 131.184 113.84 131.066 115.191 129.942C114.121 131.076 113.339 132.45 112.908 133.949C115.745 132.945 118.548 131.573 119.825 128.931C121.943 124.561 118.441 119.263 114.05 117.183C110.865 115.758 107.311 115.37 103.893 116.074C100.475 116.778 97.3647 118.539 95.0018 121.107C88.5722 117.242 80.0153 118.119 73.6357 122.057C69.4332 124.755 65.9389 128.422 63.4458 132.749C65.0927 132.379 66.7596 132.104 68.4382 131.928C66.1052 132.496 63.9363 133.599 62.103 135.149C61.3616 136.578 60.6965 138.045 60.1105 139.544C59.7256 140.528 59.3685 141.522 59.0392 142.526C57.0147 148.628 55.9229 155.027 54.7627 161.358C53.4094 168.736 51.9133 176.177 48.7199 182.965C43.8159 193.291 35.3202 201.479 24.8199 205.998C24.679 214.211 29.393 221.788 36.115 226.655Z" fill="#2F2E41"/>
<path d="M122.692 168.117L119.29 167.191L114.516 160.878L99.8658 163.469L96.9512 170.991L88.9256 178.403L94.5731 197.959L102.714 221.593L141.571 212.992L139.822 194.79C139.822 194.79 145.578 179.74 133.596 175.426L122.692 168.117Z" fill="#619682"/>
<path d="M189.218 225.586C188.483 225.963 187.675 226.176 186.849 226.208C186.024 226.239 185.201 226.09 184.44 225.769C183.679 225.449 182.997 224.965 182.443 224.353C181.888 223.74 181.475 223.014 181.232 222.224L134.906 199.808L142.052 189.812L185.342 214.989C186.695 214.669 188.119 214.856 189.344 215.515C190.568 216.174 191.509 217.26 191.986 218.566C192.464 219.872 192.446 221.308 191.936 222.602C191.425 223.896 190.458 224.957 189.218 225.585L189.218 225.586Z" fill="#FFB6B6"/>
<path d="M119.119 188.599C119.119 188.599 117.222 190.904 122.803 193.877C127.272 196.257 147.33 208.209 154.187 209.754C154.196 210.74 154.532 211.694 155.142 212.467C155.753 213.241 156.603 213.789 157.56 214.025L162.343 200.22C160.755 197.316 158.735 198.212 157.701 199.001L149.912 194.211L130.37 178.044L120.461 186.909L119.119 188.599Z" fill="#619682"/>
<path d="M95.1524 121.558C93.3985 124.753 92.4055 128.309 92.2504 131.95C92.0954 135.591 92.7826 139.219 94.2586 142.551" fill="#FD6584"/>
<path d="M37.5306 431.372C37.539 431.464 37.5653 431.553 37.6081 431.634C37.651 431.715 37.7095 431.787 37.7803 431.846C37.8511 431.905 37.9328 431.949 38.0207 431.976C38.1086 432.003 38.201 432.012 38.2925 432.003L202.34 416.62C202.525 416.602 202.695 416.512 202.814 416.37C202.932 416.227 202.989 416.043 202.971 415.858C202.954 415.673 202.864 415.503 202.721 415.385C202.578 415.266 202.394 415.21 202.21 415.227L38.1619 430.61C38.0703 430.618 37.9813 430.645 37.8999 430.688C37.8186 430.73 37.7465 430.789 37.6878 430.86C37.6291 430.931 37.5851 431.012 37.5581 431.1C37.5311 431.188 37.5218 431.28 37.5306 431.372V431.372Z" fill="#CCCCCC"/>
<path d="M85.1883 267.208C84.793 267.391 84.4861 267.722 84.335 268.131C84.1839 268.539 84.2009 268.99 84.3823 269.386L113.415 333.116C113.597 333.512 113.929 333.818 114.337 333.969C114.745 334.121 115.197 334.104 115.593 333.922L244.204 274.792C244.6 274.61 244.906 274.278 245.058 273.87C245.209 273.461 245.192 273.01 245.01 272.614L215.978 208.884C215.795 208.489 215.463 208.182 215.055 208.031C214.647 207.88 214.195 207.897 213.8 208.078L85.1883 267.208Z" fill="#E6E6E6"/>
<path d="M124.424 323.503C121.807 323.748 119.178 323.176 116.899 321.866C114.62 320.557 112.802 318.573 111.696 316.189L95.8143 281.854C94.3998 278.796 94.258 275.301 95.4201 272.138C96.5822 268.976 98.953 266.404 102.011 264.99L166.996 234.931C179.163 229.32 193.058 228.764 205.634 233.385C218.209 238.006 228.438 247.427 234.077 259.581C235.491 262.639 235.633 266.134 234.471 269.296C233.309 272.459 230.938 275.03 227.88 276.445L227.756 276.178L227.88 276.445L128.559 322.386C127.254 322.99 125.856 323.368 124.424 323.503V323.503Z" fill="white"/>
<path d="M206.992 245.143L148.788 271.902C147.968 272.279 146.843 271.582 146.275 270.346C145.706 269.11 145.91 267.803 146.731 267.426L204.934 240.666C205.754 240.289 206.879 240.986 207.447 242.222C208.016 243.458 207.812 244.767 206.992 245.143Z" fill="#E6E6E6"/>
<path d="M212.891 257.974L154.688 284.733C153.868 285.11 152.742 284.414 152.174 283.178C151.606 281.942 151.81 280.634 152.63 280.257L210.833 253.498C211.653 253.121 212.778 253.817 213.347 255.053C213.915 256.289 213.711 257.597 212.891 257.974Z" fill="#E6E6E6"/>
<path d="M141.322 279.884C142.139 281.644 142.633 283.537 142.781 285.472C142.852 286.358 142.847 287.247 142.767 288.132C142.518 290.989 141.518 293.729 139.87 296.076C138.221 298.423 135.982 300.292 133.38 301.496C130.777 302.7 127.902 303.196 125.046 302.932C122.191 302.669 119.455 301.656 117.116 299.997C116.88 299.83 116.65 299.657 116.424 299.477C114.498 297.949 112.942 296.005 111.875 293.79C110.808 291.575 110.255 289.147 110.26 286.689C110.265 284.23 110.827 281.804 111.903 279.594C112.979 277.383 114.542 275.445 116.474 273.924C118.406 272.404 120.657 271.34 123.059 270.814C125.461 270.288 127.95 270.313 130.341 270.886C132.732 271.46 134.962 272.567 136.864 274.125C138.766 275.684 140.29 277.652 141.322 279.884V279.884Z" fill="#E4E4E4"/>
<path d="M127.45 289.133C129.162 288.972 130.42 287.455 130.259 285.743C130.099 284.031 128.581 282.774 126.869 282.934C125.158 283.095 123.9 284.613 124.061 286.324C124.221 288.036 125.739 289.293 127.45 289.133Z" fill="#FD6584"/>
<path d="M116.424 299.477C117.046 297.556 117.723 294.651 119.997 295.472C121.117 295.838 123.177 297.075 123.805 295.353L128.73 281.951C128.824 281.701 128.966 281.472 129.15 281.278C129.333 281.084 129.554 280.928 129.798 280.821C130.042 280.713 130.306 280.655 130.573 280.65C130.84 280.646 131.105 280.695 131.353 280.794L142.781 285.472C142.852 286.358 142.847 287.247 142.767 288.132L117.116 299.996L116.424 299.477Z" fill="#3F3D56"/>
<path d="M116.034 261.3C115.24 261.074 114.504 260.677 113.88 260.135C113.256 259.594 112.758 258.923 112.421 258.169C112.085 257.414 111.917 256.595 111.931 255.77C111.945 254.944 112.14 254.131 112.503 253.388L94.0084 205.362L106.057 202.95L120.448 250.916C121.655 251.608 122.566 252.717 123.009 254.036C123.453 255.354 123.397 256.789 122.853 258.069C122.309 259.349 121.314 260.385 120.058 260.98C118.801 261.576 117.369 261.69 116.034 261.3V261.3Z" fill="#FFB6B6"/>
<path d="M89.4176 178.477C89.4176 178.477 86.4576 178.862 88.4999 184.848C90.1349 189.639 97.3349 219.986 101.285 225.801C100.617 226.526 100.21 227.452 100.127 228.434C100.044 229.416 100.29 230.397 100.827 231.224L113.754 224.416C114.58 221.211 113.452 218.476 112.158 218.346L109.746 209.525L104.609 179.657L91.5524 178.16L89.4176 178.477Z" fill="#619682"/>
<path d="M222.729 296.902L204.203 299.416C203.807 299.471 203.404 299.435 203.024 299.312C202.644 299.188 202.297 298.981 202.009 298.704C201.725 298.435 201.506 298.105 201.367 297.739C201.229 297.373 201.175 296.98 201.211 296.59C201.908 288.674 200.741 280.705 197.803 273.321C197.577 272.756 197.554 272.131 197.737 271.551C197.92 270.971 198.299 270.472 198.809 270.14C206.055 265.468 213.174 264.598 219.967 267.554C220.322 267.706 220.641 267.934 220.899 268.222C221.158 268.51 221.351 268.85 221.464 269.22C223.922 277.348 225.121 285.804 225.021 294.294C225.019 294.932 224.785 295.548 224.364 296.028C223.942 296.507 223.361 296.818 222.729 296.902Z" fill="#619682"/>
<path d="M220.8 284.803L206.635 286.726C206.461 286.75 206.283 286.739 206.113 286.694C205.942 286.649 205.782 286.571 205.642 286.465C205.502 286.358 205.384 286.225 205.295 286.073C205.207 285.921 205.149 285.752 205.125 285.578C205.101 285.403 205.112 285.226 205.157 285.055C205.202 284.885 205.28 284.725 205.387 284.585C205.494 284.445 205.627 284.327 205.779 284.238C205.932 284.15 206.1 284.092 206.275 284.068L220.44 282.146C220.614 282.122 220.792 282.133 220.962 282.178C221.132 282.223 221.292 282.301 221.432 282.408C221.572 282.514 221.69 282.647 221.779 282.8C221.867 282.952 221.925 283.12 221.949 283.294C221.972 283.469 221.962 283.646 221.917 283.817C221.872 283.987 221.794 284.147 221.687 284.287C221.58 284.427 221.447 284.545 221.295 284.633C221.143 284.722 220.975 284.78 220.8 284.803V284.803Z" fill="white"/>
<path d="M220.168 280.143L206.002 282.066C205.65 282.114 205.293 282.02 205.01 281.804C204.727 281.589 204.541 281.27 204.493 280.917C204.446 280.565 204.54 280.208 204.755 279.925C204.97 279.642 205.289 279.456 205.642 279.408L219.807 277.486C220.159 277.438 220.516 277.532 220.799 277.748C221.082 277.963 221.268 278.282 221.316 278.634C221.364 278.987 221.27 279.344 221.054 279.627C220.839 279.91 220.52 280.096 220.168 280.143V280.143Z" fill="white"/>
<path d="M549.225 119.522L530.542 118.832C530.143 118.818 529.752 118.714 529.399 118.527C529.045 118.341 528.739 118.077 528.502 117.755C528.269 117.441 528.109 117.079 528.035 116.694C527.961 116.31 527.976 115.914 528.077 115.536C530.117 107.855 530.33 99.8038 528.698 92.0263C528.572 91.4314 528.655 90.811 528.935 90.271C529.215 89.7309 529.673 89.3046 530.232 89.0647C538.171 85.7003 545.334 86.0603 551.521 90.1336C551.845 90.3443 552.12 90.6233 552.326 90.9511C552.531 91.2788 552.663 91.6475 552.711 92.0314C553.744 100.459 553.48 108.996 551.929 117.344C551.818 117.973 551.482 118.54 550.985 118.94C550.488 119.34 549.863 119.547 549.225 119.522V119.522Z" fill="#619682"/>
<path d="M549.393 107.272L535.108 106.744C534.932 106.738 534.759 106.696 534.599 106.623C534.439 106.55 534.295 106.446 534.175 106.317C534.055 106.188 533.962 106.036 533.901 105.871C533.839 105.706 533.811 105.53 533.818 105.355C533.824 105.179 533.865 105.006 533.938 104.845C534.012 104.685 534.116 104.541 534.245 104.421C534.374 104.302 534.525 104.208 534.69 104.147C534.855 104.086 535.031 104.057 535.207 104.064L549.492 104.592C549.848 104.605 550.183 104.758 550.425 105.019C550.667 105.28 550.796 105.626 550.783 105.981C550.77 106.336 550.616 106.672 550.355 106.914C550.095 107.156 549.749 107.285 549.393 107.272V107.272Z" fill="white"/>
<path d="M549.567 102.572L535.282 102.044C535.106 102.038 534.932 101.997 534.772 101.924C534.612 101.851 534.467 101.747 534.347 101.618C534.227 101.489 534.133 101.337 534.072 101.172C534.01 101.007 533.982 100.831 533.989 100.655C533.995 100.479 534.036 100.305 534.11 100.145C534.183 99.9849 534.288 99.8408 534.417 99.7209C534.546 99.601 534.698 99.5078 534.863 99.4467C535.029 99.3855 535.205 99.3575 535.381 99.3644L549.666 99.8919C549.842 99.8981 550.015 99.939 550.176 100.012C550.336 100.085 550.481 100.189 550.601 100.319C550.721 100.448 550.814 100.599 550.876 100.764C550.937 100.93 550.966 101.105 550.959 101.282C550.953 101.458 550.911 101.631 550.838 101.791C550.764 101.951 550.66 102.096 550.531 102.215C550.401 102.335 550.25 102.429 550.084 102.49C549.919 102.551 549.743 102.579 549.567 102.572Z" fill="white"/>
<path d="M306.739 178.346L300.593 178.922L300.017 172.777C299.879 171.302 299.16 169.943 298.02 168.998C296.879 168.053 295.41 167.6 293.936 167.738C292.461 167.876 291.102 168.595 290.157 169.735C289.212 170.876 288.759 172.345 288.897 173.82L289.473 179.965L283.328 180.541C281.853 180.68 280.494 181.398 279.549 182.538C278.604 183.679 278.151 185.148 278.289 186.623C278.427 188.097 279.146 189.457 280.286 190.402C281.427 191.347 282.896 191.8 284.371 191.662L290.516 191.085L291.092 197.231C291.231 198.705 291.949 200.065 293.089 201.01C294.23 201.955 295.699 202.408 297.174 202.269C298.648 202.131 300.008 201.413 300.953 200.272C301.898 199.132 302.351 197.663 302.213 196.188L301.636 190.042L307.782 189.466C309.256 189.328 310.616 188.609 311.561 187.469C312.506 186.328 312.959 184.859 312.82 183.385C312.682 181.91 311.964 180.551 310.823 179.606C309.683 178.661 308.214 178.208 306.739 178.346V178.346Z" fill="white"/>
<path d="M495.089 45.9529C498.325 45.6494 500.703 42.78 500.399 39.5439C500.096 36.3078 497.226 33.9304 493.99 34.2339C490.754 34.5374 488.377 37.4067 488.68 40.6428C488.984 43.8789 491.853 46.2563 495.089 45.9529Z" fill="#3F3D56"/>
<path d="M150.675 245.34C153.911 245.037 156.288 242.167 155.985 238.931C155.682 235.695 152.812 233.318 149.576 233.621C146.34 233.925 143.963 236.794 144.266 240.03C144.569 243.266 147.439 245.644 150.675 245.34Z" fill="#3F3D56"/>
<path d="M333.954 69.2919C335.484 69.4364 336.941 69.35 338.325 69.0328C339.719 68.7164 340.927 68.2532 341.951 67.643L340.559 64.1961C339.763 64.7182 338.841 65.0941 337.794 65.3237C336.747 65.5534 335.661 65.615 334.536 65.5088C332.759 65.341 331.212 64.8015 329.895 63.8905C328.578 62.9696 327.583 61.8053 326.909 60.3976C326.237 58.98 325.979 57.4374 326.137 55.7697C326.294 54.102 326.836 52.6398 327.761 51.3831C328.687 50.1166 329.883 49.1593 331.348 48.5111C332.814 47.8531 334.435 47.6081 336.211 47.7759C337.336 47.8821 338.391 48.1461 339.377 48.5678C340.363 48.9895 341.197 49.5313 341.882 50.1933L343.894 47.068C342.976 46.2545 341.861 45.5667 340.55 45.0048C339.239 44.4429 337.829 44.0906 336.319 43.948C334.483 43.7745 332.735 43.938 331.075 44.4382C329.426 44.9296 327.94 45.6952 326.617 46.7351C325.304 47.7759 324.234 49.0339 323.408 50.509C322.583 51.9742 322.086 53.5949 321.918 55.3712C321.75 57.1474 321.934 58.8374 322.47 60.4412C323.006 62.035 323.822 63.4661 324.917 64.7344C326.021 66.0037 327.342 67.0394 328.879 67.8417C330.417 68.6342 332.109 69.1176 333.954 69.2919ZM356.773 71.4477C358.48 71.609 360.11 71.4344 361.661 70.9238C363.213 70.4133 364.606 69.6339 365.84 68.5856C367.075 67.5275 368.08 66.2635 368.856 64.7936C369.643 63.3148 370.12 61.6971 370.285 59.9406C370.452 58.1742 370.287 56.4959 369.79 54.9058C369.303 53.3166 368.552 51.8915 367.536 50.6307C366.521 49.36 365.299 48.3286 363.871 47.5365C362.442 46.7445 360.874 46.2678 359.167 46.1065C357.46 45.9452 355.831 46.1199 354.279 46.6304C352.727 47.1409 351.334 47.9252 350.099 48.9834C348.865 50.0317 347.855 51.2903 347.069 52.7592C346.293 54.2291 345.822 55.8473 345.655 57.6136C345.489 59.3702 345.649 61.0479 346.135 62.647C346.632 64.2372 347.388 65.6676 348.403 66.9383C349.419 68.1992 350.641 69.2256 352.07 70.0177C353.498 70.8097 355.066 71.2864 356.773 71.4477ZM357.125 67.7176C355.576 67.5712 354.227 67.0504 353.077 66.1553C351.927 65.2601 351.06 64.1079 350.476 62.6987C349.893 61.2797 349.683 59.7166 349.844 58.0094C350.005 56.3022 350.504 54.8112 351.342 53.5362C352.18 52.2514 353.248 51.277 354.545 50.6131C355.842 49.9491 357.265 49.6903 358.815 49.8366C360.374 49.9839 361.728 50.5052 362.878 51.4004C364.028 52.2955 364.895 53.4527 365.478 54.8717C366.061 56.2809 366.273 57.8391 366.111 59.5462C365.95 61.2534 365.45 62.7494 364.612 64.0342C363.775 65.3091 362.707 66.2786 361.41 66.9426C360.113 67.6065 358.685 67.8649 357.125 67.7176ZM374.609 72.6548L378.487 73.0212L379.404 63.311L383.134 63.6634C384.723 63.8135 386.148 63.6444 387.409 63.1562C388.68 62.6591 389.709 61.8851 390.495 60.8344C391.283 59.7737 391.749 58.4688 391.896 56.9195C392.043 55.3603 391.827 54.0157 391.246 52.8856C390.667 51.7457 389.797 50.8421 388.635 50.1748C387.483 49.5085 386.113 49.1002 384.524 48.9501L376.916 48.2314L374.609 72.6548ZM379.701 60.173L380.501 51.7062L383.091 51.9509C384.551 52.0889 385.743 52.5449 386.665 53.319C387.588 54.0932 387.981 55.2006 387.845 56.6413C387.71 58.0722 387.115 59.0963 386.061 59.7135C385.008 60.321 383.752 60.5557 382.291 60.4177L379.701 60.173ZM398.274 74.8905L402.137 75.2555L403.155 64.4796L413.148 51.6543L408.471 51.2124L401.592 60.3146L396.555 50.0867L391.877 49.6448L399.292 64.1146L398.274 74.8905ZM419.014 69.6964L422.433 70.0194L422.738 66.7926C423.985 66.7611 425.124 66.4555 426.155 65.8759C427.185 65.2962 428.031 64.5149 428.691 63.5318C429.352 62.539 429.741 61.4258 429.858 60.1923C429.986 58.8403 429.761 57.5796 429.185 56.4101C428.619 55.2316 427.77 54.2554 426.639 53.4814C425.517 52.7084 424.187 52.2491 422.647 52.1037C421.335 51.9797 420.101 52.127 418.946 52.5456C417.803 52.9552 416.824 53.6195 416.01 54.5382C415.208 55.448 414.657 56.5858 414.359 57.9514L417.38 58.8492C417.624 57.6377 418.183 56.7297 419.056 56.1252C419.931 55.5109 421.009 55.2644 422.292 55.3856C423.654 55.5142 424.705 55.9769 425.447 56.7738C426.189 57.5607 426.5 58.5857 426.381 59.8488C426.256 61.1712 425.72 62.151 424.774 62.7884C423.828 63.4258 422.624 63.6755 421.164 63.5376C420.858 63.5087 420.573 63.4668 420.309 63.412C420.056 63.3483 419.828 63.2869 419.625 63.2279L419.014 69.6964ZM419.987 77.4197C420.667 77.484 421.267 77.3017 421.786 76.8728C422.305 76.434 422.596 75.8791 422.66 75.2081C422.723 74.5371 422.54 73.9423 422.111 73.4239C421.683 72.8956 421.129 72.5993 420.448 72.535C419.777 72.4716 419.182 72.6593 418.662 73.0981C418.144 73.527 417.853 74.077 417.79 74.748C417.726 75.419 417.909 76.0187 418.337 76.547C418.766 77.0654 419.316 77.3563 419.987 77.4197Z" fill="#491F1F"/>
<path d="M171.24 365.859L174.839 364.923L172.437 348.3L182.063 362.135L184.357 361.538L186.01 344.77L192.024 360.454L195.61 359.521L187.215 337.505L183.396 338.498L181.549 355.478L171.665 341.549L167.846 342.542L171.24 365.859ZM211.067 355.971C212.651 355.559 214.056 354.871 215.282 353.907C216.507 352.943 217.503 351.789 218.268 350.446C219.031 349.094 219.521 347.632 219.738 346.06C219.962 344.477 219.862 342.87 219.438 341.24C219.012 339.6 218.316 338.148 217.352 336.884C216.396 335.617 215.257 334.583 213.935 333.783C212.61 332.974 211.177 332.447 209.637 332.202C208.097 331.957 206.535 332.041 204.95 332.453C203.366 332.865 201.961 333.553 200.735 334.517C199.51 335.481 198.515 336.639 197.752 337.991C196.987 339.334 196.491 340.793 196.265 342.367C196.048 343.939 196.153 345.545 196.579 347.184C197.003 348.814 197.694 350.268 198.651 351.544C199.616 352.809 200.761 353.845 202.086 354.655C203.408 355.455 204.84 355.977 206.38 356.222C207.92 356.467 209.482 356.383 211.067 355.971ZM210.166 352.509C208.728 352.883 207.348 352.856 206.024 352.428C204.7 352 203.547 351.249 202.563 350.175C201.578 349.091 200.879 347.758 200.467 346.173C200.055 344.589 200.016 343.088 200.352 341.671C200.685 340.245 201.325 339.023 202.273 338.004C203.22 336.985 204.413 336.289 205.851 335.915C207.298 335.538 208.683 335.564 210.007 335.992C211.331 336.421 212.485 337.176 213.471 338.259C214.454 339.334 215.152 340.663 215.564 342.247C215.976 343.831 216.015 345.337 215.682 346.763C215.347 348.18 214.705 349.398 213.758 350.417C212.81 351.435 211.613 352.133 210.166 352.509ZM237.441 349.112C239.025 348.7 240.43 348.012 241.656 347.048C242.882 346.084 243.877 344.93 244.643 343.587C245.406 342.235 245.896 340.773 246.113 339.201C246.336 337.618 246.236 336.011 245.812 334.381C245.386 332.741 244.691 331.289 243.726 330.025C242.771 328.758 241.632 327.724 240.309 326.924C238.984 326.115 237.552 325.588 236.012 325.343C234.471 325.098 232.909 325.182 231.325 325.594C229.741 326.006 228.335 326.694 227.11 327.658C225.884 328.622 224.89 329.78 224.127 331.132C223.361 332.476 222.866 333.934 222.64 335.508C222.423 337.08 222.527 338.686 222.954 340.325C223.377 341.956 224.068 343.409 225.026 344.685C225.99 345.95 227.135 346.987 228.46 347.796C229.783 348.596 231.214 349.118 232.754 349.363C234.294 349.608 235.857 349.524 237.441 349.112ZM236.541 345.65C235.103 346.024 233.722 345.997 232.398 345.569C231.075 345.141 229.921 344.39 228.938 343.316C227.952 342.232 227.253 340.899 226.841 339.314C226.429 337.73 226.391 336.229 226.726 334.812C227.059 333.386 227.7 332.164 228.647 331.145C229.595 330.126 230.787 329.43 232.225 329.056C233.672 328.679 235.057 328.705 236.381 329.134C237.705 329.562 238.86 330.317 239.845 331.401C240.829 332.475 241.526 333.804 241.938 335.388C242.35 336.973 242.39 338.478 242.057 339.904C241.721 341.321 241.08 342.539 240.132 343.558C239.185 344.576 237.988 345.274 236.541 345.65ZM253.838 344.379L259.662 342.864C261.274 342.445 262.698 341.772 263.933 340.844C265.175 339.905 266.18 338.788 266.948 337.493C267.723 336.187 268.22 334.772 268.44 333.248C268.66 331.724 268.562 330.166 268.148 328.572C267.734 326.979 267.055 325.571 266.111 324.35C265.175 323.117 264.051 322.124 262.74 321.369C261.436 320.604 260.018 320.112 258.485 319.895C256.952 319.677 255.38 319.778 253.768 320.198L247.943 321.712L253.838 344.379ZM256.597 340.214L252.382 324.005L254.223 323.526C255.734 323.133 257.182 323.138 258.567 323.54C259.951 323.933 261.15 324.653 262.165 325.699C263.178 326.736 263.884 328.024 264.284 329.562C264.684 331.101 264.696 332.574 264.319 333.982C263.94 335.382 263.243 336.594 262.229 337.621C261.213 338.638 259.949 339.343 258.438 339.736L256.597 340.214ZM179.321 396.822L186.946 394.839C189.189 394.255 190.814 393.246 191.819 391.811C192.832 390.365 193.083 388.662 192.573 386.702C192.161 385.118 191.394 383.953 190.272 383.209C189.147 382.455 187.737 382.167 186.043 382.343C187.83 380.871 188.411 378.931 187.785 376.522C187.294 374.636 186.306 373.373 184.819 372.732C183.342 372.09 181.509 372.053 179.32 372.623L173.427 374.155L179.321 396.822ZM179.509 382.767L177.755 376.022L179.252 375.632C180.662 375.265 181.808 375.271 182.688 375.648C183.568 376.025 184.152 376.763 184.437 377.862C184.721 378.952 184.568 379.887 183.978 380.666C183.389 381.445 182.398 382.015 181.006 382.377L179.509 382.767ZM182.185 393.056L180.32 385.885L183.177 385.142C184.679 384.751 185.915 384.767 186.885 385.189C187.856 385.612 188.492 386.405 188.795 387.568C189.092 388.712 188.921 389.691 188.282 390.502C187.651 391.311 186.571 391.915 185.042 392.313L182.185 393.056ZM208.469 389.711C210.053 389.299 211.458 388.611 212.684 387.647C213.91 386.683 214.905 385.529 215.67 384.186C216.433 382.834 216.923 381.372 217.14 379.8C217.364 378.217 217.264 376.61 216.84 374.98C216.414 373.34 215.718 371.888 214.754 370.624C213.799 369.356 212.66 368.323 211.337 367.523C210.012 366.714 208.579 366.187 207.039 365.942C205.499 365.697 203.937 365.781 202.353 366.193C200.768 366.605 199.363 367.293 198.138 368.257C196.912 369.221 195.918 370.379 195.155 371.731C194.389 373.074 193.893 374.533 193.667 376.107C193.45 377.679 193.555 379.285 193.981 380.924C194.405 382.554 195.096 384.008 196.054 385.284C197.018 386.549 198.163 387.585 199.488 388.395C200.811 389.195 202.242 389.717 203.782 389.962C205.322 390.207 206.884 390.123 208.469 389.711ZM207.569 386.249C206.131 386.623 204.75 386.596 203.426 386.168C202.102 385.74 200.949 384.989 199.966 383.915C198.98 382.831 198.281 381.498 197.869 379.913C197.457 378.329 197.419 376.828 197.754 375.411C198.087 373.985 198.728 372.763 199.675 371.744C200.622 370.725 201.815 370.029 203.253 369.655C204.7 369.278 206.085 369.304 207.409 369.732C208.733 370.161 209.888 370.916 210.873 371.999C211.857 373.073 212.554 374.403 212.966 375.987C213.378 377.571 213.418 379.077 213.085 380.503C212.749 381.92 212.108 383.138 211.16 384.157C210.213 385.175 209.015 385.873 207.569 386.249ZM222.269 385.653L226.129 384.649L226.832 378.16L236.036 375.766L239.798 381.094L243.672 380.087L228.738 359.771L225.4 360.639L222.269 385.653ZM227.233 374.682L228.32 365.042L233.992 372.924L227.233 374.682ZM247.698 379.04L251.297 378.104L248.983 369.202L250.59 368.784L259.691 375.921L264.252 374.735L254.374 367.375C255.978 366.586 257.107 365.476 257.761 364.044C258.425 362.611 258.53 361.024 258.078 359.284C257.53 357.177 256.43 355.713 254.779 354.891C253.126 354.06 251.154 353.942 248.865 354.537L241.804 356.373L247.698 379.04ZM248.197 366.18L246.153 358.322L248.557 357.697C250.068 357.304 251.33 357.342 252.342 357.813C253.363 358.28 254.033 359.128 254.352 360.355C254.674 361.591 254.505 362.672 253.846 363.596C253.184 364.511 252.103 365.164 250.601 365.555L248.197 366.18ZM267.875 373.793L273.699 372.278C275.311 371.859 276.735 371.185 277.97 370.258C279.212 369.319 280.217 368.202 280.985 366.907C281.76 365.601 282.257 364.186 282.477 362.662C282.697 361.138 282.6 359.58 282.185 357.986C281.771 356.393 281.092 354.985 280.148 353.764C279.212 352.531 278.088 351.538 276.777 350.783C275.473 350.018 274.055 349.526 272.522 349.309C270.989 349.091 269.417 349.192 267.805 349.611L261.98 351.126L267.875 373.793ZM270.635 369.628L266.419 353.418L268.26 352.94C269.771 352.547 271.219 352.551 272.605 352.954C273.988 353.347 275.187 354.067 276.202 355.113C277.215 356.15 277.921 357.438 278.321 358.976C278.722 360.515 278.733 361.988 278.356 363.396C277.977 364.795 277.28 366.008 276.266 367.034C275.25 368.052 273.986 368.757 272.475 369.15L270.635 369.628ZM291.62 360.592L294.793 359.767L294.015 356.772C295.124 356.337 296.046 355.692 296.781 354.836C297.517 353.979 298.021 353.003 298.293 351.905C298.562 350.799 298.548 349.673 298.25 348.528C297.924 347.274 297.312 346.216 296.413 345.354C295.521 344.481 294.441 343.882 293.174 343.557C291.915 343.229 290.572 343.251 289.143 343.622C287.925 343.939 286.866 344.474 285.967 345.226C285.074 345.966 284.412 346.881 283.982 347.971C283.558 349.049 283.435 350.25 283.613 351.572L286.617 351.392C286.441 350.226 286.646 349.229 287.233 348.402C287.817 347.565 288.704 346.992 289.895 346.683C291.159 346.354 292.253 346.426 293.178 346.9C294.1 347.364 294.714 348.182 295.019 349.354C295.338 350.581 295.177 351.635 294.536 352.516C293.894 353.396 292.896 354.013 291.541 354.365C291.257 354.439 290.988 354.494 290.733 354.531C290.485 354.556 290.261 354.576 290.059 354.589L291.62 360.592ZM295.012 367.205C295.644 367.04 296.122 366.681 296.447 366.127C296.77 365.564 296.851 364.971 296.689 364.349C296.527 363.726 296.169 363.252 295.615 362.927C295.059 362.592 294.465 362.507 293.833 362.672C293.21 362.833 292.737 363.196 292.414 363.759C292.089 364.313 292.007 364.901 292.169 365.524C292.331 366.147 292.69 366.625 293.247 366.96C293.801 367.285 294.389 367.367 295.012 367.205Z" fill="#491F1F"/>
<path d="M246.18 236.746L249.888 237.027L250.592 227.742L254.158 228.012C255.677 228.127 257.034 227.94 258.229 227.452C259.434 226.955 260.402 226.198 261.134 225.181C261.867 224.155 262.289 222.901 262.401 221.419C262.514 219.929 262.284 218.649 261.71 217.581C261.137 216.503 260.29 215.656 259.17 215.039C258.058 214.424 256.743 214.058 255.224 213.943L247.949 213.392L246.18 236.746ZM250.819 224.741L251.432 216.645L253.909 216.833C255.306 216.939 256.451 217.353 257.345 218.075C258.239 218.798 258.634 219.848 258.53 221.226C258.426 222.594 257.877 223.582 256.882 224.19C255.888 224.788 254.692 225.035 253.296 224.929L250.819 224.741ZM265.973 238.245L269.681 238.526L270.376 229.354L272.032 229.48L278.329 239.181L283.028 239.537L276.068 229.373C277.841 229.147 279.269 228.462 280.352 227.32C281.444 226.179 282.059 224.712 282.194 222.919C282.359 220.749 281.793 219.007 280.498 217.694C279.203 216.372 277.376 215.621 275.017 215.443L267.742 214.892L265.973 238.245ZM270.612 226.241L271.225 218.145L273.702 218.332C275.259 218.45 276.44 218.896 277.245 219.668C278.059 220.442 278.419 221.461 278.323 222.725C278.226 223.999 277.717 224.966 276.794 225.627C275.871 226.278 274.636 226.546 273.089 226.428L270.612 226.241ZM296.889 241.043C298.521 241.166 300.074 240.971 301.545 240.456C303.017 239.941 304.333 239.173 305.492 238.15C306.652 237.118 307.59 235.894 308.304 234.477C309.029 233.051 309.455 231.499 309.583 229.819C309.711 228.13 309.523 226.531 309.021 225.022C308.528 223.514 307.785 222.167 306.793 220.982C305.802 219.787 304.617 218.824 303.24 218.093C301.862 217.363 300.357 216.935 298.725 216.812C297.092 216.688 295.54 216.884 294.068 217.398C292.596 217.913 291.28 218.687 290.12 219.719C288.961 220.741 288.019 221.96 287.295 223.376C286.58 224.793 286.159 226.346 286.031 228.035C285.904 229.715 286.086 231.313 286.579 232.831C287.081 234.34 287.828 235.692 288.819 236.887C289.812 238.072 290.996 239.031 292.374 239.761C293.752 240.492 295.257 240.919 296.889 241.043ZM297.159 237.476C295.678 237.364 294.38 236.891 293.267 236.057C292.153 235.223 291.305 234.138 290.723 232.803C290.142 231.459 289.913 229.971 290.036 228.339C290.16 226.706 290.61 225.274 291.387 224.042C292.164 222.801 293.166 221.852 294.393 221.195C295.619 220.539 296.973 220.266 298.454 220.378C299.945 220.491 301.248 220.965 302.361 221.799C303.475 222.633 304.322 223.722 304.904 225.066C305.486 226.401 305.715 227.885 305.591 229.517C305.468 231.149 305.017 232.586 304.24 233.827C303.463 235.059 302.462 236.004 301.235 236.66C300.009 237.317 298.65 237.589 297.159 237.476ZM312.788 241.792L320.644 242.387C322.955 242.562 324.819 242.134 326.236 241.102C327.662 240.062 328.452 238.532 328.605 236.513C328.728 234.881 328.38 233.531 327.559 232.462C326.739 231.385 325.499 230.655 323.839 230.273C326.007 229.46 327.185 227.813 327.373 225.331C327.521 223.387 326.995 221.872 325.796 220.784C324.607 219.698 322.885 219.069 320.629 218.898L314.558 218.438L312.788 241.792ZM317.521 228.556L318.047 221.607L319.59 221.723C321.043 221.834 322.125 222.21 322.835 222.852C323.546 223.494 323.858 224.381 323.772 225.514C323.687 226.636 323.24 227.471 322.43 228.017C321.62 228.563 320.498 228.782 319.063 228.673L317.521 228.556ZM316.717 239.157L317.277 231.769L320.221 231.992C321.769 232.109 322.933 232.525 323.714 233.239C324.495 233.953 324.84 234.909 324.749 236.107C324.66 237.287 324.181 238.157 323.313 238.717C322.454 239.279 321.237 239.499 319.661 239.38L316.717 239.157ZM332.539 243.288L345.164 244.245L345.411 240.989L336.494 240.314L338.017 220.216L334.308 219.935L332.539 243.288ZM349.485 244.572L362.039 245.523L362.286 242.268L353.44 241.597L353.956 234.775L362.463 235.42L362.709 232.164L354.203 231.52L354.716 224.755L363.562 225.425L363.808 222.169L351.254 221.218L349.485 244.572ZM366.721 245.878L370.429 246.159L373.544 229.654L378.167 245.862L380.53 246.041L387.528 230.714L388.135 247.5L391.829 247.78L391.022 224.231L387.088 223.933L379.838 239.398L375.001 223.017L371.066 222.719L366.721 245.878ZM249.715 269.561C251.31 269.681 252.736 269.519 253.994 269.073C255.262 268.619 256.28 267.904 257.046 266.927C257.823 265.942 258.267 264.719 258.378 263.256C258.483 261.869 258.257 260.718 257.7 259.803C257.153 258.879 256.364 258.079 255.334 257.403C254.304 256.717 253.121 256.049 251.785 255.397C251.107 255.071 250.481 254.753 249.907 254.443C249.342 254.126 248.901 253.755 248.582 253.332C248.263 252.9 248.129 252.354 248.179 251.693C248.243 250.844 248.616 250.123 249.297 249.529C249.978 248.926 250.899 248.668 252.06 248.756C253.051 248.831 253.954 249.118 254.771 249.616C255.588 250.105 256.239 250.648 256.726 251.245L258.552 248.55C258.144 248.055 257.611 247.578 256.953 247.12C256.304 246.662 255.574 246.275 254.763 245.957C253.962 245.64 253.122 245.449 252.244 245.382C250.82 245.274 249.546 245.491 248.423 246.032C247.3 246.573 246.399 247.326 245.718 248.29C245.047 249.254 244.667 250.322 244.579 251.492C244.497 252.567 244.673 253.501 245.107 254.293C245.541 255.076 246.116 255.751 246.832 256.317C247.559 256.875 248.31 257.355 249.086 257.755C250.174 258.302 251.127 258.816 251.945 259.295C252.763 259.765 253.388 260.292 253.818 260.875C254.249 261.449 254.432 262.169 254.366 263.038C254.281 264.16 253.83 264.98 253.012 265.497C252.196 266.005 251.217 266.215 250.075 266.129C248.999 266.047 248.057 265.772 247.248 265.303C246.439 264.824 245.758 264.298 245.204 263.724C244.649 263.151 244.211 262.672 243.889 262.287L241.709 265.139C241.932 265.441 242.264 265.822 242.704 266.282C243.144 266.733 243.693 267.197 244.349 267.674C245.016 268.142 245.792 268.552 246.676 268.903C247.57 269.256 248.583 269.475 249.715 269.561ZM265.595 270.308L269.289 270.588L270.808 250.532L277.178 251.015L277.427 247.717L261.009 246.473L260.759 249.771L267.114 250.252L265.595 270.308ZM275.946 271.092L279.923 271.394L282.692 265.482L292.175 266.201L294.006 272.461L297.998 272.763L290.454 248.704L287.014 248.443L275.946 271.092ZM284.198 262.322L288.35 253.555L291.161 262.85L284.198 262.322ZM304.656 273.267L308.35 273.547L309.869 253.492L316.238 253.974L316.488 250.676L300.07 249.432L299.82 252.73L306.175 253.212L304.656 273.267ZM319.037 274.357L331.591 275.308L331.837 272.053L322.991 271.382L323.508 264.56L332.015 265.205L332.261 261.949L323.755 261.305L324.267 254.54L333.113 255.21L333.36 251.954L320.806 251.003L319.037 274.357ZM336.273 275.663L339.981 275.944L343.096 259.439L347.719 275.647L350.082 275.826L357.08 260.499L357.687 277.285L361.381 277.565L360.574 254.016L356.64 253.718L349.39 269.183L344.552 252.802L340.618 252.504L336.273 275.663ZM367.026 277.992L379.58 278.944L379.827 275.688L370.981 275.018L371.498 268.196L380.004 268.84L380.251 265.585L371.744 264.941L372.257 258.175L381.103 258.845L381.35 255.59L368.795 254.639L367.026 277.992ZM385.437 279.387L389.145 279.668L390.443 262.542L400.1 280.498L403.808 280.779L405.577 257.426L401.869 257.145L400.571 274.285L390.914 256.315L387.206 256.034L385.437 279.387ZM413.13 281.485L416.824 281.765L418.343 261.709L424.712 262.192L424.962 258.894L408.544 257.65L408.294 260.948L414.649 261.43L413.13 281.485ZM431.308 276.044L434.577 276.292L434.811 273.206C436.001 273.154 437.083 272.842 438.056 272.27C439.03 271.699 439.823 270.938 440.436 269.988C441.049 269.029 441.401 267.959 441.49 266.78C441.588 265.487 441.352 264.288 440.781 263.181C440.22 262.067 439.392 261.15 438.299 260.431C437.214 259.713 435.936 259.298 434.464 259.187C433.209 259.092 432.034 259.254 430.94 259.674C429.855 260.086 428.933 260.737 428.172 261.628C427.422 262.511 426.917 263.607 426.656 264.916L429.556 265.719C429.768 264.558 430.285 263.682 431.108 263.089C431.932 262.487 432.957 262.233 434.183 262.326C435.486 262.424 436.497 262.848 437.219 263.595C437.941 264.333 438.257 265.306 438.165 266.514C438.069 267.778 437.575 268.723 436.684 269.348C435.792 269.973 434.647 270.233 433.251 270.127C432.958 270.105 432.686 270.07 432.433 270.022C432.191 269.966 431.972 269.912 431.777 269.859L431.308 276.044ZM432.374 283.399C433.025 283.448 433.594 283.263 434.081 282.845C434.569 282.417 434.837 281.882 434.886 281.24C434.934 280.599 434.749 280.034 434.331 279.547C433.913 279.05 433.378 278.777 432.727 278.728C432.086 278.679 431.521 278.869 431.033 279.297C430.546 279.716 430.278 280.246 430.229 280.887C430.181 281.529 430.365 282.098 430.783 282.595C431.202 283.082 431.732 283.35 432.374 283.399Z" fill="#491F1F"/>
</g>
</g>
<defs>
<clipPath id="clip0_892_14140">
<rect width="592" height="460.444" rx="27.9556" fill="white"/>
</clipPath>
<clipPath id="clip1_892_14140">
<rect x="-11" y="68.297" width="581.563" height="366.72" rx="19.659" transform="rotate(-5.35716 -11 68.297)" fill="white"/>
</clipPath>
</defs>
</svg>
